CooperHewitt-SemiboldItalic.ufo
<glyph name="exclam" format="1">
  <advance width="250"/>
  <unicode hex="0021"/>
  <outline>
    <contour>
      <point x="97" y="780" type="line"/>
      <point x="59" y="216" type="line"/>
      <point x="149" y="216" type="line"/>
      <point x="259" y="780" type="line"/>
    </contour>
    <contour>
      <point x="166" y="141" type="line"/>
      <point x="24" y="141" type="line"/>
      <point x="5" y="0" type="line"/>
      <point x="147" y="0" type="line"/>
    </contour>
  </outline>
</glyph>
<glyph name="quotedbl" format="1">
  <advance width="413"/>
  <unicode hex="0022"/>
  <outline>
    <contour>
      <point x="107" y="780" type="line"/>
      <point x="88" y="474" type="line"/>
      <point x="188" y="474" type="line"/>
      <point x="237" y="780" type="line"/>
    </contour>
    <contour>
      <point x="282" y="780" type="line"/>
      <point x="251" y="474" type="line"/>
      <point x="350" y="474" type="line"/>
      <point x="411" y="780" type="line"/>
    </contour>
  </outline>
</glyph>
<glyph name="numbersign" format="1">
  <advance width="600"/>
  <unicode hex="0023"/>
  <outline>
    <contour>
      <point x="86" y="460" type="line"/>
      <point x="157" y="460" type="line"/>
      <point x="112" y="320" type="line"/>
      <point x="19" y="320" type="line"/>
      <point x="4" y="206" type="line"/>
      <point x="75" y="206" type="line"/>
      <point x="8" y="0" type="line"/>
      <point x="124" y="0" type="line"/>
      <point x="191" y="206" type="line"/>
      <point x="293" y="206" type="line"/>
      <point x="226" y="0" type="line"/>
      <point x="342" y="0" type="line"/>
      <point x="409" y="206" type="line"/>
      <point x="503" y="206" type="line"/>
      <point x="518" y="320" type="line"/>
      <point x="446" y="320" type="line"/>
      <point x="491" y="460" type="line"/>
      <point x="585" y="460" type="line"/>
      <point x="600" y="574" type="line"/>
      <point x="528" y="574" type="line"/>
      <point x="596" y="780" type="line"/>
      <point x="480" y="780" type="line"/>
      <point x="412" y="574" type="line"/>
      <point x="310" y="574" type="line"/>
      <point x="378" y="780" type="line"/>
      <point x="262" y="780" type="line"/>
      <point x="194" y="574" type="line"/>
      <point x="101" y="574" type="line"/>
    </contour>
    <contour>
      <point x="273" y="460" type="line"/>
      <point x="375" y="460" type="line"/>
      <point x="330" y="320" type="line"/>
      <point x="228" y="320" type="line"/>
    </contour>
  </outline>
</glyph>
<glyph name="dollar" format="1">
  <advance width="600"/>
  <unicode hex="0024"/>
  <outline>
    <contour>
      <point x="520" y="840" type="line"/>
      <point x="418" y="840" type="line"/>
      <point x="376" y="727" type="line"/>
      <point x="361" y="729"/>
      <point x="346" y="730"/>
      <point x="329" y="730" type="curve" smooth="yes"/>
      <point x="193" y="730"/>
      <point x="97" y="668"/>
      <point x="81" y="551" type="curve" smooth="yes"/>
      <point x="78" y="529" type="line" smooth="yes"/>
      <point x="66" y="446"/>
      <point x="109" y="384"/>
      <point x="236" y="350" type="curve"/>
      <point x="181" y="200" type="line"/>
      <point x="168" y="219"/>
      <point x="164" y="244"/>
      <point x="170" y="275" type="curve"/>
      <point x="39" y="275" type="line"/>
      <point x="38" y="266" type="line" smooth="yes"/>
      <point x="29" y="187"/>
      <point x="53" y="114"/>
      <point x="135" y="77" type="curve"/>
      <point x="85" y="-60" type="line"/>
      <point x="187" y="-60" type="line"/>
      <point x="229" y="54" type="line"/>
      <point x="243" y="52"/>
      <point x="258" y="52"/>
      <point x="275" y="52" type="curve" smooth="yes"/>
      <point x="428" y="52"/>
      <point x="515" y="109"/>
      <point x="532" y="234" type="curve" smooth="yes"/>
      <point x="535" y="256" type="line" smooth="yes"/>
      <point x="547" y="344"/>
      <point x="491" y="411"/>
      <point x="372" y="439" type="curve"/>
      <point x="423" y="578" type="line"/>
      <point x="435" y="558"/>
      <point x="438" y="529"/>
      <point x="433" y="493" type="curve"/>
      <point x="563" y="493" type="line"/>
      <point x="564" y="502" type="line" smooth="yes"/>
      <point x="573" y="582"/>
      <point x="556" y="664"/>
      <point x="470" y="704" type="curve"/>
    </contour>
    <contour>
      <point x="401" y="255" type="curve" smooth="yes"/>
      <point x="401" y="187"/>
      <point x="354" y="160"/>
      <point x="284" y="160" type="curve" smooth="yes"/>
      <point x="268" y="160" type="line"/>
      <point x="330" y="328" type="line"/>
      <point x="381" y="312"/>
      <point x="401" y="291"/>
    </contour>
    <contour>
      <point x="209" y="528" type="curve" smooth="yes"/>
      <point x="209" y="589"/>
      <point x="256" y="621"/>
      <point x="320" y="621" type="curve" smooth="yes"/>
      <point x="337" y="621" type="line"/>
      <point x="277" y="458" type="line"/>
      <point x="227" y="473"/>
      <point x="209" y="495"/>
    </contour>
  </outline>
</glyph>
<glyph name="ampersand" format="1">
  <advance width="681"/>
  <unicode hex="0026"/>
  <outline>
    <contour>
      <point x="225" y="-13" type="curve" smooth="yes"/>
      <point x="315" y="-13"/>
      <point x="377" y="11"/>
      <point x="426" y="48" type="curve"/>
      <point x="461" y="0" type="line"/>
      <point x="621" y="0" type="line"/>
      <point x="525" y="130" type="line"/>
      <point x="589" y="202"/>
      <point x="632" y="288"/>
      <point x="644" y="395" type="curve"/>
      <point x="507" y="395" type="line"/>
      <point x="506" y="388" type="line" smooth="yes"/>
      <point x="497" y="325"/>
      <point x="479" y="275"/>
      <point x="452" y="230" type="curve"/>
      <point x="325" y="402" type="line"/>
      <point x="421" y="458"/>
      <point x="496" y="507"/>
      <point x="507" y="607" type="curve" smooth="yes"/>
      <point x="508" y="616" type="line" smooth="yes"/>
      <point x="519" y="713"/>
      <point x="463" y="793"/>
      <point x="312" y="793" type="curve" smooth="yes"/>
      <point x="175" y="793"/>
      <point x="107" y="714"/>
      <point x="96" y="619" type="curve" smooth="yes"/>
      <point x="95" y="610" type="line" smooth="yes"/>
      <point x="86" y="532"/>
      <point x="108" y="482"/>
      <point x="147" y="426" type="curve"/>
      <point x="76" y="385"/>
      <point x="17" y="324"/>
      <point x="5" y="218" type="curve" smooth="yes"/>
      <point x="4" y="209" type="line" smooth="yes"/>
      <point x="-11" y="74"/>
      <point x="70" y="-13"/>
    </contour>
    <contour>
      <point x="238" y="101" type="line" smooth="yes"/>
      <point x="164" y="101"/>
      <point x="130" y="150"/>
      <point x="138" y="216" type="curve" smooth="yes"/>
      <point x="139" y="224" type="line" smooth="yes"/>
      <point x="146" y="276"/>
      <point x="173" y="315"/>
      <point x="213" y="337" type="curve"/>
      <point x="361" y="136" type="line"/>
      <point x="332" y="114"/>
      <point x="286" y="101"/>
      <point x="243" y="101" type="curve" smooth="yes"/>
    </contour>
    <contour>
      <point x="227" y="615" type="line" smooth="yes"/>
      <point x="231" y="653"/>
      <point x="259" y="680"/>
      <point x="305" y="680" type="curve" smooth="yes"/>
      <point x="315" y="680" type="line" smooth="yes"/>
      <point x="361" y="680"/>
      <point x="381" y="654"/>
      <point x="376" y="615" type="curve" smooth="yes"/>
      <point x="375" y="607" type="line" smooth="yes"/>
      <point x="368" y="555"/>
      <point x="325" y="529"/>
      <point x="259" y="491" type="curve"/>
      <point x="237" y="521"/>
      <point x="221" y="562"/>
      <point x="226" y="606" type="curve" smooth="yes"/>
    </contour>
  </outline>
</glyph>
<glyph name="quotesingle" format="1">
  <advance width="250"/>
  <unicode hex="0027"/>
  <outline>
    <contour>
      <point x="107" y="780" type="line"/>
      <point x="88" y="474" type="line"/>
      <point x="188" y="474" type="line"/>
      <point x="249" y="780" type="line"/>
    </contour>
  </outline>
</glyph>
<glyph name="parenleft" format="1">
  <advance width="350"/>
  <unicode hex="0028"/>
  <outline>
    <contour>
      <point x="39" y="349" type="line" smooth="yes"/>
      <point x="9" y="129"/>
      <point x="60" y="-15"/>
      <point x="129" y="-120" type="curve"/>
      <point x="265" y="-120" type="line"/>
      <point x="210" y="-30"/>
      <point x="141" y="137"/>
      <point x="170" y="349" type="curve" smooth="yes"/>
      <point x="173" y="371" type="line" smooth="yes"/>
      <point x="202" y="585"/>
      <point x="292" y="725"/>
      <point x="395" y="840" type="curve"/>
      <point x="250" y="840" type="line"/>
      <point x="160" y="740"/>
      <point x="75" y="611"/>
      <point x="42" y="371" type="curve" smooth="yes"/>
    </contour>
  </outline>
</glyph>
<glyph name="parenright" format="1">
  <advance width="350"/>
  <unicode hex="0029"/>
  <outline>
    <contour>
      <point x="307" y="371" type="line" smooth="yes"/>
      <point x="337" y="591"/>
      <point x="286" y="735"/>
      <point x="217" y="840" type="curve"/>
      <point x="81" y="840" type="line"/>
      <point x="136" y="750"/>
      <point x="205" y="583"/>
      <point x="176" y="371" type="curve" smooth="yes"/>
      <point x="173" y="349" type="line" smooth="yes"/>
      <point x="144" y="135"/>
      <point x="54" y="-5"/>
      <point x="-49" y="-120" type="curve"/>
      <point x="96" y="-120" type="line"/>
      <point x="186" y="-20"/>
      <point x="271" y="109"/>
      <point x="304" y="349" type="curve" smooth="yes"/>
    </contour>
  </outline>
</glyph>
<glyph name="asterisk" format="1">
  <advance width="405"/>
  <unicode hex="002A"/>
  <outline>
    <contour>
      <point x="220" y="800" type="line"/>
      <point x="207" y="663" type="line"/>
      <point x="274" y="663" type="line"/>
      <point x="297" y="800" type="line"/>
    </contour>
    <contour>
      <point x="39" y="629" type="line"/>
      <point x="167" y="592" type="line"/>
      <point x="197" y="656" type="line"/>
      <point x="74" y="703" type="line"/>
    </contour>
    <contour>
      <point x="127" y="426" type="line"/>
      <point x="219" y="540" type="line"/>
      <point x="169" y="580" type="line"/>
      <point x="70" y="472" type="line"/>
    </contour>
    <contour>
      <point x="417" y="703" type="line"/>
      <point x="282" y="656" type="line"/>
      <point x="294" y="592" type="line"/>
      <point x="432" y="629" type="line"/>
    </contour>
    <contour>
      <point x="361" y="472" type="line"/>
      <point x="290" y="580" type="line"/>
      <point x="230" y="540" type="line"/>
      <point x="292" y="426" type="line"/>
    </contour>
  </outline>
</glyph>
<glyph name="plus" format="1">
  <advance width="600"/>
  <unicode hex="002B"/>
  <outline>
    <contour>
      <point x="276" y="646" type="line"/>
      <point x="249" y="449" type="line"/>
      <point x="53" y="449" type="line"/>
      <point x="37" y="331" type="line"/>
      <point x="234" y="331" type="line"/>
      <point x="208" y="134" type="line"/>
      <point x="326" y="134" type="line"/>
      <point x="353" y="331" type="line"/>
      <point x="549" y="331" type="line"/>
      <point x="565" y="449" type="line"/>
      <point x="368" y="449" type="line"/>
      <point x="394" y="646" type="line"/>
    </contour>
  </outline>
</glyph>
<glyph name="hyphen" format="1">
  <advance width="345"/>
  <unicode hex="002D"/>
  <outline>
    <contour>
      <point x="29" y="293" type="line"/>
      <point x="294" y="293" type="line"/>
      <point x="309" y="407" type="line"/>
      <point x="44" y="407" type="line"/>
    </contour>
  </outline>
</glyph>
<glyph name="period" format="1">
  <advance width="250"/>
  <unicode hex="002E"/>
  <outline>
    <contour>
      <point x="166" y="141" type="line"/>
      <point x="24" y="141" type="line"/>
      <point x="5" y="0" type="line"/>
      <point x="147" y="0" type="line"/>
    </contour>
  </outline>
</glyph>
<glyph name="slash" format="1">
  <advance width="388"/>
  <unicode hex="002F"/>
  <outline>
    <contour>
      <point x="434" y="840" type="line"/>
      <point x="306" y="840" type="line"/>
      <point x="-49" y="-120" type="line"/>
      <point x="79" y="-120" type="line"/>
    </contour>
  </outline>
</glyph>
<glyph name="zero" format="1">
  <advance width="600"/>
  <unicode hex="0030"/>
  <outline>
    <contour>
      <point x="574" y="558" type="line" smooth="yes"/>
      <point x="592" y="694"/>
      <point x="515" y="793"/>
      <point x="340" y="793" type="curve" smooth="yes"/>
      <point x="170" y="793"/>
      <point x="93" y="705"/>
      <point x="74" y="558" type="curve" smooth="yes"/>
      <point x="30" y="222" type="line" smooth="yes"/>
      <point x="12" y="86"/>
      <point x="89" y="-13"/>
      <point x="264" y="-13" type="curve" smooth="yes"/>
      <point x="434" y="-13"/>
      <point x="511" y="75"/>
      <point x="530" y="222" type="curve" smooth="yes"/>
    </contour>
    <contour>
      <point x="206" y="557" type="line" smooth="yes"/>
      <point x="217" y="642"/>
      <point x="255" y="676"/>
      <point x="334" y="676" type="curve" smooth="yes"/>
      <point x="340" y="676" type="line" smooth="yes"/>
      <point x="421" y="676"/>
      <point x="452" y="634"/>
      <point x="442" y="558" type="curve" smooth="yes"/>
      <point x="398" y="223" type="line" smooth="yes"/>
      <point x="387" y="138"/>
      <point x="349" y="104"/>
      <point x="270" y="104" type="curve" smooth="yes"/>
      <point x="264" y="104" type="line" smooth="yes"/>
      <point x="183" y="104"/>
      <point x="152" y="146"/>
      <point x="162" y="222" type="curve" smooth="yes"/>
    </contour>
  </outline>
</glyph>
<glyph name="one" format="1">
  <advance width="600"/>
  <unicode hex="0031"/>
  <outline>
    <contour>
      <point x="509" y="0" type="line"/>
      <point x="524" y="117" type="line"/>
      <point x="342" y="117" type="line"/>
      <point x="429" y="782" type="line"/>
      <point x="334" y="782" type="line"/>
      <point x="68" y="616" type="line"/>
      <point x="122" y="518" type="line"/>
      <point x="275" y="613" type="line"/>
      <point x="210" y="117" type="line"/>
      <point x="28" y="117" type="line"/>
      <point x="13" y="0" type="line"/>
    </contour>
  </outline>
</glyph>
<glyph name="two" format="1">
  <advance width="600"/>
  <unicode hex="0032"/>
  <outline>
    <contour>
      <point x="276" y="117" type="line"/>
      <point x="204" y="116" type="line"/>
      <point x="463" y="361" type="line" smooth="yes"/>
      <point x="533" y="427"/>
      <point x="564" y="473"/>
      <point x="575" y="552" type="curve" smooth="yes"/>
      <point x="578" y="574" type="line" smooth="yes"/>
      <point x="593" y="683"/>
      <point x="520" y="793"/>
      <point x="340" y="793" type="curve" smooth="yes"/>
      <point x="168" y="793"/>
      <point x="90" y="700"/>
      <point x="69" y="542" type="curve" smooth="yes"/>
      <point x="66" y="520" type="line"/>
      <point x="198" y="520" type="line"/>
      <point x="211" y="631"/>
      <point x="257" y="676"/>
      <point x="331" y="676" type="curve" smooth="yes"/>
      <point x="339" y="676" type="line" smooth="yes"/>
      <point x="407" y="676"/>
      <point x="454" y="640"/>
      <point x="444" y="561" type="curve" smooth="yes"/>
      <point x="443" y="553" type="line" smooth="yes"/>
      <point x="436" y="500"/>
      <point x="409" y="465"/>
      <point x="365" y="423" type="curve" smooth="yes"/>
      <point x="9" y="83" type="line"/>
      <point x="-2" y="0" type="line"/>
      <point x="504" y="0" type="line"/>
      <point x="519" y="117" type="line"/>
    </contour>
  </outline>
</glyph>
<glyph name="three" format="1">
  <advance width="600"/>
  <unicode hex="0033"/>
  <outline>
    <contour>
      <point x="157" y="250" type="curve"/>
      <point x="25" y="250" type="line"/>
      <point x="22" y="226" type="line" smooth="yes"/>
      <point x="4" y="82"/>
      <point x="85" y="-13"/>
      <point x="264" y="-13" type="curve" smooth="yes"/>
      <point x="433" y="-13"/>
      <point x="519" y="92"/>
      <point x="534" y="199" type="curve" smooth="yes"/>
      <point x="537" y="221" type="line" smooth="yes"/>
      <point x="549" y="311"/>
      <point x="512" y="374"/>
      <point x="440" y="397" type="curve"/>
      <point x="510" y="413"/>
      <point x="564" y="472"/>
      <point x="575" y="552" type="curve" smooth="yes"/>
      <point x="578" y="574" type="line" smooth="yes"/>
      <point x="593" y="687"/>
      <point x="522" y="793"/>
      <point x="342" y="793" type="curve" smooth="yes"/>
      <point x="170" y="793"/>
      <point x="90" y="699"/>
      <point x="69" y="542" type="curve" smooth="yes"/>
      <point x="66" y="520" type="line"/>
      <point x="198" y="520" type="line"/>
      <point x="211" y="631"/>
      <point x="257" y="676"/>
      <point x="333" y="676" type="curve" smooth="yes"/>
      <point x="341" y="676" type="line" smooth="yes"/>
      <point x="409" y="676"/>
      <point x="454" y="640"/>
      <point x="444" y="561" type="curve" smooth="yes"/>
      <point x="443" y="553" type="line" smooth="yes"/>
      <point x="434" y="482"/>
      <point x="385" y="456"/>
      <point x="315" y="456" type="curve" smooth="yes"/>
      <point x="211" y="456" type="line"/>
      <point x="195" y="340" type="line"/>
      <point x="303" y="340" type="line" smooth="yes"/>
      <point x="374" y="340"/>
      <point x="413" y="304"/>
      <point x="404" y="229" type="curve" smooth="yes"/>
      <point x="403" y="221" type="line" smooth="yes"/>
      <point x="393" y="140"/>
      <point x="337" y="104"/>
      <point x="274" y="104" type="curve" smooth="yes"/>
      <point x="266" y="104" type="line" smooth="yes"/>
      <point x="192" y="104"/>
      <point x="144" y="144"/>
    </contour>
  </outline>
</glyph>
<glyph name="four" format="1">
  <advance width="600"/>
  <unicode hex="0034"/>
  <outline>
    <contour>
      <point x="423" y="0" type="line"/>
      <point x="447" y="182" type="line"/>
      <point x="545" y="182" type="line"/>
      <point x="561" y="298" type="line"/>
      <point x="462" y="298" type="line"/>
      <point x="525" y="780" type="line"/>
      <point x="400" y="780" type="line"/>
      <point x="15" y="276" type="line"/>
      <point x="3" y="182" type="line"/>
      <point x="315" y="182" type="line"/>
      <point x="291" y="0" type="line"/>
    </contour>
    <contour>
      <point x="366" y="556" type="line"/>
      <point x="355" y="488" type="line"/>
      <point x="330" y="298" type="line"/>
      <point x="232" y="298" type="line"/>
      <point x="168" y="297" type="line"/>
    </contour>
  </outline>
</glyph>
<glyph name="five" format="1">
  <advance width="600"/>
  <unicode hex="0035"/>
  <outline>
    <contour>
      <point x="25" y="250" type="line"/>
      <point x="22" y="226" type="line" smooth="yes"/>
      <point x="4" y="82"/>
      <point x="85" y="-13"/>
      <point x="264" y="-13" type="curve" smooth="yes"/>
      <point x="422" y="-13"/>
      <point x="518" y="78"/>
      <point x="539" y="233" type="curve" smooth="yes"/>
      <point x="542" y="255" type="line" smooth="yes"/>
      <point x="563" y="410"/>
      <point x="468" y="503"/>
      <point x="320" y="503" type="curve" smooth="yes"/>
      <point x="255" y="503"/>
      <point x="211" y="484"/>
      <point x="180" y="456" type="curve"/>
      <point x="216" y="663" type="line"/>
      <point x="586" y="663" type="line"/>
      <point x="601" y="780" type="line"/>
      <point x="120" y="780" type="line"/>
      <point x="45" y="351" type="line"/>
      <point x="153" y="313" type="line"/>
      <point x="183" y="364"/>
      <point x="235" y="386"/>
      <point x="287" y="386" type="curve" smooth="yes"/>
      <point x="295" y="386" type="line" smooth="yes"/>
      <point x="367" y="386"/>
      <point x="420" y="344"/>
      <point x="408" y="248" type="curve" smooth="yes"/>
      <point x="407" y="240" type="line" smooth="yes"/>
      <point x="395" y="144"/>
      <point x="339" y="104"/>
      <point x="274" y="104" type="curve" smooth="yes"/>
      <point x="266" y="104" type="line" smooth="yes"/>
      <point x="192" y="104"/>
      <point x="144" y="144"/>
      <point x="157" y="250" type="curve"/>
    </contour>
  </outline>
</glyph>
<glyph name="six" format="1">
  <advance width="600"/>
  <unicode hex="0036"/>
  <outline>
    <contour>
      <point x="576" y="793" type="line"/>
      <point x="422" y="791"/>
      <point x="297" y="761"/>
      <point x="188" y="645" type="curve" smooth="yes"/>
      <point x="87" y="537"/>
      <point x="47" y="414"/>
      <point x="33" y="311" type="curve" smooth="yes"/>
      <point x="30" y="289" type="line" smooth="yes"/>
      <point x="5" y="106"/>
      <point x="86" y="-13"/>
      <point x="265" y="-13" type="curve" smooth="yes"/>
      <point x="422" y="-13"/>
      <point x="520" y="72"/>
      <point x="541" y="229" type="curve" smooth="yes"/>
      <point x="544" y="251" type="line" smooth="yes"/>
      <point x="565" y="408"/>
      <point x="474" y="491"/>
      <point x="345" y="491" type="curve" smooth="yes"/>
      <point x="283" y="491"/>
      <point x="234" y="469"/>
      <point x="200" y="434" type="curve"/>
      <point x="217" y="486"/>
      <point x="246" y="531"/>
      <point x="282" y="568" type="curve" smooth="yes"/>
      <point x="361" y="647"/>
      <point x="455" y="670"/>
      <point x="561" y="674" type="curve"/>
    </contour>
    <contour>
      <point x="305" y="375" type="line" smooth="yes"/>
      <point x="375" y="375"/>
      <point x="421" y="330"/>
      <point x="410" y="244" type="curve" smooth="yes"/>
      <point x="409" y="236" type="line" smooth="yes"/>
      <point x="399" y="153"/>
      <point x="346" y="104"/>
      <point x="274" y="104" type="curve" smooth="yes"/>
      <point x="268" y="104" type="line" smooth="yes"/>
      <point x="206" y="104"/>
      <point x="159" y="140"/>
      <point x="159" y="234" type="curve" smooth="yes"/>
      <point x="159" y="262"/>
      <point x="162" y="280"/>
      <point x="167" y="300" type="curve"/>
      <point x="200" y="348"/>
      <point x="248" y="375"/>
      <point x="300" y="375" type="curve" smooth="yes"/>
    </contour>
  </outline>
</glyph>
<glyph name="seven" format="1">
  <advance width="600"/>
  <unicode hex="0037"/>
  <outline>
    <contour>
      <point x="59" y="500" type="line"/>
      <point x="176" y="500" type="line"/>
      <point x="198" y="663" type="line"/>
      <point x="349" y="663" type="line"/>
      <point x="450" y="665" type="line"/>
      <point x="86" y="0" type="line"/>
      <point x="228" y="0" type="line"/>
      <point x="604" y="701" type="line"/>
      <point x="614" y="780" type="line"/>
      <point x="96" y="780" type="line"/>
    </contour>
  </outline>
</glyph>
<glyph name="eight" format="1">
  <advance width="600"/>
  <unicode hex="0038"/>
  <outline>
    <contour>
      <point x="256" y="-13" type="curve" smooth="yes"/>
      <point x="429" y="-13"/>
      <point x="519" y="87"/>
      <point x="534" y="194" type="curve" smooth="yes"/>
      <point x="537" y="216" type="line" smooth="yes"/>
      <point x="549" y="306"/>
      <point x="512" y="374"/>
      <point x="440" y="397" type="curve"/>
      <point x="513" y="414"/>
      <point x="564" y="472"/>
      <point x="575" y="552" type="curve" smooth="yes"/>
      <point x="578" y="574" type="line" smooth="yes"/>
      <point x="593" y="687"/>
      <point x="522" y="793"/>
      <point x="343" y="793" type="curve" smooth="yes"/>
      <point x="163" y="793"/>
      <point x="90" y="696"/>
      <point x="76" y="592" type="curve" smooth="yes"/>
      <point x="73" y="570" type="line" smooth="yes"/>
      <point x="61" y="482"/>
      <point x="108" y="416"/>
      <point x="162" y="397" type="curve"/>
      <point x="80" y="373"/>
      <point x="34" y="309"/>
      <point x="23" y="227" type="curve" smooth="yes"/>
      <point x="20" y="205" type="line" smooth="yes"/>
      <point x="4" y="90"/>
      <point x="80" y="-13"/>
    </contour>
    <contour>
      <point x="300" y="340" type="line" smooth="yes"/>
      <point x="371" y="340"/>
      <point x="413" y="297"/>
      <point x="404" y="229" type="curve" smooth="yes"/>
      <point x="403" y="221" type="line" smooth="yes"/>
      <point x="393" y="141"/>
      <point x="338" y="104"/>
      <point x="275" y="104" type="curve" smooth="yes"/>
      <point x="265" y="104" type="line" smooth="yes"/>
      <point x="196" y="104"/>
      <point x="145" y="141"/>
      <point x="154" y="215" type="curve" smooth="yes"/>
      <point x="155" y="223" type="line" smooth="yes"/>
      <point x="165" y="302"/>
      <point x="219" y="340"/>
      <point x="285" y="340" type="curve" smooth="yes"/>
    </contour>
    <contour>
      <point x="341" y="676" type="line" smooth="yes"/>
      <point x="409" y="676"/>
      <point x="454" y="640"/>
      <point x="444" y="561" type="curve" smooth="yes"/>
      <point x="443" y="553" type="line" smooth="yes"/>
      <point x="434" y="482"/>
      <point x="384" y="456"/>
      <point x="319" y="456" type="curve" smooth="yes"/>
      <point x="305" y="456" type="line" smooth="yes"/>
      <point x="243" y="456"/>
      <point x="196" y="492"/>
      <point x="205" y="562" type="curve" smooth="yes"/>
      <point x="206" y="570" type="line" smooth="yes"/>
      <point x="215" y="641"/>
      <point x="261" y="676"/>
      <point x="333" y="676" type="curve" smooth="yes"/>
    </contour>
  </outline>
</glyph>
<glyph name="nine" format="1">
  <advance width="600"/>
  <unicode hex="0039"/>
  <outline>
    <contour>
      <point x="27" y="-13" type="line"/>
      <point x="181" y="-11"/>
      <point x="306" y="19"/>
      <point x="415" y="135" type="curve" smooth="yes"/>
      <point x="516" y="243"/>
      <point x="556" y="366"/>
      <point x="570" y="469" type="curve" smooth="yes"/>
      <point x="573" y="491" type="line" smooth="yes"/>
      <point x="598" y="674"/>
      <point x="517" y="793"/>
      <point x="338" y="793" type="curve" smooth="yes"/>
      <point x="181" y="793"/>
      <point x="83" y="710"/>
      <point x="62" y="553" type="curve" smooth="yes"/>
      <point x="59" y="531" type="line" smooth="yes"/>
      <point x="38" y="374"/>
      <point x="129" y="289"/>
      <point x="258" y="289" type="curve" smooth="yes"/>
      <point x="320" y="289"/>
      <point x="369" y="311"/>
      <point x="403" y="346" type="curve"/>
      <point x="386" y="294"/>
      <point x="357" y="249"/>
      <point x="321" y="212" type="curve" smooth="yes"/>
      <point x="242" y="133"/>
      <point x="148" y="110"/>
      <point x="42" y="106" type="curve"/>
    </contour>
    <contour>
      <point x="298" y="405" type="line" smooth="yes"/>
      <point x="228" y="405"/>
      <point x="182" y="450"/>
      <point x="193" y="536" type="curve" smooth="yes"/>
      <point x="194" y="544" type="line" smooth="yes"/>
      <point x="204" y="627"/>
      <point x="257" y="676"/>
      <point x="329" y="676" type="curve" smooth="yes"/>
      <point x="335" y="676" type="line" smooth="yes"/>
      <point x="397" y="676"/>
      <point x="444" y="640"/>
      <point x="444" y="546" type="curve" smooth="yes"/>
      <point x="444" y="518"/>
      <point x="441" y="500"/>
      <point x="436" y="480" type="curve"/>
      <point x="403" y="432"/>
      <point x="355" y="405"/>
      <point x="303" y="405" type="curve" smooth="yes"/>
    </contour>
  </outline>
</glyph>
<glyph name="colon" format="1">
  <advance width="250"/>
  <unicode hex="003A"/>
  <outline>
    <contour>
      <point x="166" y="141" type="line"/>
      <point x="24" y="141" type="line"/>
      <point x="5" y="0" type="line"/>
      <point x="147" y="0" type="line"/>
    </contour>
    <contour>
      <point x="207" y="460" type="line"/>
      <point x="65" y="460" type="line"/>
      <point x="46" y="319" type="line"/>
      <point x="188" y="319" type="line"/>
    </contour>
  </outline>
</glyph>
<glyph name="semicolon" format="1">
  <advance width="250"/>
  <unicode hex="003B"/>
  <outline>
    <contour>
      <point x="207" y="460" type="line"/>
      <point x="65" y="460" type="line"/>
      <point x="46" y="319" type="line"/>
      <point x="188" y="319" type="line"/>
    </contour>
    <contour>
      <point x="166" y="141" type="line"/>
      <point x="24" y="141" type="line"/>
      <point x="5" y="0" type="line"/>
      <point x="77" y="0" type="line"/>
      <point x="62" y="-46"/>
      <point x="32" y="-67"/>
      <point x="-15" y="-67" type="curve"/>
      <point x="-24" y="-135" type="line"/>
      <point x="77" y="-135"/>
      <point x="136" y="-80"/>
      <point x="151" y="30" type="curve" smooth="yes"/>
    </contour>
  </outline>
</glyph>
<glyph name="less" format="1">
  <advance width="600"/>
  <unicode hex="003C"/>
  <outline>
    <contour>
      <point x="53" y="454" type="line"/>
      <point x="36" y="326" type="line"/>
      <point x="520" y="111" type="line"/>
      <point x="536" y="237" type="line"/>
      <point x="184" y="386" type="line"/>
      <point x="575" y="535" type="line"/>
      <point x="593" y="669" type="line"/>
    </contour>
  </outline>
</glyph>
<glyph name="equal" format="1">
  <advance width="600"/>
  <unicode hex="003D"/>
  <outline>
    <contour>
      <point x="51" y="437" type="line"/>
      <point x="563" y="437" type="line"/>
      <point x="579" y="555" type="line"/>
      <point x="67" y="555" type="line"/>
    </contour>
    <contour>
      <point x="23" y="225" type="line"/>
      <point x="535" y="225" type="line"/>
      <point x="551" y="343" type="line"/>
      <point x="39" y="343" type="line"/>
    </contour>
  </outline>
</glyph>
<glyph name="greater" format="1">
  <advance width="600"/>
  <unicode hex="003E"/>
  <outline>
    <contour>
      <point x="548" y="326" type="line"/>
      <point x="565" y="454" type="line"/>
      <point x="81" y="669" type="line"/>
      <point x="65" y="543" type="line"/>
      <point x="417" y="394" type="line"/>
      <point x="26" y="245" type="line"/>
      <point x="8" y="111" type="line"/>
    </contour>
  </outline>
</glyph>
<glyph name="question" format="1">
  <advance width="484"/>
  <unicode hex="003F"/>
  <outline>
    <contour>
      <point x="290" y="677" type="curve" smooth="yes"/>
      <point x="344" y="677"/>
      <point x="359" y="646"/>
      <point x="359" y="595" type="curve" smooth="yes"/>
      <point x="359" y="493"/>
      <point x="173" y="392"/>
      <point x="173" y="216" type="curve"/>
      <point x="263" y="216" type="line"/>
      <point x="284" y="381"/>
      <point x="493" y="427"/>
      <point x="493" y="609" type="curve" smooth="yes"/>
      <point x="493" y="729"/>
      <point x="429" y="793"/>
      <point x="288" y="793" type="curve" smooth="yes"/>
      <point x="124" y="793"/>
      <point x="65" y="692"/>
      <point x="43" y="528" type="curve" smooth="yes"/>
      <point x="41" y="513" type="line"/>
      <point x="172" y="513" type="line"/>
      <point x="186" y="622"/>
      <point x="218" y="677"/>
    </contour>
    <contour>
      <point x="280" y="141" type="line"/>
      <point x="138" y="141" type="line"/>
      <point x="119" y="0" type="line"/>
      <point x="261" y="0" type="line"/>
    </contour>
  </outline>
</glyph>
<glyph name="at" format="1">
  <advance width="981"/>
  <unicode hex="0040"/>
  <outline>
    <contour>
      <point x="440" y="-124" type="line" smooth="yes"/>
      <point x="220" y="-124"/>
      <point x="74" y="11"/>
      <point x="108" y="273" type="curve" smooth="yes"/>
      <point x="113" y="311" type="line" smooth="yes"/>
      <point x="147" y="569"/>
      <point x="318" y="704"/>
      <point x="544" y="704" type="curve" smooth="yes"/>
      <point x="554" y="704" type="line" smooth="yes"/>
      <point x="729" y="704"/>
      <point x="895" y="633"/>
      <point x="864" y="395" type="curve" smooth="yes"/>
      <point x="859" y="357" type="line" smooth="yes"/>
      <point x="837" y="187"/>
      <point x="765" y="147"/>
      <point x="659" y="147" type="curve"/>
      <point x="691" y="390" type="line"/>
      <point x="717" y="530" type="line"/>
      <point x="615" y="530" type="line"/>
      <point x="596" y="462" type="line"/>
      <point x="575" y="506"/>
      <point x="535" y="543"/>
      <point x="463" y="543" type="curve" smooth="yes"/>
      <point x="331" y="543"/>
      <point x="261" y="438"/>
      <point x="243" y="307" type="curve" smooth="yes"/>
      <point x="240" y="285" type="line" smooth="yes"/>
      <point x="222" y="154"/>
      <point x="269" y="47"/>
      <point x="405" y="47" type="curve" smooth="yes"/>
      <point x="468" y="47"/>
      <point x="527" y="83"/>
      <point x="551" y="123" type="curve"/>
      <point x="553" y="60" type="line"/>
      <point x="634" y="60" type="line" smooth="yes"/>
      <point x="789" y="60"/>
      <point x="920" y="117"/>
      <point x="952" y="357" type="curve" smooth="yes"/>
      <point x="957" y="395" type="line" smooth="yes"/>
      <point x="994" y="673"/>
      <point x="802" y="793"/>
      <point x="553" y="793" type="curve" smooth="yes"/>
      <point x="284" y="793"/>
      <point x="61" y="620"/>
      <point x="20" y="311" type="curve" smooth="yes"/>
      <point x="15" y="273" type="line" smooth="yes"/>
      <point x="-26" y="-36"/>
      <point x="170" y="-213"/>
      <point x="441" y="-213" type="curve" smooth="yes"/>
      <point x="558" y="-213"/>
      <point x="697" y="-188"/>
      <point x="835" y="-86" type="curve"/>
      <point x="790" y="-14" type="line"/>
      <point x="705" y="-80"/>
      <point x="571" y="-124"/>
      <point x="450" y="-124" type="curve" smooth="yes"/>
    </contour>
    <contour>
      <point x="552" y="208" type="line"/>
      <point x="534" y="184"/>
      <point x="496" y="150"/>
      <point x="445" y="150" type="curve" smooth="yes"/>
      <point x="375" y="150"/>
      <point x="350" y="208"/>
      <point x="361" y="286" type="curve" smooth="yes"/>
      <point x="364" y="308" type="line" smooth="yes"/>
      <point x="375" y="386"/>
      <point x="407" y="440"/>
      <point x="479" y="440" type="curve" smooth="yes"/>
      <point x="530" y="440"/>
      <point x="563" y="406"/>
      <point x="575" y="382" type="curve"/>
    </contour>
  </outline>
</glyph>
<glyph name="D" format="1">
  <advance width="655"/>
  <unicode hex="0044"/>
  <outline>
    <contour>
      <point x="615" y="410" type="line" smooth="yes"/>
      <point x="651" y="680"/>
      <point x="555" y="780"/>
      <point x="333" y="780" type="curve" smooth="yes"/>
      <point x="114" y="780" type="line"/>
      <point x="12" y="0" type="line"/>
      <point x="250" y="0" type="line" smooth="yes"/>
      <point x="469" y="0"/>
      <point x="575" y="103"/>
      <point x="610" y="372" type="curve" smooth="yes"/>
    </contour>
    <contour>
      <point x="161" y="117" type="line"/>
      <point x="233" y="663" type="line"/>
      <point x="328" y="663" type="line" smooth="yes"/>
      <point x="460" y="663"/>
      <point x="502" y="586"/>
      <point x="479" y="410" type="curve" smooth="yes"/>
      <point x="474" y="372" type="line" smooth="yes"/>
      <point x="450" y="187"/>
      <point x="389" y="117"/>
      <point x="250" y="117" type="curve" smooth="yes"/>
    </contour>
  </outline>
</glyph>
<glyph name="E" format="1">
  <advance width="565"/>
  <unicode hex="0045"/>
  <outline>
    <contour>
      <point x="114" y="780" type="line"/>
      <point x="12" y="0" type="line"/>
      <point x="476" y="0" type="line"/>
      <point x="491" y="117" type="line"/>
      <point x="161" y="117" type="line"/>
      <point x="190" y="340" type="line"/>
      <point x="470" y="340" type="line"/>
      <point x="485" y="456" type="line"/>
      <point x="206" y="456" type="line"/>
      <point x="233" y="663" type="line"/>
      <point x="563" y="663" type="line"/>
      <point x="578" y="780" type="line"/>
    </contour>
  </outline>
</glyph>
<glyph name="H" format="1">
  <advance width="655"/>
  <unicode hex="0048"/>
  <outline>
    <contour>
      <point x="513" y="780" type="line"/>
      <point x="471" y="456" type="line"/>
      <point x="206" y="456" type="line"/>
      <point x="248" y="780" type="line"/>
      <point x="114" y="780" type="line"/>
      <point x="12" y="0" type="line"/>
      <point x="146" y="0" type="line"/>
      <point x="190" y="340" type="line"/>
      <point x="455" y="340" type="line"/>
      <point x="411" y="0" type="line"/>
      <point x="545" y="0" type="line"/>
      <point x="647" y="780" type="line"/>
    </contour>
  </outline>
</glyph>
<glyph name="I" format="1">
  <advance width="266"/>
  <unicode hex="0049"/>
  <outline>
    <contour>
      <point x="253" y="780" type="line"/>
      <point x="119" y="780" type="line"/>
      <point x="17" y="0" type="line"/>
      <point x="151" y="0" type="line"/>
    </contour>
  </outline>
</glyph>
<glyph name="K" format="1">
  <advance width="606"/>
  <unicode hex="004B"/>
  <outline>
    <contour>
      <point x="248" y="780" type="line"/>
      <point x="114" y="780" type="line"/>
      <point x="12" y="0" type="line"/>
      <point x="146" y="0" type="line"/>
      <point x="176" y="230" type="line"/>
      <point x="274" y="348" type="line"/>
      <point x="387" y="0" type="line"/>
      <point x="532" y="0" type="line"/>
      <point x="370" y="463" type="line"/>
      <point x="634" y="780" type="line"/>
      <point x="475" y="780" type="line"/>
      <point x="203" y="438" type="line"/>
    </contour>
  </outline>
</glyph>
<glyph name="L" format="1">
  <advance width="511"/>
  <unicode hex="004C"/>
  <outline>
    <contour>
      <point x="447" y="0" type="line"/>
      <point x="462" y="117" type="line"/>
      <point x="161" y="117" type="line"/>
      <point x="248" y="780" type="line"/>
      <point x="114" y="780" type="line"/>
      <point x="12" y="0" type="line"/>
    </contour>
  </outline>
</glyph>
<glyph name="M" format="1">
  <advance width="849"/>
  <unicode hex="004D"/>
  <outline>
    <contour>
      <point x="678" y="547" type="line"/>
      <point x="652" y="383" type="line"/>
      <point x="602" y="0" type="line"/>
      <point x="739" y="0" type="line"/>
      <point x="841" y="780" type="line"/>
      <point x="642" y="780" type="line"/>
      <point x="402" y="222" type="line"/>
      <point x="309" y="780" type="line"/>
      <point x="114" y="780" type="line"/>
      <point x="12" y="0" type="line"/>
      <point x="149" y="0" type="line"/>
      <point x="199" y="383" type="line"/>
      <point x="217" y="547" type="line"/>
      <point x="311" y="0" type="line"/>
      <point x="439" y="0" type="line"/>
    </contour>
  </outline>
</glyph>
<glyph name="N" format="1">
  <advance width="675"/>
  <unicode hex="004E"/>
  <outline>
    <contour>
      <point x="114" y="780" type="line"/>
      <point x="12" y="0" type="line"/>
      <point x="143" y="0" type="line"/>
      <point x="191" y="373" type="line"/>
      <point x="208" y="538" type="line"/>
      <point x="426" y="0" type="line"/>
      <point x="565" y="0" type="line"/>
      <point x="667" y="780" type="line"/>
      <point x="536" y="780" type="line"/>
      <point x="488" y="407" type="line"/>
      <point x="471" y="242" type="line"/>
      <point x="253" y="780" type="line"/>
    </contour>
  </outline>
</glyph>
<glyph name="O" format="1">
  <advance width="665"/>
  <unicode hex="004F"/>
  <outline>
    <contour>
      <point x="625" y="410" type="line" smooth="yes"/>
      <point x="661" y="683"/>
      <point x="584" y="793"/>
      <point x="377" y="793" type="curve" smooth="yes"/>
      <point x="191" y="793"/>
      <point x="84" y="678"/>
      <point x="48" y="408" type="curve" smooth="yes"/>
      <point x="43" y="370" type="line" smooth="yes"/>
      <point x="7" y="97"/>
      <point x="84" y="-13"/>
      <point x="291" y="-13" type="curve" smooth="yes"/>
      <point x="477" y="-13"/>
      <point x="584" y="102"/>
      <point x="620" y="372" type="curve" smooth="yes"/>
    </contour>
    <contour>
      <point x="484" y="372" type="line" smooth="yes"/>
      <point x="461" y="195"/>
      <point x="410" y="104"/>
      <point x="300" y="104" type="curve" smooth="yes"/>
      <point x="290" y="104" type="line" smooth="yes"/>
      <point x="181" y="104"/>
      <point x="155" y="190"/>
      <point x="179" y="370" type="curve" smooth="yes"/>
      <point x="184" y="408" type="line" smooth="yes"/>
      <point x="207" y="585"/>
      <point x="258" y="676"/>
      <point x="368" y="676" type="curve" smooth="yes"/>
      <point x="378" y="676" type="line" smooth="yes"/>
      <point x="487" y="676"/>
      <point x="513" y="590"/>
      <point x="489" y="410" type="curve" smooth="yes"/>
    </contour>
  </outline>
</glyph>
<glyph name="Q" format="1">
  <advance width="665"/>
  <unicode hex="0051"/>
  <outline>
    <contour>
      <point x="448" y="-100" type="line"/>
      <point x="419" y="10" type="line"/>
      <point x="527" y="56"/>
      <point x="593" y="171"/>
      <point x="620" y="372" type="curve" smooth="yes"/>
      <point x="625" y="410" type="line" smooth="yes"/>
      <point x="661" y="683"/>
      <point x="584" y="793"/>
      <point x="377" y="793" type="curve" smooth="yes"/>
      <point x="191" y="793"/>
      <point x="84" y="678"/>
      <point x="48" y="408" type="curve" smooth="yes"/>
      <point x="43" y="370" type="line" smooth="yes"/>
      <point x="7" y="97"/>
      <point x="84" y="-13"/>
      <point x="291" y="-13" type="curve" smooth="yes"/>
      <point x="300" y="-13"/>
      <point x="310" y="-12"/>
      <point x="319" y="-12" type="curve"/>
      <point x="341" y="-100" type="line"/>
    </contour>
    <contour>
      <point x="484" y="372" type="line" smooth="yes"/>
      <point x="468" y="251"/>
      <point x="439" y="170"/>
      <point x="388" y="131" type="curve"/>
      <point x="357" y="251" type="line"/>
      <point x="254" y="251" type="line"/>
      <point x="290" y="104" type="line"/>
      <point x="181" y="104"/>
      <point x="155" y="190"/>
      <point x="179" y="370" type="curve" smooth="yes"/>
      <point x="184" y="408" type="line" smooth="yes"/>
      <point x="207" y="585"/>
      <point x="258" y="676"/>
      <point x="368" y="676" type="curve" smooth="yes"/>
      <point x="378" y="676" type="line" smooth="yes"/>
      <point x="487" y="676"/>
      <point x="513" y="590"/>
      <point x="489" y="410" type="curve" smooth="yes"/>
    </contour>
  </outline>
</glyph>
<glyph name="R" format="1">
  <advance width="611"/>
  <unicode hex="0052"/>
  <outline>
    <contour>
      <point x="184" y="291" type="line"/>
      <point x="299" y="291" type="line"/>
      <point x="372" y="0" type="line"/>
      <point x="517" y="0" type="line"/>
      <point x="432" y="312" type="line"/>
      <point x="506" y="340"/>
      <point x="569" y="401"/>
      <point x="586" y="525" type="curve" smooth="yes"/>
      <point x="589" y="547" type="line" smooth="yes"/>
      <point x="614" y="730"/>
      <point x="473" y="780"/>
      <point x="350" y="780" type="curve" smooth="yes"/>
      <point x="114" y="780" type="line"/>
      <point x="12" y="0" type="line"/>
      <point x="146" y="0" type="line"/>
    </contour>
    <contour>
      <point x="199" y="408" type="line"/>
      <point x="233" y="663" type="line"/>
      <point x="347" y="663" type="line" smooth="yes"/>
      <point x="410" y="663"/>
      <point x="465" y="642"/>
      <point x="452" y="540" type="curve" smooth="yes"/>
      <point x="451" y="532" type="line" smooth="yes"/>
      <point x="439" y="437"/>
      <point x="391" y="408"/>
      <point x="316" y="408" type="curve" smooth="yes"/>
    </contour>
  </outline>
</glyph>
<glyph name="T" format="1">
  <advance width="544"/>
  <unicode hex="0054"/>
  <outline>
    <contour>
      <point x="377" y="663" type="line"/>
      <point x="563" y="663" type="line"/>
      <point x="578" y="780" type="line"/>
      <point x="72" y="780" type="line"/>
      <point x="57" y="663" type="line"/>
      <point x="243" y="663" type="line"/>
      <point x="156" y="0" type="line"/>
      <point x="290" y="0" type="line"/>
    </contour>
  </outline>
</glyph>
<glyph name="V" format="1">
  <advance width="631"/>
  <unicode hex="0056"/>
  <outline>
    <contour>
      <point x="359" y="-4" type="line"/>
      <point x="666" y="780" type="line"/>
      <point x="519" y="780" type="line"/>
      <point x="283" y="149" type="line"/>
      <point x="212" y="780" type="line"/>
      <point x="71" y="780" type="line"/>
      <point x="173" y="-4" type="line"/>
    </contour>
  </outline>
</glyph>
<glyph name="W" format="1">
  <advance width="924"/>
  <unicode hex="0057"/>
  <outline>
    <contour>
      <point x="541" y="-4" type="line"/>
      <point x="714" y="-4" type="line"/>
      <point x="951" y="780" type="line"/>
      <point x="813" y="780" type="line"/>
      <point x="644" y="176" type="line"/>
      <point x="601" y="780" type="line"/>
      <point x="429" y="780" type="line"/>
      <point x="227" y="176" type="line"/>
      <point x="218" y="780" type="line"/>
      <point x="79" y="780" type="line"/>
      <point x="110" y="-4" type="line"/>
      <point x="285" y="-4" type="line"/>
      <point x="496" y="628" type="line"/>
    </contour>
  </outline>
</glyph>
<glyph name="X" format="1">
  <advance width="638"/>
  <unicode hex="0058"/>
  <outline>
    <contour>
      <point x="-27" y="0" type="line"/>
      <point x="134" y="0" type="line"/>
      <point x="304" y="289" type="line"/>
      <point x="414" y="0" type="line"/>
      <point x="566" y="0" type="line"/>
      <point x="411" y="395" type="line"/>
      <point x="668" y="780" type="line"/>
      <point x="507" y="780" type="line"/>
      <point x="335" y="508" type="line"/>
      <point x="227" y="780" type="line"/>
      <point x="75" y="780" type="line"/>
      <point x="228" y="402" type="line"/>
    </contour>
  </outline>
</glyph>
<glyph name="Y" format="1">
  <advance width="610"/>
  <unicode hex="0059"/>
  <outline>
    <contour>
      <point x="354" y="238" type="line"/>
      <point x="651" y="780" type="line"/>
      <point x="502" y="780" type="line"/>
      <point x="305" y="403" type="line"/>
      <point x="208" y="780" type="line"/>
      <point x="65" y="780" type="line"/>
      <point x="220" y="238" type="line"/>
      <point x="189" y="0" type="line"/>
      <point x="323" y="0" type="line"/>
    </contour>
  </outline>
</glyph>
<glyph name="Z" format="1">
  <advance width="587"/>
  <unicode hex="005A"/>
  <outline>
    <contour>
      <point x="2" y="92" type="line"/>
      <point x="-10" y="0" type="line"/>
      <point x="497" y="0" type="line"/>
      <point x="512" y="117" type="line"/>
      <point x="302" y="117" type="line"/>
      <point x="164" y="114" type="line"/>
      <point x="577" y="688" type="line"/>
      <point x="589" y="780" type="line"/>
      <point x="102" y="780" type="line"/>
      <point x="87" y="663" type="line"/>
      <point x="277" y="663" type="line"/>
      <point x="415" y="666" type="line"/>
    </contour>
  </outline>
</glyph>
<glyph name="bracketleft" format="1">
  <advance width="350"/>
  <unicode hex="005B"/>
  <outline>
    <contour>
      <point x="122" y="840" type="line"/>
      <point x="-4" y="-120" type="line"/>
      <point x="250" y="-120" type="line"/>
      <point x="265" y="-5" type="line"/>
      <point x="141" y="-5" type="line"/>
      <point x="237" y="725" type="line"/>
      <point x="361" y="725" type="line"/>
      <point x="376" y="840" type="line"/>
    </contour>
  </outline>
</glyph>
<glyph name="backslash" format="1">
  <advance width="386"/>
  <unicode hex="005C"/>
  <outline>
    <contour>
      <point x="180" y="-120" type="line"/>
      <point x="308" y="-120" type="line"/>
      <point x="204" y="840" type="line"/>
      <point x="76" y="840" type="line"/>
    </contour>
  </outline>
</glyph>
<glyph name="bracketright" format="1">
  <advance width="350"/>
  <unicode hex="005D"/>
  <outline>
    <contour>
      <point x="225" y="-120" type="line"/>
      <point x="351" y="840" type="line"/>
      <point x="97" y="840" type="line"/>
      <point x="82" y="725" type="line"/>
      <point x="206" y="725" type="line"/>
      <point x="110" y="-5" type="line"/>
      <point x="-14" y="-5" type="line"/>
      <point x="-29" y="-120" type="line"/>
    </contour>
  </outline>
</glyph>
<glyph name="asciicircum" format="1">
  <advance width="600"/>
  <unicode hex="005E"/>
  <outline>
    <contour>
      <point x="417" y="780" type="line"/>
      <point x="289" y="780" type="line"/>
      <point x="7" y="267" type="line"/>
      <point x="140" y="267" type="line"/>
      <point x="337" y="638" type="line"/>
      <point x="438" y="267" type="line"/>
      <point x="565" y="267" type="line"/>
    </contour>
  </outline>
</glyph>
<glyph name="underscore" format="1">
  <advance width="320"/>
  <unicode hex="005F"/>
  <outline>
    <contour>
      <point x="-28" y="-169" type="line"/>
      <point x="204" y="-169" type="line"/>
      <point x="219" y="-55" type="line"/>
      <point x="-13" y="-55" type="line"/>
    </contour>
  </outline>
</glyph>
<glyph name="c" format="1">
  <advance width="525"/>
  <unicode hex="0063"/>
  <outline>
    <contour>
      <point x="153" y="278" type="line" smooth="yes"/>
      <point x="167" y="380"/>
      <point x="210" y="430"/>
      <point x="275" y="430" type="curve" smooth="yes"/>
      <point x="343" y="430"/>
      <point x="367" y="387"/>
      <point x="361" y="328" type="curve"/>
      <point x="484" y="328" type="line"/>
      <point x="487" y="350" type="line" smooth="yes"/>
      <point x="502" y="460"/>
      <point x="430" y="543"/>
      <point x="278" y="543" type="curve" smooth="yes"/>
      <point x="115" y="543"/>
      <point x="45" y="428"/>
      <point x="24" y="277" type="curve" smooth="yes"/>
      <point x="21" y="255" type="line" smooth="yes"/>
      <point x="1" y="105"/>
      <point x="72" y="-13"/>
      <point x="233" y="-13" type="curve" smooth="yes"/>
      <point x="383" y="-13"/>
      <point x="453" y="76"/>
      <point x="465" y="184" type="curve" smooth="yes"/>
      <point x="466" y="193" type="line"/>
      <point x="343" y="193" type="line"/>
      <point x="336" y="139"/>
      <point x="302" y="100"/>
      <point x="236" y="100" type="curve" smooth="yes"/>
      <point x="166" y="100"/>
      <point x="137" y="161"/>
      <point x="150" y="256" type="curve" smooth="yes"/>
    </contour>
  </outline>
</glyph>
<glyph name="d" format="1">
  <advance width="569"/>
  <unicode hex="0064"/>
  <outline>
    <contour>
      <point x="195" y="-13" type="curve" smooth="yes"/>
      <point x="262" y="-13"/>
      <point x="322" y="21"/>
      <point x="356" y="69" type="curve"/>
      <point x="356" y="0" type="line"/>
      <point x="471" y="0" type="line"/>
      <point x="481" y="150" type="line"/>
      <point x="567" y="800" type="line"/>
      <point x="437" y="800" type="line"/>
      <point x="395" y="478" type="line"/>
      <point x="375" y="506"/>
      <point x="335" y="543"/>
      <point x="255" y="543" type="curve" smooth="yes"/>
      <point x="116" y="543"/>
      <point x="49" y="430"/>
      <point x="28" y="277" type="curve" smooth="yes"/>
      <point x="25" y="255" type="line" smooth="yes"/>
      <point x="4" y="99"/>
      <point x="61" y="-13"/>
    </contour>
    <contour>
      <point x="285" y="430" type="curve" smooth="yes"/>
      <point x="339" y="430"/>
      <point x="368" y="393"/>
      <point x="380" y="367" type="curve"/>
      <point x="353" y="159" type="line"/>
      <point x="334" y="135"/>
      <point x="298" y="100"/>
      <point x="245" y="100" type="curve" smooth="yes"/>
      <point x="171" y="100"/>
      <point x="141" y="162"/>
      <point x="154" y="256" type="curve" smooth="yes"/>
      <point x="157" y="278" type="line" smooth="yes"/>
      <point x="170" y="372"/>
      <point x="212" y="430"/>
    </contour>
  </outline>
</glyph>
<glyph name="e" format="1">
  <advance width="553"/>
  <unicode hex="0065"/>
  <outline>
    <contour>
      <point x="495" y="217" type="line"/>
      <point x="502" y="267" type="line" smooth="yes"/>
      <point x="524" y="428"/>
      <point x="455" y="543"/>
      <point x="286" y="543" type="curve" smooth="yes"/>
      <point x="124" y="543"/>
      <point x="44" y="425"/>
      <point x="24" y="277" type="curve" smooth="yes"/>
      <point x="21" y="255" type="line" smooth="yes"/>
      <point x="1" y="106"/>
      <point x="69" y="-13"/>
      <point x="250" y="-13" type="curve" smooth="yes"/>
      <point x="398" y="-13"/>
      <point x="477" y="64"/>
      <point x="488" y="161" type="curve" smooth="yes"/>
      <point x="489" y="170" type="line"/>
      <point x="366" y="170" type="line"/>
      <point x="361" y="130"/>
      <point x="327" y="88"/>
      <point x="253" y="88" type="curve" smooth="yes"/>
      <point x="178" y="88"/>
      <point x="137" y="131"/>
      <point x="144" y="217" type="curve"/>
    </contour>
    <contour>
      <point x="281" y="442" type="curve" smooth="yes"/>
      <point x="353" y="442"/>
      <point x="387" y="392"/>
      <point x="378" y="313" type="curve"/>
      <point x="156" y="313" type="line"/>
      <point x="170" y="395"/>
      <point x="214" y="442"/>
    </contour>
  </outline>
</glyph>
<glyph name="f" format="1">
  <advance width="401"/>
  <unicode hex="0066"/>
  <outline>
    <contour>
      <point x="266" y="621" type="line" smooth="yes"/>
      <point x="275" y="686"/>
      <point x="308" y="700"/>
      <point x="354" y="700" type="curve" smooth="yes"/>
      <point x="378" y="700"/>
      <point x="405" y="695"/>
      <point x="412" y="692" type="curve"/>
      <point x="426" y="800" type="line"/>
      <point x="418" y="804"/>
      <point x="384" y="813"/>
      <point x="346" y="813" type="curve" smooth="yes"/>
      <point x="235" y="813"/>
      <point x="155" y="771"/>
      <point x="138" y="638" type="curve" smooth="yes"/>
      <point x="124" y="530" type="line"/>
      <point x="43" y="530" type="line"/>
      <point x="28" y="416" type="line"/>
      <point x="109" y="416" type="line"/>
      <point x="55" y="0" type="line"/>
      <point x="185" y="0" type="line"/>
      <point x="239" y="416" type="line"/>
      <point x="366" y="416" type="line"/>
      <point x="381" y="530" type="line"/>
      <point x="254" y="530" type="line"/>
    </contour>
  </outline>
</glyph>
<glyph name="h" format="1">
  <advance width="563"/>
  <unicode hex="0068"/>
  <outline>
    <contour>
      <point x="9" y="0" type="line"/>
      <point x="139" y="0" type="line"/>
      <point x="187" y="367" type="line"/>
      <point x="205" y="391"/>
      <point x="239" y="430"/>
      <point x="300" y="430" type="curve" smooth="yes"/>
      <point x="359" y="430"/>
      <point x="384" y="395"/>
      <point x="377" y="342" type="curve" smooth="yes"/>
      <point x="332" y="0" type="line"/>
      <point x="462" y="0" type="line"/>
      <point x="509" y="359" type="line" smooth="yes"/>
      <point x="523" y="465"/>
      <point x="478" y="543"/>
      <point x="358" y="543" type="curve" smooth="yes"/>
      <point x="292" y="543"/>
      <point x="238" y="519"/>
      <point x="202" y="482" type="curve"/>
      <point x="244" y="800" type="line"/>
      <point x="114" y="800" type="line"/>
    </contour>
  </outline>
</glyph>
<glyph name="j" format="1">
  <advance width="252"/>
  <unicode hex="006A"/>
  <outline>
    <contour>
      <point x="8" y="-21" type="line" smooth="yes"/>
      <point x="-1" y="-86"/>
      <point x="-34" y="-100"/>
      <point x="-80" y="-100" type="curve" smooth="yes"/>
      <point x="-104" y="-100"/>
      <point x="-131" y="-95"/>
      <point x="-138" y="-92" type="curve"/>
      <point x="-152" y="-200" type="line"/>
      <point x="-144" y="-204"/>
      <point x="-110" y="-213"/>
      <point x="-72" y="-213" type="curve" smooth="yes"/>
      <point x="39" y="-213"/>
      <point x="119" y="-171"/>
      <point x="136" y="-38" type="curve" smooth="yes"/>
      <point x="210" y="530" type="line"/>
      <point x="80" y="530" type="line"/>
    </contour>
    <contour>
      <point x="247" y="763" type="line"/>
      <point x="105" y="763" type="line"/>
      <point x="86" y="622" type="line"/>
      <point x="228" y="622" type="line"/>
    </contour>
  </outline>
</glyph>
<glyph name="k" format="1">
  <advance width="543"/>
  <unicode hex="006B"/>
  <outline>
    <contour>
      <point x="5" y="0" type="line"/>
      <point x="135" y="0" type="line"/>
      <point x="155" y="156" type="line"/>
      <point x="235" y="233" type="line"/>
      <point x="325" y="0" type="line"/>
      <point x="473" y="0" type="line"/>
      <point x="337" y="332" type="line"/>
      <point x="542" y="530" type="line"/>
      <point x="380" y="530" type="line"/>
      <point x="178" y="330" type="line"/>
      <point x="240" y="800" type="line"/>
      <point x="110" y="800" type="line"/>
    </contour>
  </outline>
</glyph>
<glyph name="l" format="1">
  <advance width="250"/>
  <unicode hex="006C"/>
  <outline>
    <contour>
      <point x="11" y="0" type="line"/>
      <point x="141" y="0" type="line"/>
      <point x="246" y="800" type="line"/>
      <point x="116" y="800" type="line"/>
    </contour>
  </outline>
</glyph>
<glyph name="q" format="1">
  <advance width="568"/>
  <unicode hex="0071"/>
  <outline>
    <contour>
      <point x="302" y="-200" type="line"/>
      <point x="432" y="-200" type="line"/>
      <point x="508" y="380" type="line"/>
      <point x="536" y="530" type="line"/>
      <point x="421" y="530" type="line"/>
      <point x="402" y="461" type="line"/>
      <point x="378" y="506"/>
      <point x="332" y="543"/>
      <point x="252" y="543" type="curve" smooth="yes"/>
      <point x="113" y="543"/>
      <point x="46" y="430"/>
      <point x="25" y="277" type="curve" smooth="yes"/>
      <point x="22" y="255" type="line" smooth="yes"/>
      <point x="1" y="99"/>
      <point x="58" y="-13"/>
      <point x="192" y="-13" type="curve" smooth="yes"/>
      <point x="259" y="-13"/>
      <point x="308" y="19"/>
      <point x="335" y="47" type="curve"/>
    </contour>
    <contour>
      <point x="350" y="159" type="line"/>
      <point x="331" y="135"/>
      <point x="295" y="100"/>
      <point x="242" y="100" type="curve" smooth="yes"/>
      <point x="168" y="100"/>
      <point x="138" y="162"/>
      <point x="151" y="256" type="curve" smooth="yes"/>
      <point x="154" y="278" type="line" smooth="yes"/>
      <point x="167" y="372"/>
      <point x="209" y="430"/>
      <point x="282" y="430" type="curve" smooth="yes"/>
      <point x="336" y="430"/>
      <point x="365" y="393"/>
      <point x="377" y="367" type="curve"/>
    </contour>
  </outline>
</glyph>
<glyph name="r" format="1">
  <advance width="368"/>
  <unicode hex="0072"/>
  <outline>
    <contour>
      <point x="340" y="543" type="curve" smooth="yes"/>
      <point x="275" y="543"/>
      <point x="215" y="510"/>
      <point x="184" y="463" type="curve"/>
      <point x="184" y="530" type="line"/>
      <point x="69" y="530" type="line"/>
      <point x="59" y="380" type="line"/>
      <point x="9" y="0" type="line"/>
      <point x="139" y="0" type="line"/>
      <point x="185" y="354" type="line"/>
      <point x="206" y="382"/>
      <point x="253" y="410"/>
      <point x="315" y="410" type="curve" smooth="yes"/>
      <point x="338" y="410" type="line"/>
      <point x="355" y="542" type="line"/>
      <point x="355" y="542"/>
      <point x="346" y="543"/>
    </contour>
  </outline>
</glyph>
<glyph name="u" format="1">
  <advance width="563"/>
  <unicode hex="0075"/>
  <outline>
    <contour>
      <point x="73" y="530" type="line"/>
      <point x="26" y="171" type="line" smooth="yes"/>
      <point x="12" y="65"/>
      <point x="57" y="-13"/>
      <point x="177" y="-13" type="curve" smooth="yes"/>
      <point x="255" y="-13"/>
      <point x="315" y="20"/>
      <point x="351" y="69" type="curve"/>
      <point x="351" y="0" type="line"/>
      <point x="466" y="0" type="line"/>
      <point x="476" y="150" type="line"/>
      <point x="526" y="530" type="line"/>
      <point x="396" y="530" type="line"/>
      <point x="348" y="163" type="line"/>
      <point x="330" y="139"/>
      <point x="296" y="100"/>
      <point x="235" y="100" type="curve" smooth="yes"/>
      <point x="176" y="100"/>
      <point x="151" y="135"/>
      <point x="158" y="188" type="curve" smooth="yes"/>
      <point x="203" y="530" type="line"/>
    </contour>
  </outline>
</glyph>
<glyph name="v" format="1">
  <advance width="538"/>
  <unicode hex="0076"/>
  <outline>
    <contour>
      <point x="130" y="0" type="line"/>
      <point x="310" y="0" type="line"/>
      <point x="543" y="530" type="line"/>
      <point x="405" y="530" type="line"/>
      <point x="231" y="108" type="line"/>
      <point x="168" y="530" type="line"/>
      <point x="34" y="530" type="line"/>
    </contour>
  </outline>
</glyph>
<glyph name="w" format="1">
  <advance width="750"/>
  <unicode hex="0077"/>
  <outline>
    <contour>
      <point x="378" y="400" type="line"/>
      <point x="415" y="0" type="line"/>
      <point x="580" y="0" type="line"/>
      <point x="748" y="530" type="line"/>
      <point x="620" y="530" type="line"/>
      <point x="513" y="140" type="line"/>
      <point x="474" y="530" type="line"/>
      <point x="316" y="530" type="line"/>
      <point x="175" y="140" type="line"/>
      <point x="169" y="530" type="line"/>
      <point x="43" y="530" type="line"/>
      <point x="72" y="0" type="line"/>
      <point x="237" y="0" type="line"/>
    </contour>
  </outline>
</glyph>
<glyph name="x" format="1">
  <advance width="535"/>
  <unicode hex="0078"/>
  <outline>
    <contour>
      <point x="39" y="530" type="line"/>
      <point x="159" y="275" type="line"/>
      <point x="-30" y="0" type="line"/>
      <point x="118" y="0" type="line"/>
      <point x="242" y="189" type="line"/>
      <point x="320" y="0" type="line"/>
      <point x="467" y="0" type="line"/>
      <point x="347" y="269" type="line"/>
      <point x="536" y="530" type="line"/>
      <point x="385" y="530" type="line"/>
      <point x="265" y="354" type="line"/>
      <point x="189" y="530" type="line"/>
    </contour>
  </outline>
</glyph>
<glyph name="y" format="1">
  <advance width="530"/>
  <unicode hex="0079"/>
  <outline>
    <contour>
      <point x="238" y="162" type="line"/>
      <point x="169" y="530" type="line"/>
      <point x="31" y="530" type="line"/>
      <point x="157" y="20" type="line"/>
      <point x="38" y="-200" type="line"/>
      <point x="192" y="-200" type="line"/>
      <point x="290" y="20" type="line"/>
      <point x="545" y="530" type="line"/>
      <point x="402" y="530" type="line"/>
    </contour>
  </outline>
</glyph>
<glyph name="z" format="1">
  <advance width="489"/>
  <unicode hex="007A"/>
  <outline>
    <contour>
      <point x="-10" y="91" type="line"/>
      <point x="-22" y="0" type="line"/>
      <point x="411" y="0" type="line"/>
      <point x="426" y="114" type="line"/>
      <point x="277" y="114" type="line"/>
      <point x="163" y="111" type="line"/>
      <point x="458" y="439" type="line"/>
      <point x="470" y="530" type="line"/>
      <point x="57" y="530" type="line"/>
      <point x="42" y="416" type="line"/>
      <point x="171" y="416" type="line"/>
      <point x="285" y="419" type="line"/>
    </contour>
  </outline>
</glyph>
<glyph name="braceleft" format="1">
  <advance width="350"/>
  <unicode hex="007B"/>
  <outline>
    <contour>
      <point x="376" y="840" type="line"/>
      <point x="351" y="840" type="line" smooth="yes"/>
      <point x="243" y="840"/>
      <point x="159" y="799"/>
      <point x="142" y="670" type="curve" smooth="yes"/>
      <point x="119" y="498" type="line" smooth="yes"/>
      <point x="111" y="435"/>
      <point x="83" y="418"/>
      <point x="30" y="418" type="curve"/>
      <point x="15" y="302" type="line"/>
      <point x="66" y="302"/>
      <point x="91" y="282"/>
      <point x="83" y="225" type="curve" smooth="yes"/>
      <point x="59" y="46" type="line" smooth="yes"/>
      <point x="43" y="-71"/>
      <point x="120" y="-120"/>
      <point x="225" y="-120" type="curve" smooth="yes"/>
      <point x="250" y="-120" type="line"/>
      <point x="265" y="-5" type="line"/>
      <point x="211" y="-5"/>
      <point x="186" y="13"/>
      <point x="195" y="86" type="curve" smooth="yes"/>
      <point x="216" y="248" type="line" smooth="yes"/>
      <point x="224" y="306"/>
      <point x="207" y="341"/>
      <point x="170" y="360" type="curve"/>
      <point x="218" y="378"/>
      <point x="238" y="412"/>
      <point x="246" y="472" type="curve" smooth="yes"/>
      <point x="267" y="634" type="line" smooth="yes"/>
      <point x="276" y="702"/>
      <point x="307" y="725"/>
      <point x="361" y="725" type="curve"/>
    </contour>
  </outline>
</glyph>
<glyph name="bar" format="1">
  <advance width="243"/>
  <unicode hex="007C"/>
  <outline>
    <contour>
      <point x="-8" y="-120" type="line"/>
      <point x="120" y="-120" type="line"/>
      <point x="246" y="840" type="line"/>
      <point x="118" y="840" type="line"/>
    </contour>
  </outline>
</glyph>
<glyph name="braceright" format="1">
  <advance width="350"/>
  <unicode hex="007D"/>
  <outline>
    <contour>
      <point x="-29" y="-120" type="line"/>
      <point x="-4" y="-120" type="line" smooth="yes"/>
      <point x="104" y="-120"/>
      <point x="188" y="-79"/>
      <point x="205" y="50" type="curve" smooth="yes"/>
      <point x="228" y="222" type="line" smooth="yes"/>
      <point x="236" y="285"/>
      <point x="264" y="302"/>
      <point x="317" y="302" type="curve"/>
      <point x="332" y="418" type="line"/>
      <point x="281" y="418"/>
      <point x="256" y="438"/>
      <point x="264" y="495" type="curve" smooth="yes"/>
      <point x="288" y="674" type="line" smooth="yes"/>
      <point x="304" y="791"/>
      <point x="227" y="840"/>
      <point x="122" y="840" type="curve" smooth="yes"/>
      <point x="97" y="840" type="line"/>
      <point x="82" y="725" type="line"/>
      <point x="136" y="725"/>
      <point x="161" y="707"/>
      <point x="152" y="634" type="curve" smooth="yes"/>
      <point x="131" y="472" type="line" smooth="yes"/>
      <point x="123" y="414"/>
      <point x="140" y="379"/>
      <point x="177" y="360" type="curve"/>
      <point x="129" y="342"/>
      <point x="109" y="308"/>
      <point x="101" y="248" type="curve" smooth="yes"/>
      <point x="80" y="86" type="line" smooth="yes"/>
      <point x="71" y="18"/>
      <point x="40" y="-5"/>
      <point x="-14" y="-5" type="curve"/>
    </contour>
  </outline>
</glyph>
<glyph name="asciitilde" format="1">
  <advance width="600"/>
  <unicode hex="007E"/>
  <outline>
    <contour>
      <point x="183" y="474" type="curve" smooth="yes"/>
      <point x="112" y="474"/>
      <point x="58" y="420"/>
      <point x="32" y="384" type="curve"/>
      <point x="87" y="320" type="line"/>
      <point x="109" y="343"/>
      <point x="143" y="371"/>
      <point x="190" y="371" type="curve" smooth="yes"/>
      <point x="262" y="371"/>
      <point x="306" y="303"/>
      <point x="421" y="303" type="curve" smooth="yes"/>
      <point x="492" y="303"/>
      <point x="546" y="357"/>
      <point x="572" y="393" type="curve"/>
      <point x="517" y="457" type="line"/>
      <point x="495" y="434"/>
      <point x="461" y="406"/>
      <point x="414" y="406" type="curve" smooth="yes"/>
      <point x="342" y="406"/>
      <point x="298" y="474"/>
    </contour>
  </outline>
</glyph>
<glyph name="exclamdown" format="1">
  <advance width="250"/>
  <unicode hex="00A1"/>
  <outline>
    <contour>
      <point x="130" y="-200" type="line"/>
      <point x="162" y="314" type="line"/>
      <point x="72" y="314" type="line"/>
      <point x="-32" y="-200" type="line"/>
    </contour>
    <contour>
      <point x="55" y="389" type="line"/>
      <point x="197" y="389" type="line"/>
      <point x="216" y="530" type="line"/>
      <point x="74" y="530" type="line"/>
    </contour>
  </outline>
</glyph>
<glyph name="cent" format="1">
  <advance width="600"/>
  <unicode hex="00A2"/>
  <outline>
    <contour>
      <point x="515" y="840" type="line"/>
      <point x="413" y="840" type="line"/>
      <point x="371" y="728" type="line"/>
      <point x="361" y="729"/>
      <point x="350" y="730"/>
      <point x="339" y="730" type="curve" smooth="yes"/>
      <point x="176" y="730"/>
      <point x="81" y="637"/>
      <point x="50" y="407" type="curve" smooth="yes"/>
      <point x="47" y="385" type="line" smooth="yes"/>
      <point x="27" y="236"/>
      <point x="56" y="137"/>
      <point x="135" y="88" type="curve"/>
      <point x="80" y="-60" type="line"/>
      <point x="182" y="-60" type="line"/>
      <point x="225" y="56" type="line"/>
      <point x="244" y="53"/>
      <point x="265" y="52"/>
      <point x="287" y="52" type="curve" smooth="yes"/>
      <point x="437" y="52"/>
      <point x="528" y="153"/>
      <point x="542" y="282" type="curve" smooth="yes"/>
      <point x="543" y="291" type="line"/>
      <point x="416" y="291" type="line"/>
      <point x="405" y="193"/>
      <point x="356" y="167"/>
      <point x="290" y="167" type="curve" smooth="yes"/>
      <point x="282" y="167"/>
      <point x="274" y="167"/>
      <point x="266" y="168" type="curve"/>
      <point x="419" y="582" type="line"/>
      <point x="437" y="560"/>
      <point x="445" y="525"/>
      <point x="439" y="470" type="curve"/>
      <point x="566" y="470" type="line"/>
      <point x="569" y="492" type="line" smooth="yes"/>
      <point x="584" y="601"/>
      <point x="542" y="672"/>
      <point x="465" y="706" type="curve"/>
    </contour>
    <contour>
      <point x="182" y="408" type="line" smooth="yes"/>
      <point x="204" y="571"/>
      <point x="265" y="614"/>
      <point x="329" y="615" type="curve"/>
      <point x="186" y="228" type="line"/>
      <point x="173" y="261"/>
      <point x="169" y="312"/>
      <point x="179" y="386" type="curve" smooth="yes"/>
    </contour>
  </outline>
</glyph>
<glyph name="sterling" format="1">
  <advance width="600"/>
  <unicode hex="00A3"/>
  <outline>
    <contour>
      <point x="365" y="677" type="curve" smooth="yes"/>
      <point x="435" y="677"/>
      <point x="454" y="610"/>
      <point x="439" y="500" type="curve"/>
      <point x="570" y="500" type="line"/>
      <point x="574" y="529" type="line" smooth="yes"/>
      <point x="597" y="699"/>
      <point x="534" y="793"/>
      <point x="365" y="793" type="curve" smooth="yes"/>
      <point x="182" y="793"/>
      <point x="122" y="650"/>
      <point x="122" y="504" type="curve" smooth="yes"/>
      <point x="122" y="478"/>
      <point x="124" y="453"/>
      <point x="127" y="429" type="curve"/>
      <point x="54" y="429" type="line"/>
      <point x="39" y="314" type="line"/>
      <point x="147" y="314" type="line"/>
      <point x="160" y="252"/>
      <point x="171" y="189"/>
      <point x="170" y="116" type="curve"/>
      <point x="13" y="116" type="line"/>
      <point x="-2" y="0" type="line"/>
      <point x="504" y="0" type="line"/>
      <point x="519" y="116" type="line"/>
      <point x="285" y="116" type="line"/>
      <point x="290" y="188"/>
      <point x="285" y="254"/>
      <point x="278" y="314" type="curve"/>
      <point x="430" y="314" type="line"/>
      <point x="445" y="429" type="line"/>
      <point x="262" y="429" type="line"/>
      <point x="258" y="461"/>
      <point x="255" y="493"/>
      <point x="255" y="523" type="curve" smooth="yes"/>
      <point x="255" y="613"/>
      <point x="287" y="677"/>
    </contour>
  </outline>
</glyph>
<glyph name="yen" format="1">
  <advance width="600"/>
  <unicode hex="00A5"/>
  <outline>
    <contour>
      <point x="41" y="366" type="line"/>
      <point x="189" y="366" type="line"/>
      <point x="215" y="279" type="line"/>
      <point x="29" y="279" type="line"/>
      <point x="14" y="165" type="line"/>
      <point x="205" y="165" type="line"/>
      <point x="184" y="0" type="line"/>
      <point x="318" y="0" type="line"/>
      <point x="340" y="165" type="line"/>
      <point x="530" y="165" type="line"/>
      <point x="545" y="279" type="line"/>
      <point x="359" y="279" type="line"/>
      <point x="408" y="366" type="line"/>
      <point x="557" y="366" type="line"/>
      <point x="572" y="480" type="line"/>
      <point x="473" y="480" type="line"/>
      <point x="643" y="780" type="line"/>
      <point x="496" y="780" type="line"/>
      <point x="305" y="411" type="line"/>
      <point x="210" y="780" type="line"/>
      <point x="63" y="780" type="line"/>
      <point x="154" y="480" type="line"/>
      <point x="56" y="480" type="line"/>
    </contour>
  </outline>
</glyph>
<glyph name="brokenbar" format="1">
  <advance width="243"/>
  <unicode hex="00A6"/>
  <outline>
    <contour>
      <point x="-8" y="-120" type="line"/>
      <point x="120" y="-120" type="line"/>
      <point x="179" y="333" type="line"/>
      <point x="51" y="333" type="line"/>
    </contour>
    <contour>
      <point x="246" y="840" type="line"/>
      <point x="118" y="840" type="line"/>
      <point x="59" y="387" type="line"/>
      <point x="187" y="387" type="line"/>
    </contour>
  </outline>
</glyph>
<glyph name="section" format="1">
  <advance width="538"/>
  <unicode hex="00A7"/>
  <outline>
    <contour>
      <point x="130" y="515" type="curve"/>
      <point x="77" y="489"/>
      <point x="44" y="451"/>
      <point x="37" y="392" type="curve" smooth="yes"/>
      <point x="36" y="383" type="line" smooth="yes"/>
      <point x="26" y="289"/>
      <point x="75" y="239"/>
      <point x="218" y="223" type="curve" smooth="yes"/>
      <point x="287" y="215"/>
      <point x="313" y="200"/>
      <point x="313" y="155" type="curve" smooth="yes"/>
      <point x="313" y="118"/>
      <point x="279" y="88"/>
      <point x="227" y="88" type="curve" smooth="yes"/>
      <point x="154" y="88"/>
      <point x="134" y="121"/>
      <point x="141" y="173" type="curve"/>
      <point x="14" y="173" type="line"/>
      <point x="13" y="164" type="line" smooth="yes"/>
      <point x="1" y="53"/>
      <point x="52" y="-13"/>
      <point x="219" y="-13" type="curve" smooth="yes"/>
      <point x="330" y="-13"/>
      <point x="428" y="38"/>
      <point x="441" y="151" type="curve" smooth="yes"/>
      <point x="442" y="160" type="line" smooth="yes"/>
      <point x="447" y="203"/>
      <point x="436" y="240"/>
      <point x="411" y="265" type="curve"/>
      <point x="464" y="291"/>
      <point x="497" y="329"/>
      <point x="504" y="388" type="curve" smooth="yes"/>
      <point x="505" y="397" type="line" smooth="yes"/>
      <point x="515" y="491"/>
      <point x="466" y="541"/>
      <point x="323" y="557" type="curve" smooth="yes"/>
      <point x="254" y="565"/>
      <point x="228" y="580"/>
      <point x="228" y="625" type="curve" smooth="yes"/>
      <point x="228" y="662"/>
      <point x="262" y="692"/>
      <point x="314" y="692" type="curve" smooth="yes"/>
      <point x="387" y="692"/>
      <point x="407" y="659"/>
      <point x="400" y="607" type="curve"/>
      <point x="527" y="607" type="line"/>
      <point x="528" y="616" type="line" smooth="yes"/>
      <point x="540" y="727"/>
      <point x="489" y="793"/>
      <point x="322" y="793" type="curve" smooth="yes"/>
      <point x="211" y="793"/>
      <point x="113" y="742"/>
      <point x="100" y="629" type="curve" smooth="yes"/>
      <point x="99" y="620" type="line" smooth="yes"/>
      <point x="94" y="577"/>
      <point x="105" y="540"/>
    </contour>
    <contour>
      <point x="281" y="466" type="line" smooth="yes"/>
      <point x="341" y="466"/>
      <point x="375" y="444"/>
      <point x="375" y="399" type="curve" smooth="yes"/>
      <point x="375" y="351"/>
      <point x="340" y="314"/>
      <point x="269" y="314" type="curve" smooth="yes"/>
      <point x="260" y="314" type="line" smooth="yes"/>
      <point x="200" y="314"/>
      <point x="166" y="336"/>
      <point x="166" y="381" type="curve" smooth="yes"/>
      <point x="166" y="429"/>
      <point x="201" y="466"/>
      <point x="272" y="466" type="curve" smooth="yes"/>
    </contour>
  </outline>
</glyph>
<glyph name="dieresis" format="1">
  <advance width="500"/>
  <unicode hex="00A8"/>
  <outline>
    <contour>
      <point x="272" y="763" type="line"/>
      <point x="130" y="763" type="line"/>
      <point x="111" y="622" type="line"/>
      <point x="253" y="622" type="line"/>
    </contour>
    <contour>
      <point x="472" y="763" type="line"/>
      <point x="330" y="763" type="line"/>
      <point x="311" y="622" type="line"/>
      <point x="453" y="622" type="line"/>
    </contour>
  </outline>
</glyph>
<glyph name="ordfeminine" format="1">
  <advance width="416"/>
  <unicode hex="00AA"/>
  <outline>
    <contour>
      <point x="287" y="387" type="line"/>
      <point x="389" y="387" type="line"/>
      <point x="396" y="499" type="line"/>
      <point x="415" y="642" type="line" smooth="yes"/>
      <point x="428" y="740"/>
      <point x="381" y="793"/>
      <point x="250" y="793" type="curve" smooth="yes"/>
      <point x="131" y="793"/>
      <point x="91" y="729"/>
      <point x="83" y="661" type="curve" smooth="yes"/>
      <point x="82" y="652" type="line"/>
      <point x="190" y="652" type="line"/>
      <point x="194" y="680"/>
      <point x="205" y="706"/>
      <point x="250" y="706" type="curve" smooth="yes"/>
      <point x="292" y="706"/>
      <point x="308" y="686"/>
      <point x="303" y="647" type="curve"/>
      <point x="203" y="632" type="line" smooth="yes"/>
      <point x="120" y="619"/>
      <point x="58" y="590"/>
      <point x="48" y="504" type="curve" smooth="yes"/>
      <point x="47" y="495" type="line" smooth="yes"/>
      <point x="40" y="431"/>
      <point x="72" y="378"/>
      <point x="160" y="378" type="curve" smooth="yes"/>
      <point x="217" y="378"/>
      <point x="256" y="402"/>
      <point x="287" y="433" type="curve"/>
    </contour>
    <contour>
      <point x="361" y="191" type="line"/>
      <point x="374" y="290" type="line"/>
      <point x="31" y="290" type="line"/>
      <point x="18" y="191" type="line"/>
    </contour>
    <contour>
      <point x="200" y="470" type="curve" smooth="yes"/>
      <point x="173" y="470"/>
      <point x="161" y="485"/>
      <point x="163" y="507" type="curve" smooth="yes"/>
      <point x="164" y="516" type="line" smooth="yes"/>
      <point x="167" y="539"/>
      <point x="186" y="559"/>
      <point x="221" y="564" type="curve" smooth="yes"/>
      <point x="293" y="575" type="line"/>
      <point x="284" y="509" type="line"/>
      <point x="270" y="494"/>
      <point x="241" y="470"/>
    </contour>
  </outline>
</glyph>
<glyph name="guillemotleft" format="1">
  <advance width="550"/>
  <unicode hex="00AB"/>
  <outline>
    <contour>
      <point x="286" y="551" type="line"/>
      <point x="53" y="402" type="line"/>
      <point x="37" y="278" type="line"/>
      <point x="230" y="129" type="line"/>
      <point x="245" y="241" type="line"/>
      <point x="135" y="335" type="line"/>
      <point x="270" y="429" type="line"/>
    </contour>
    <contour>
      <point x="524" y="551" type="line"/>
      <point x="291" y="402" type="line"/>
      <point x="275" y="278" type="line"/>
      <point x="468" y="129" type="line"/>
      <point x="483" y="241" type="line"/>
      <point x="373" y="335" type="line"/>
      <point x="508" y="429" type="line"/>
    </contour>
  </outline>
</glyph>
<glyph name="logicalnot" format="1">
  <advance width="600"/>
  <unicode hex="00AC"/>
  <outline>
    <contour>
      <point x="53" y="452" type="line"/>
      <point x="447" y="452" type="line"/>
      <point x="414" y="200" type="line"/>
      <point x="532" y="200" type="line"/>
      <point x="581" y="570" type="line"/>
      <point x="69" y="570" type="line"/>
    </contour>
  </outline>
</glyph>
<glyph name="uni00AD" format="1">
  <advance width="345"/>
  <unicode hex="00AD"/>
  <outline>
    <contour>
      <point x="29" y="293" type="line"/>
      <point x="294" y="293" type="line"/>
      <point x="309" y="407" type="line"/>
      <point x="44" y="407" type="line"/>
    </contour>
  </outline>
</glyph>
<glyph name="macron" format="1">
  <advance width="500"/>
  <unicode hex="00AF"/>
  <outline>
    <contour>
      <point x="145" y="633" type="line"/>
      <point x="423" y="633" type="line"/>
      <point x="438" y="748" type="line"/>
      <point x="160" y="748" type="line"/>
    </contour>
  </outline>
</glyph>
<glyph name="degree" format="1">
  <advance width="400"/>
  <unicode hex="00B0"/>
  <outline>
    <contour>
      <point x="246" y="793" type="curve" smooth="yes"/>
      <point x="160" y="793"/>
      <point x="87" y="735"/>
      <point x="75" y="637" type="curve" smooth="yes"/>
      <point x="74" y="629" type="line" smooth="yes"/>
      <point x="63" y="538"/>
      <point x="120" y="473"/>
      <point x="222" y="473" type="curve" smooth="yes"/>
      <point x="308" y="473"/>
      <point x="381" y="531"/>
      <point x="393" y="629" type="curve" smooth="yes"/>
      <point x="394" y="637" type="line" smooth="yes"/>
      <point x="405" y="728"/>
      <point x="348" y="793"/>
    </contour>
    <contour>
      <point x="247" y="710" type="line" smooth="yes"/>
      <point x="293" y="710"/>
      <point x="317" y="681"/>
      <point x="312" y="637" type="curve" smooth="yes"/>
      <point x="311" y="629" type="line" smooth="yes"/>
      <point x="305" y="581"/>
      <point x="268" y="556"/>
      <point x="227" y="556" type="curve" smooth="yes"/>
      <point x="221" y="556" type="line" smooth="yes"/>
      <point x="175" y="556"/>
      <point x="151" y="585"/>
      <point x="156" y="629" type="curve" smooth="yes"/>
      <point x="157" y="637" type="line" smooth="yes"/>
      <point x="163" y="685"/>
      <point x="200" y="710"/>
      <point x="241" y="710" type="curve" smooth="yes"/>
    </contour>
  </outline>
</glyph>
<glyph name="plusminus" format="1">
  <advance width="600"/>
  <unicode hex="00B1"/>
  <outline>
    <contour>
      <point x="278" y="665" type="line"/>
      <point x="262" y="548" type="line"/>
      <point x="66" y="548" type="line"/>
      <point x="50" y="430" type="line"/>
      <point x="247" y="430" type="line"/>
      <point x="231" y="313" type="line"/>
      <point x="350" y="313" type="line"/>
      <point x="366" y="430" type="line"/>
      <point x="562" y="430" type="line"/>
      <point x="578" y="548" type="line"/>
      <point x="381" y="548" type="line"/>
      <point x="397" y="665" type="line"/>
    </contour>
    <contour>
      <point x="12" y="144" type="line"/>
      <point x="524" y="144" type="line"/>
      <point x="540" y="262" type="line"/>
      <point x="28" y="262" type="line"/>
    </contour>
  </outline>
</glyph>
<glyph name="twosuperior" format="1">
  <advance width="300"/>
  <unicode hex="00B2"/>
  <outline>
    <contour>
      <point x="196" y="473" type="line"/>
      <point x="161" y="472" type="line"/>
      <point x="260" y="568" type="line" smooth="yes"/>
      <point x="294" y="602"/>
      <point x="312" y="624"/>
      <point x="317" y="669" type="curve" smooth="yes"/>
      <point x="318" y="678" type="line" smooth="yes"/>
      <point x="323" y="726"/>
      <point x="296" y="789"/>
      <point x="197" y="789" type="curve" smooth="yes"/>
      <point x="109" y="789"/>
      <point x="65" y="747"/>
      <point x="55" y="661" type="curve" smooth="yes"/>
      <point x="54" y="652" type="line"/>
      <point x="147" y="652" type="line"/>
      <point x="153" y="694"/>
      <point x="168" y="708"/>
      <point x="188" y="708" type="curve" smooth="yes"/>
      <point x="193" y="708" type="line" smooth="yes"/>
      <point x="212" y="708"/>
      <point x="226" y="695"/>
      <point x="223" y="667" type="curve" smooth="yes"/>
      <point x="222" y="658" type="line" smooth="yes"/>
      <point x="220" y="643"/>
      <point x="210" y="627"/>
      <point x="194" y="612" type="curve" smooth="yes"/>
      <point x="28" y="450" type="line"/>
      <point x="20" y="392" type="line"/>
      <point x="280" y="392" type="line"/>
      <point x="291" y="473" type="line"/>
    </contour>
  </outline>
</glyph>
<glyph name="threesuperior" format="1">
  <advance width="300"/>
  <unicode hex="00B3"/>
  <outline>
    <contour>
      <point x="127" y="517" type="curve"/>
      <point x="34" y="517" type="line"/>
      <point x="33" y="508" type="line" smooth="yes"/>
      <point x="24" y="426"/>
      <point x="68" y="385"/>
      <point x="157" y="385" type="curve" smooth="yes"/>
      <point x="255" y="385"/>
      <point x="291" y="447"/>
      <point x="296" y="493" type="curve" smooth="yes"/>
      <point x="297" y="502" type="line" smooth="yes"/>
      <point x="302" y="544"/>
      <point x="288" y="580"/>
      <point x="264" y="591" type="curve"/>
      <point x="290" y="603"/>
      <point x="313" y="629"/>
      <point x="317" y="669" type="curve" smooth="yes"/>
      <point x="318" y="678" type="line" smooth="yes"/>
      <point x="323" y="721"/>
      <point x="300" y="789"/>
      <point x="197" y="789" type="curve" smooth="yes"/>
      <point x="109" y="789"/>
      <point x="65" y="747"/>
      <point x="55" y="661" type="curve" smooth="yes"/>
      <point x="54" y="652" type="line"/>
      <point x="147" y="652" type="line"/>
      <point x="151" y="693"/>
      <point x="167" y="708"/>
      <point x="188" y="708" type="curve" smooth="yes"/>
      <point x="193" y="708" type="line" smooth="yes"/>
      <point x="210" y="708"/>
      <point x="227" y="699"/>
      <point x="224" y="674" type="curve" smooth="yes"/>
      <point x="223" y="665" type="line" smooth="yes"/>
      <point x="220" y="642"/>
      <point x="206" y="631"/>
      <point x="182" y="631" type="curve" smooth="yes"/>
      <point x="132" y="631" type="line"/>
      <point x="121" y="550" type="line"/>
      <point x="172" y="550" type="line" smooth="yes"/>
      <point x="196" y="550"/>
      <point x="208" y="537"/>
      <point x="205" y="513" type="curve" smooth="yes"/>
      <point x="204" y="504" type="line" smooth="yes"/>
      <point x="201" y="478"/>
      <point x="184" y="466"/>
      <point x="164" y="466" type="curve" smooth="yes"/>
      <point x="159" y="466" type="line" smooth="yes"/>
      <point x="140" y="466"/>
      <point x="122" y="477"/>
    </contour>
  </outline>
</glyph>
<glyph name="paragraph" format="1">
  <advance width="538"/>
  <unicode hex="00B6"/>
  <outline>
    <contour>
      <point x="187" y="0" type="line"/>
      <point x="251" y="0" type="line"/>
      <point x="338" y="663" type="line"/>
      <point x="384" y="663" type="line"/>
      <point x="297" y="0" type="line"/>
      <point x="431" y="0" type="line"/>
      <point x="533" y="780" type="line"/>
      <point x="336" y="780" type="line" smooth="yes"/>
      <point x="213" y="780"/>
      <point x="75" y="739"/>
      <point x="49" y="546" type="curve" smooth="yes"/>
      <point x="46" y="524" type="line" smooth="yes"/>
      <point x="25" y="370"/>
      <point x="121" y="310"/>
      <point x="226" y="295" type="curve"/>
    </contour>
    <contour>
      <point x="184" y="539" type="line" smooth="yes"/>
      <point x="193" y="613"/>
      <point x="224" y="646"/>
      <point x="273" y="658" type="curve"/>
      <point x="241" y="413" type="line"/>
      <point x="201" y="424"/>
      <point x="173" y="455"/>
      <point x="183" y="531" type="curve" smooth="yes"/>
    </contour>
  </outline>
</glyph>
<glyph name="periodcentered" format="1">
  <advance width="250"/>
  <unicode hex="00B7"/>
  <outline>
    <contour>
      <point x="202" y="421" type="line"/>
      <point x="60" y="421" type="line"/>
      <point x="41" y="280" type="line"/>
      <point x="183" y="280" type="line"/>
    </contour>
  </outline>
</glyph>
<glyph name="cedilla" format="1">
  <advance width="602"/>
  <unicode hex="00B8"/>
  <outline>
    <contour>
      <point x="75" y="-190" type="line"/>
      <point x="93" y="-203"/>
      <point x="129" y="-214"/>
      <point x="174" y="-214" type="curve" smooth="yes"/>
      <point x="250" y="-214"/>
      <point x="301" y="-179"/>
      <point x="301" y="-120" type="curve" smooth="yes"/>
      <point x="301" y="-69"/>
      <point x="260" y="-49"/>
      <point x="211" y="-45" type="curve"/>
      <point x="234" y="0" type="line"/>
      <point x="168" y="0" type="line"/>
      <point x="129" y="-75" type="line"/>
      <point x="142" y="-101" type="line"/>
      <point x="142" y="-101"/>
      <point x="160" y="-97"/>
      <point x="180" y="-97" type="curve" smooth="yes"/>
      <point x="210" y="-97"/>
      <point x="226" y="-104"/>
      <point x="226" y="-121" type="curve" smooth="yes"/>
      <point x="226" y="-138"/>
      <point x="210" y="-147"/>
      <point x="175" y="-147" type="curve" smooth="yes"/>
      <point x="146" y="-147"/>
      <point x="119" y="-141"/>
      <point x="103" y="-131" type="curve"/>
    </contour>
  </outline>
</glyph>
<glyph name="onesuperior" format="1">
  <advance width="300"/>
  <unicode hex="00B9"/>
  <outline>
    <contour>
      <point x="283" y="392" type="line"/>
      <point x="293" y="473" type="line"/>
      <point x="212" y="473" type="line"/>
      <point x="253" y="782" type="line"/>
      <point x="183" y="782" type="line"/>
      <point x="50" y="699" type="line"/>
      <point x="87" y="632" type="line"/>
      <point x="145" y="668" type="line"/>
      <point x="119" y="473" type="line"/>
      <point x="38" y="473" type="line"/>
      <point x="28" y="392" type="line"/>
    </contour>
  </outline>
</glyph>
<glyph name="ordmasculine" format="1">
  <advance width="435"/>
  <unicode hex="00BA"/>
  <outline>
    <contour>
      <point x="429" y="594" type="line" smooth="yes"/>
      <point x="445" y="708"/>
      <point x="388" y="793"/>
      <point x="255" y="793" type="curve" smooth="yes"/>
      <point x="135" y="793"/>
      <point x="79" y="713"/>
      <point x="63" y="599" type="curve" smooth="yes"/>
      <point x="60" y="577" type="line" smooth="yes"/>
      <point x="44" y="463"/>
      <point x="101" y="378"/>
      <point x="234" y="378" type="curve" smooth="yes"/>
      <point x="354" y="378"/>
      <point x="410" y="458"/>
      <point x="426" y="572" type="curve" smooth="yes"/>
    </contour>
    <contour>
      <point x="177" y="600" type="line" smooth="yes"/>
      <point x="185" y="660"/>
      <point x="206" y="694"/>
      <point x="255" y="694" type="curve" smooth="yes"/>
      <point x="303" y="694"/>
      <point x="323" y="653"/>
      <point x="315" y="593" type="curve" smooth="yes"/>
      <point x="312" y="571" type="line" smooth="yes"/>
      <point x="304" y="511"/>
      <point x="283" y="477"/>
      <point x="234" y="477" type="curve" smooth="yes"/>
      <point x="186" y="477"/>
      <point x="166" y="518"/>
      <point x="174" y="578" type="curve" smooth="yes"/>
    </contour>
    <contour>
      <point x="366" y="191" type="line"/>
      <point x="379" y="290" type="line"/>
      <point x="31" y="290" type="line"/>
      <point x="18" y="191" type="line"/>
    </contour>
  </outline>
</glyph>
<glyph name="guillemotright" format="1">
  <advance width="550"/>
  <unicode hex="00BB"/>
  <outline>
    <contour>
      <point x="255" y="129" type="line"/>
      <point x="488" y="278" type="line"/>
      <point x="504" y="402" type="line"/>
      <point x="311" y="551" type="line"/>
      <point x="296" y="439" type="line"/>
      <point x="406" y="345" type="line"/>
      <point x="271" y="251" type="line"/>
    </contour>
    <contour>
      <point x="17" y="129" type="line"/>
      <point x="250" y="278" type="line"/>
      <point x="266" y="402" type="line"/>
      <point x="73" y="551" type="line"/>
      <point x="58" y="439" type="line"/>
      <point x="168" y="345" type="line"/>
      <point x="33" y="251" type="line"/>
    </contour>
  </outline>
</glyph>
<glyph name="onequarter" format="1">
  <advance width="800"/>
  <unicode hex="00BC"/>
  <outline>
    <contour>
      <point x="283" y="392" type="line"/>
      <point x="293" y="473" type="line"/>
      <point x="212" y="473" type="line"/>
      <point x="253" y="782" type="line"/>
      <point x="183" y="782" type="line"/>
      <point x="50" y="699" type="line"/>
      <point x="87" y="632" type="line"/>
      <point x="145" y="668" type="line"/>
      <point x="119" y="473" type="line"/>
      <point x="38" y="473" type="line"/>
      <point x="28" y="392" type="line"/>
    </contour>
    <contour>
      <point x="113" y="0" type="line"/>
      <point x="791" y="780" type="line"/>
      <point x="691" y="780" type="line"/>
      <point x="13" y="0" type="line"/>
    </contour>
    <contour>
      <point x="702" y="0" type="line"/>
      <point x="712" y="79" type="line"/>
      <point x="748" y="79" type="line"/>
      <point x="759" y="160" type="line"/>
      <point x="723" y="160" type="line"/>
      <point x="753" y="390" type="line"/>
      <point x="665" y="390" type="line"/>
      <point x="482" y="145" type="line"/>
      <point x="473" y="79" type="line"/>
      <point x="619" y="79" type="line"/>
      <point x="609" y="0" type="line"/>
    </contour>
    <contour>
      <point x="641" y="243" type="line"/>
      <point x="638" y="221" type="line"/>
      <point x="630" y="160" type="line"/>
      <point x="599" y="160" type="line"/>
      <point x="578" y="159" type="line"/>
    </contour>
  </outline>
</glyph>
<glyph name="onehalf" format="1">
  <advance width="800"/>
  <unicode hex="00BD"/>
  <outline>
    <contour>
      <point x="283" y="392" type="line"/>
      <point x="293" y="473" type="line"/>
      <point x="212" y="473" type="line"/>
      <point x="253" y="782" type="line"/>
      <point x="183" y="782" type="line"/>
      <point x="50" y="699" type="line"/>
      <point x="87" y="632" type="line"/>
      <point x="145" y="668" type="line"/>
      <point x="119" y="473" type="line"/>
      <point x="38" y="473" type="line"/>
      <point x="28" y="392" type="line"/>
    </contour>
    <contour>
      <point x="113" y="0" type="line"/>
      <point x="791" y="780" type="line"/>
      <point x="691" y="780" type="line"/>
      <point x="13" y="0" type="line"/>
    </contour>
    <contour>
      <point x="646" y="81" type="line"/>
      <point x="611" y="80" type="line"/>
      <point x="710" y="176" type="line" smooth="yes"/>
      <point x="744" y="210"/>
      <point x="762" y="232"/>
      <point x="767" y="277" type="curve" smooth="yes"/>
      <point x="768" y="286" type="line" smooth="yes"/>
      <point x="773" y="334"/>
      <point x="746" y="397"/>
      <point x="647" y="397" type="curve" smooth="yes"/>
      <point x="559" y="397"/>
      <point x="515" y="355"/>
      <point x="505" y="269" type="curve" smooth="yes"/>
      <point x="504" y="260" type="line"/>
      <point x="597" y="260" type="line"/>
      <point x="603" y="302"/>
      <point x="618" y="316"/>
      <point x="638" y="316" type="curve" smooth="yes"/>
      <point x="643" y="316" type="line" smooth="yes"/>
      <point x="662" y="316"/>
      <point x="676" y="303"/>
      <point x="673" y="275" type="curve" smooth="yes"/>
      <point x="672" y="266" type="line" smooth="yes"/>
      <point x="670" y="251"/>
      <point x="660" y="235"/>
      <point x="644" y="220" type="curve" smooth="yes"/>
      <point x="478" y="58" type="line"/>
      <point x="470" y="0" type="line"/>
      <point x="730" y="0" type="line"/>
      <point x="741" y="81" type="line"/>
    </contour>
  </outline>
</glyph>
<glyph name="threequarters" format="1">
  <advance width="800"/>
  <unicode hex="00BE"/>
  <outline>
    <contour>
      <point x="127" y="517" type="curve"/>
      <point x="34" y="517" type="line"/>
      <point x="33" y="508" type="line" smooth="yes"/>
      <point x="24" y="426"/>
      <point x="68" y="385"/>
      <point x="157" y="385" type="curve" smooth="yes"/>
      <point x="255" y="385"/>
      <point x="291" y="447"/>
      <point x="296" y="493" type="curve" smooth="yes"/>
      <point x="297" y="502" type="line" smooth="yes"/>
      <point x="302" y="544"/>
      <point x="288" y="580"/>
      <point x="264" y="591" type="curve"/>
      <point x="290" y="603"/>
      <point x="313" y="629"/>
      <point x="317" y="669" type="curve" smooth="yes"/>
      <point x="318" y="678" type="line" smooth="yes"/>
      <point x="323" y="721"/>
      <point x="300" y="789"/>
      <point x="197" y="789" type="curve" smooth="yes"/>
      <point x="109" y="789"/>
      <point x="65" y="747"/>
      <point x="55" y="661" type="curve" smooth="yes"/>
      <point x="54" y="652" type="line"/>
      <point x="147" y="652" type="line"/>
      <point x="151" y="693"/>
      <point x="167" y="708"/>
      <point x="188" y="708" type="curve" smooth="yes"/>
      <point x="193" y="708" type="line" smooth="yes"/>
      <point x="210" y="708"/>
      <point x="227" y="699"/>
      <point x="224" y="674" type="curve" smooth="yes"/>
      <point x="223" y="665" type="line" smooth="yes"/>
      <point x="220" y="642"/>
      <point x="206" y="631"/>
      <point x="182" y="631" type="curve" smooth="yes"/>
      <point x="132" y="631" type="line"/>
      <point x="121" y="550" type="line"/>
      <point x="172" y="550" type="line" smooth="yes"/>
      <point x="196" y="550"/>
      <point x="208" y="537"/>
      <point x="205" y="513" type="curve" smooth="yes"/>
      <point x="204" y="504" type="line" smooth="yes"/>
      <point x="201" y="478"/>
      <point x="184" y="466"/>
      <point x="164" y="466" type="curve" smooth="yes"/>
      <point x="159" y="466" type="line" smooth="yes"/>
      <point x="140" y="466"/>
      <point x="122" y="477"/>
    </contour>
    <contour>
      <point x="113" y="0" type="line"/>
      <point x="791" y="780" type="line"/>
      <point x="691" y="780" type="line"/>
      <point x="13" y="0" type="line"/>
    </contour>
    <contour>
      <point x="702" y="0" type="line"/>
      <point x="712" y="79" type="line"/>
      <point x="748" y="79" type="line"/>
      <point x="759" y="160" type="line"/>
      <point x="723" y="160" type="line"/>
      <point x="753" y="390" type="line"/>
      <point x="665" y="390" type="line"/>
      <point x="482" y="145" type="line"/>
      <point x="473" y="79" type="line"/>
      <point x="619" y="79" type="line"/>
      <point x="609" y="0" type="line"/>
    </contour>
    <contour>
      <point x="641" y="243" type="line"/>
      <point x="638" y="221" type="line"/>
      <point x="630" y="160" type="line"/>
      <point x="599" y="160" type="line"/>
      <point x="578" y="159" type="line"/>
    </contour>
  </outline>
</glyph>
<glyph name="questiondown" format="1">
  <advance width="484"/>
  <unicode hex="00BF"/>
  <outline>
    <contour>
      <point x="171" y="-98" type="curve" smooth="yes"/>
      <point x="120" y="-98"/>
      <point x="102" y="-69"/>
      <point x="102" y="-30" type="curve" smooth="yes"/>
      <point x="102" y="82"/>
      <point x="282" y="145"/>
      <point x="282" y="314" type="curve"/>
      <point x="192" y="314" type="line"/>
      <point x="177" y="177"/>
      <point x="-32" y="135"/>
      <point x="-32" y="-42" type="curve" smooth="yes"/>
      <point x="-32" y="-157"/>
      <point x="29" y="-214"/>
      <point x="173" y="-214" type="curve" smooth="yes"/>
      <point x="327" y="-214"/>
      <point x="396" y="-111"/>
      <point x="417" y="45" type="curve" smooth="yes"/>
      <point x="419" y="60" type="line"/>
      <point x="288" y="60" type="line"/>
      <point x="274" y="-49"/>
      <point x="243" y="-98"/>
    </contour>
    <contour>
      <point x="175" y="389" type="line"/>
      <point x="317" y="389" type="line"/>
      <point x="336" y="530" type="line"/>
      <point x="194" y="530" type="line"/>
    </contour>
  </outline>
</glyph>
<glyph name="Agrave" format="1">
  <advance width="631"/>
  <unicode hex="00C0"/>
  <outline>
    <contour>
      <point x="264" y="950" type="line"/>
      <point x="312" y="840" type="line"/>
      <point x="442" y="840" type="line"/>
      <point x="401" y="950" type="line"/>
    </contour>
    <contour>
      <point x="277" y="784" type="line"/>
      <point x="-31" y="0" type="line"/>
      <point x="116" y="0" type="line"/>
      <point x="182" y="178" type="line"/>
      <point x="402" y="178" type="line"/>
      <point x="423" y="0" type="line"/>
      <point x="564" y="0" type="line"/>
      <point x="462" y="784" type="line"/>
    </contour>
    <contour>
      <point x="352" y="631" type="line"/>
      <point x="393" y="295" type="line"/>
      <point x="222" y="295" type="line"/>
    </contour>
  </outline>
</glyph>
<glyph name="Acircumflex" format="1">
  <advance width="631"/>
  <unicode hex="00C2"/>
  <outline>
    <contour>
      <point x="315" y="840" type="line"/>
      <point x="386" y="892" type="line"/>
      <point x="443" y="840" type="line"/>
      <point x="561" y="840" type="line"/>
      <point x="457" y="950" type="line"/>
      <point x="327" y="950" type="line"/>
      <point x="193" y="840" type="line"/>
    </contour>
    <contour>
      <point x="277" y="784" type="line"/>
      <point x="-31" y="0" type="line"/>
      <point x="116" y="0" type="line"/>
      <point x="182" y="178" type="line"/>
      <point x="402" y="178" type="line"/>
      <point x="423" y="0" type="line"/>
      <point x="564" y="0" type="line"/>
      <point x="462" y="784" type="line"/>
    </contour>
    <contour>
      <point x="352" y="631" type="line"/>
      <point x="393" y="295" type="line"/>
      <point x="222" y="295" type="line"/>
    </contour>
  </outline>
</glyph>
<glyph name="Atilde" format="1">
  <advance width="631"/>
  <unicode hex="00C3"/>
  <outline>
    <contour>
      <point x="492" y="943" type="line"/>
      <point x="491" y="920"/>
      <point x="476" y="907"/>
      <point x="454" y="907" type="curve" smooth="yes"/>
      <point x="413" y="907"/>
      <point x="381" y="957"/>
      <point x="316" y="957" type="curve" smooth="yes"/>
      <point x="261" y="957"/>
      <point x="210" y="927"/>
      <point x="204" y="847" type="curve"/>
      <point x="277" y="847" type="line"/>
      <point x="278" y="870"/>
      <point x="293" y="883"/>
      <point x="315" y="883" type="curve" smooth="yes"/>
      <point x="356" y="883"/>
      <point x="388" y="833"/>
      <point x="453" y="833" type="curve" smooth="yes"/>
      <point x="508" y="833"/>
      <point x="559" y="863"/>
      <point x="565" y="943" type="curve"/>
    </contour>
    <contour>
      <point x="277" y="784" type="line"/>
      <point x="-31" y="0" type="line"/>
      <point x="116" y="0" type="line"/>
      <point x="182" y="178" type="line"/>
      <point x="402" y="178" type="line"/>
      <point x="423" y="0" type="line"/>
      <point x="564" y="0" type="line"/>
      <point x="462" y="784" type="line"/>
    </contour>
    <contour>
      <point x="352" y="631" type="line"/>
      <point x="393" y="295" type="line"/>
      <point x="222" y="295" type="line"/>
    </contour>
  </outline>
</glyph>
<glyph name="Adieresis" format="1">
  <advance width="631"/>
  <unicode hex="00C4"/>
  <outline>
    <contour>
      <point x="363" y="941" type="line"/>
      <point x="247" y="941" type="line"/>
      <point x="235" y="849" type="line"/>
      <point x="351" y="849" type="line"/>
    </contour>
    <contour>
      <point x="533" y="941" type="line"/>
      <point x="417" y="941" type="line"/>
      <point x="405" y="849" type="line"/>
      <point x="521" y="849" type="line"/>
    </contour>
    <contour>
      <point x="277" y="784" type="line"/>
      <point x="-31" y="0" type="line"/>
      <point x="116" y="0" type="line"/>
      <point x="182" y="178" type="line"/>
      <point x="402" y="178" type="line"/>
      <point x="423" y="0" type="line"/>
      <point x="564" y="0" type="line"/>
      <point x="462" y="784" type="line"/>
    </contour>
    <contour>
      <point x="352" y="631" type="line"/>
      <point x="393" y="295" type="line"/>
      <point x="222" y="295" type="line"/>
    </contour>
  </outline>
</glyph>
<glyph name="Aring" format="1">
  <advance width="631"/>
  <unicode hex="00C5"/>
  <outline>
    <contour>
      <point x="277" y="784" type="line"/>
      <point x="-31" y="0" type="line"/>
      <point x="116" y="0" type="line"/>
      <point x="182" y="178" type="line"/>
      <point x="402" y="178" type="line"/>
      <point x="423" y="0" type="line"/>
      <point x="564" y="0" type="line"/>
      <point x="462" y="784" type="line"/>
      <point x="443" y="784" type="line"/>
      <point x="467" y="803"/>
      <point x="483" y="833"/>
      <point x="483" y="868" type="curve" smooth="yes"/>
      <point x="483" y="925"/>
      <point x="442" y="964"/>
      <point x="387" y="964" type="curve" smooth="yes"/>
      <point x="329" y="964"/>
      <point x="277" y="917"/>
      <point x="277" y="855" type="curve" smooth="yes"/>
      <point x="277" y="825"/>
      <point x="288" y="801"/>
      <point x="306" y="784" type="curve"/>
    </contour>
    <contour>
      <point x="352" y="631" type="line"/>
      <point x="393" y="295" type="line"/>
      <point x="222" y="295" type="line"/>
    </contour>
    <contour>
      <point x="432" y="868" type="curve" smooth="yes"/>
      <point x="432" y="830"/>
      <point x="404" y="809"/>
      <point x="373" y="809" type="curve" smooth="yes"/>
      <point x="346" y="809"/>
      <point x="328" y="827"/>
      <point x="328" y="855" type="curve" smooth="yes"/>
      <point x="328" y="893"/>
      <point x="356" y="914"/>
      <point x="387" y="914" type="curve" smooth="yes"/>
      <point x="414" y="914"/>
      <point x="432" y="896"/>
    </contour>
  </outline>
</glyph>
<glyph name="AE" format="1">
  <advance width="870"/>
  <unicode hex="00C6"/>
  <outline>
    <contour>
      <point x="342" y="780" type="line"/>
      <point x="-38" y="0" type="line"/>
      <point x="106" y="0" type="line"/>
      <point x="190" y="182" type="line"/>
      <point x="392" y="182" type="line"/>
      <point x="391" y="0" type="line"/>
      <point x="781" y="0" type="line"/>
      <point x="796" y="117" type="line"/>
      <point x="532" y="117" type="line"/>
      <point x="531" y="340" type="line"/>
      <point x="775" y="340" type="line"/>
      <point x="790" y="456" type="line"/>
      <point x="530" y="456" type="line"/>
      <point x="528" y="663" type="line"/>
      <point x="868" y="663" type="line"/>
      <point x="883" y="780" type="line"/>
    </contour>
    <contour>
      <point x="397" y="633" type="line"/>
      <point x="393" y="298" type="line"/>
      <point x="244" y="298" type="line"/>
    </contour>
  </outline>
</glyph>
<glyph name="Ccedilla" format="1">
  <advance width="640"/>
  <unicode hex="00C7"/>
  <outline>
    <contour>
      <point x="184" y="408" type="line" smooth="yes"/>
      <point x="207" y="585"/>
      <point x="253" y="676"/>
      <point x="363" y="676" type="curve" smooth="yes"/>
      <point x="373" y="676" type="line" smooth="yes"/>
      <point x="470" y="676"/>
      <point x="495" y="613"/>
      <point x="478" y="487" type="curve"/>
      <point x="612" y="487" type="line"/>
      <point x="615" y="509" type="line" smooth="yes"/>
      <point x="641" y="698"/>
      <point x="565" y="793"/>
      <point x="372" y="793" type="curve" smooth="yes"/>
      <point x="186" y="793"/>
      <point x="84" y="678"/>
      <point x="48" y="408" type="curve" smooth="yes"/>
      <point x="43" y="370" type="line" smooth="yes"/>
      <point x="9" y="116"/>
      <point x="73" y="3"/>
      <point x="249" y="-11" type="curve"/>
      <point x="216" y="-75" type="line"/>
      <point x="229" y="-101" type="line"/>
      <point x="229" y="-101"/>
      <point x="247" y="-97"/>
      <point x="267" y="-97" type="curve" smooth="yes"/>
      <point x="297" y="-97"/>
      <point x="313" y="-104"/>
      <point x="313" y="-121" type="curve" smooth="yes"/>
      <point x="313" y="-138"/>
      <point x="297" y="-147"/>
      <point x="262" y="-147" type="curve" smooth="yes"/>
      <point x="233" y="-147"/>
      <point x="206" y="-141"/>
      <point x="190" y="-131" type="curve"/>
      <point x="162" y="-190" type="line"/>
      <point x="180" y="-203"/>
      <point x="216" y="-214"/>
      <point x="261" y="-214" type="curve" smooth="yes"/>
      <point x="337" y="-214"/>
      <point x="388" y="-179"/>
      <point x="388" y="-120" type="curve" smooth="yes"/>
      <point x="388" y="-69"/>
      <point x="347" y="-49"/>
      <point x="298" y="-45" type="curve"/>
      <point x="314" y="-12" type="line"/>
      <point x="483" y="-5"/>
      <point x="563" y="78"/>
      <point x="582" y="254" type="curve" smooth="yes"/>
      <point x="583" y="263" type="line"/>
      <point x="448" y="263" type="line"/>
      <point x="435" y="165"/>
      <point x="409" y="104"/>
      <point x="299" y="104" type="curve" smooth="yes"/>
      <point x="289" y="104" type="line" smooth="yes"/>
      <point x="180" y="104"/>
      <point x="155" y="190"/>
      <point x="179" y="370" type="curve" smooth="yes"/>
    </contour>
  </outline>
</glyph>
<glyph name="Egrave" format="1">
  <advance width="565"/>
  <unicode hex="00C8"/>
  <outline>
    <contour>
      <point x="245" y="950" type="line"/>
      <point x="293" y="840" type="line"/>
      <point x="423" y="840" type="line"/>
      <point x="382" y="950" type="line"/>
    </contour>
    <contour>
      <point x="114" y="780" type="line"/>
      <point x="12" y="0" type="line"/>
      <point x="476" y="0" type="line"/>
      <point x="491" y="117" type="line"/>
      <point x="161" y="117" type="line"/>
      <point x="190" y="340" type="line"/>
      <point x="470" y="340" type="line"/>
      <point x="485" y="456" type="line"/>
      <point x="206" y="456" type="line"/>
      <point x="233" y="663" type="line"/>
      <point x="563" y="663" type="line"/>
      <point x="578" y="780" type="line"/>
    </contour>
  </outline>
</glyph>
<glyph name="Ecircumflex" format="1">
  <advance width="565"/>
  <unicode hex="00CA"/>
  <outline>
    <contour>
      <point x="296" y="840" type="line"/>
      <point x="367" y="892" type="line"/>
      <point x="424" y="840" type="line"/>
      <point x="542" y="840" type="line"/>
      <point x="438" y="950" type="line"/>
      <point x="308" y="950" type="line"/>
      <point x="174" y="840" type="line"/>
    </contour>
    <contour>
      <point x="114" y="780" type="line"/>
      <point x="12" y="0" type="line"/>
      <point x="476" y="0" type="line"/>
      <point x="491" y="117" type="line"/>
      <point x="161" y="117" type="line"/>
      <point x="190" y="340" type="line"/>
      <point x="470" y="340" type="line"/>
      <point x="485" y="456" type="line"/>
      <point x="206" y="456" type="line"/>
      <point x="233" y="663" type="line"/>
      <point x="563" y="663" type="line"/>
      <point x="578" y="780" type="line"/>
    </contour>
  </outline>
</glyph>
<glyph name="Edieresis" format="1">
  <advance width="565"/>
  <unicode hex="00CB"/>
  <outline>
    <contour>
      <point x="344" y="941" type="line"/>
      <point x="228" y="941" type="line"/>
      <point x="216" y="849" type="line"/>
      <point x="332" y="849" type="line"/>
    </contour>
    <contour>
      <point x="514" y="941" type="line"/>
      <point x="398" y="941" type="line"/>
      <point x="386" y="849" type="line"/>
      <point x="502" y="849" type="line"/>
    </contour>
    <contour>
      <point x="114" y="780" type="line"/>
      <point x="12" y="0" type="line"/>
      <point x="476" y="0" type="line"/>
      <point x="491" y="117" type="line"/>
      <point x="161" y="117" type="line"/>
      <point x="190" y="340" type="line"/>
      <point x="470" y="340" type="line"/>
      <point x="485" y="456" type="line"/>
      <point x="206" y="456" type="line"/>
      <point x="233" y="663" type="line"/>
      <point x="563" y="663" type="line"/>
      <point x="578" y="780" type="line"/>
    </contour>
  </outline>
</glyph>
<glyph name="Igrave" format="1">
  <advance width="266"/>
  <unicode hex="00CC"/>
  <outline>
    <contour>
      <point x="81" y="950" type="line"/>
      <point x="129" y="840" type="line"/>
      <point x="259" y="840" type="line"/>
      <point x="218" y="950" type="line"/>
    </contour>
    <contour>
      <point x="253" y="780" type="line"/>
      <point x="119" y="780" type="line"/>
      <point x="17" y="0" type="line"/>
      <point x="151" y="0" type="line"/>
    </contour>
  </outline>
</glyph>
<glyph name="Iacute" format="1">
  <advance width="266"/>
  <unicode hex="00CD"/>
  <outline>
    <contour>
      <point x="200" y="950" type="line"/>
      <point x="129" y="840" type="line"/>
      <point x="259" y="840" type="line"/>
      <point x="337" y="950" type="line"/>
    </contour>
    <contour>
      <point x="253" y="780" type="line"/>
      <point x="119" y="780" type="line"/>
      <point x="17" y="0" type="line"/>
      <point x="151" y="0" type="line"/>
    </contour>
  </outline>
</glyph>
<glyph name="Icircumflex" format="1">
  <advance width="266"/>
  <unicode hex="00CE"/>
  <outline>
    <contour>
      <point x="132" y="840" type="line"/>
      <point x="203" y="892" type="line"/>
      <point x="260" y="840" type="line"/>
      <point x="378" y="840" type="line"/>
      <point x="274" y="950" type="line"/>
      <point x="144" y="950" type="line"/>
      <point x="10" y="840" type="line"/>
    </contour>
    <contour>
      <point x="253" y="780" type="line"/>
      <point x="119" y="780" type="line"/>
      <point x="17" y="0" type="line"/>
      <point x="151" y="0" type="line"/>
    </contour>
  </outline>
</glyph>
<glyph name="Idieresis" format="1">
  <advance width="266"/>
  <unicode hex="00CF"/>
  <outline>
    <contour>
      <point x="180" y="941" type="line"/>
      <point x="64" y="941" type="line"/>
      <point x="52" y="849" type="line"/>
      <point x="168" y="849" type="line"/>
    </contour>
    <contour>
      <point x="350" y="941" type="line"/>
      <point x="234" y="941" type="line"/>
      <point x="222" y="849" type="line"/>
      <point x="338" y="849" type="line"/>
    </contour>
    <contour>
      <point x="253" y="780" type="line"/>
      <point x="119" y="780" type="line"/>
      <point x="17" y="0" type="line"/>
      <point x="151" y="0" type="line"/>
    </contour>
  </outline>
</glyph>
<glyph name="Eth" format="1">
  <advance width="715"/>
  <unicode hex="00D0"/>
  <outline>
    <contour>
      <point x="674" y="410" type="line" smooth="yes"/>
      <point x="710" y="680"/>
      <point x="614" y="780"/>
      <point x="392" y="780" type="curve" smooth="yes"/>
      <point x="173" y="780" type="line"/>
      <point x="130" y="450" type="line"/>
      <point x="24" y="450" type="line"/>
      <point x="10" y="348" type="line"/>
      <point x="116" y="348" type="line"/>
      <point x="71" y="0" type="line"/>
      <point x="309" y="0" type="line" smooth="yes"/>
      <point x="528" y="0"/>
      <point x="634" y="103"/>
      <point x="669" y="372" type="curve" smooth="yes"/>
    </contour>
    <contour>
      <point x="220" y="117" type="line"/>
      <point x="250" y="348" type="line"/>
      <point x="431" y="348" type="line"/>
      <point x="445" y="450" type="line"/>
      <point x="264" y="450" type="line"/>
      <point x="292" y="663" type="line"/>
      <point x="387" y="663" type="line" smooth="yes"/>
      <point x="519" y="663"/>
      <point x="561" y="586"/>
      <point x="538" y="410" type="curve" smooth="yes"/>
      <point x="533" y="372" type="line" smooth="yes"/>
      <point x="509" y="187"/>
      <point x="448" y="117"/>
      <point x="309" y="117" type="curve" smooth="yes"/>
    </contour>
  </outline>
</glyph>
<glyph name="Ntilde" format="1">
  <advance width="675"/>
  <unicode hex="00D1"/>
  <outline>
    <contour>
      <point x="514" y="943" type="line"/>
      <point x="513" y="920"/>
      <point x="498" y="907"/>
      <point x="476" y="907" type="curve" smooth="yes"/>
      <point x="435" y="907"/>
      <point x="403" y="957"/>
      <point x="338" y="957" type="curve" smooth="yes"/>
      <point x="283" y="957"/>
      <point x="232" y="927"/>
      <point x="226" y="847" type="curve"/>
      <point x="299" y="847" type="line"/>
      <point x="300" y="870"/>
      <point x="315" y="883"/>
      <point x="337" y="883" type="curve" smooth="yes"/>
      <point x="378" y="883"/>
      <point x="410" y="833"/>
      <point x="475" y="833" type="curve" smooth="yes"/>
      <point x="530" y="833"/>
      <point x="581" y="863"/>
      <point x="587" y="943" type="curve"/>
    </contour>
    <contour>
      <point x="114" y="780" type="line"/>
      <point x="12" y="0" type="line"/>
      <point x="143" y="0" type="line"/>
      <point x="191" y="373" type="line"/>
      <point x="208" y="538" type="line"/>
      <point x="426" y="0" type="line"/>
      <point x="565" y="0" type="line"/>
      <point x="667" y="780" type="line"/>
      <point x="536" y="780" type="line"/>
      <point x="488" y="407" type="line"/>
      <point x="471" y="242" type="line"/>
      <point x="253" y="780" type="line"/>
    </contour>
  </outline>
</glyph>
<glyph name="Otilde" format="1">
  <advance width="665"/>
  <unicode hex="00D5"/>
  <outline>
    <contour>
      <point x="509" y="943" type="line"/>
      <point x="508" y="920"/>
      <point x="493" y="907"/>
      <point x="471" y="907" type="curve" smooth="yes"/>
      <point x="430" y="907"/>
      <point x="398" y="957"/>
      <point x="333" y="957" type="curve" smooth="yes"/>
      <point x="278" y="957"/>
      <point x="227" y="927"/>
      <point x="221" y="847" type="curve"/>
      <point x="294" y="847" type="line"/>
      <point x="295" y="870"/>
      <point x="310" y="883"/>
      <point x="332" y="883" type="curve" smooth="yes"/>
      <point x="373" y="883"/>
      <point x="405" y="833"/>
      <point x="470" y="833" type="curve" smooth="yes"/>
      <point x="525" y="833"/>
      <point x="576" y="863"/>
      <point x="582" y="943" type="curve"/>
    </contour>
    <contour>
      <point x="625" y="410" type="line" smooth="yes"/>
      <point x="661" y="683"/>
      <point x="584" y="793"/>
      <point x="377" y="793" type="curve" smooth="yes"/>
      <point x="191" y="793"/>
      <point x="84" y="678"/>
      <point x="48" y="408" type="curve" smooth="yes"/>
      <point x="43" y="370" type="line" smooth="yes"/>
      <point x="7" y="97"/>
      <point x="84" y="-13"/>
      <point x="291" y="-13" type="curve" smooth="yes"/>
      <point x="477" y="-13"/>
      <point x="584" y="102"/>
      <point x="620" y="372" type="curve" smooth="yes"/>
    </contour>
    <contour>
      <point x="484" y="372" type="line" smooth="yes"/>
      <point x="461" y="195"/>
      <point x="410" y="104"/>
      <point x="300" y="104" type="curve" smooth="yes"/>
      <point x="290" y="104" type="line" smooth="yes"/>
      <point x="181" y="104"/>
      <point x="155" y="190"/>
      <point x="179" y="370" type="curve" smooth="yes"/>
      <point x="184" y="408" type="line" smooth="yes"/>
      <point x="207" y="585"/>
      <point x="258" y="676"/>
      <point x="368" y="676" type="curve" smooth="yes"/>
      <point x="378" y="676" type="line" smooth="yes"/>
      <point x="487" y="676"/>
      <point x="513" y="590"/>
      <point x="489" y="410" type="curve" smooth="yes"/>
    </contour>
  </outline>
</glyph>
<glyph name="multiply" format="1">
  <advance width="600"/>
  <unicode hex="00D7"/>
  <outline>
    <contour>
      <point x="80" y="121" type="line"/>
      <point x="290" y="306" type="line"/>
      <point x="451" y="121" type="line"/>
      <point x="546" y="205" type="line"/>
      <point x="385" y="390" type="line"/>
      <point x="595" y="575" type="line"/>
      <point x="522" y="659" type="line"/>
      <point x="312" y="474" type="line"/>
      <point x="151" y="659" type="line"/>
      <point x="56" y="575" type="line"/>
      <point x="217" y="390" type="line"/>
      <point x="7" y="205" type="line"/>
    </contour>
  </outline>
</glyph>
<glyph name="Oslash" format="1">
  <advance width="660"/>
  <unicode hex="00D8"/>
  <outline>
    <contour>
      <point x="625" y="410" type="line" smooth="yes"/>
      <point x="641" y="534"/>
      <point x="635" y="627"/>
      <point x="602" y="685" type="curve"/>
      <point x="674" y="780" type="line"/>
      <point x="583" y="780" type="line"/>
      <point x="556" y="744" type="line"/>
      <point x="514" y="777"/>
      <point x="454" y="793"/>
      <point x="377" y="793" type="curve" smooth="yes"/>
      <point x="191" y="793"/>
      <point x="84" y="678"/>
      <point x="48" y="408" type="curve" smooth="yes"/>
      <point x="43" y="370" type="line" smooth="yes"/>
      <point x="27" y="246"/>
      <point x="33" y="153"/>
      <point x="66" y="95" type="curve"/>
      <point x="-6" y="0" type="line"/>
      <point x="85" y="0" type="line"/>
      <point x="112" y="36" type="line"/>
      <point x="154" y="3"/>
      <point x="214" y="-13"/>
      <point x="291" y="-13" type="curve" smooth="yes"/>
      <point x="477" y="-13"/>
      <point x="584" y="102"/>
      <point x="620" y="372" type="curve" smooth="yes"/>
    </contour>
    <contour>
      <point x="496" y="544" type="line"/>
      <point x="499" y="510"/>
      <point x="496" y="463"/>
      <point x="489" y="410" type="curve" smooth="yes"/>
      <point x="484" y="372" type="line" smooth="yes"/>
      <point x="461" y="195"/>
      <point x="410" y="104"/>
      <point x="300" y="104" type="curve" smooth="yes"/>
      <point x="290" y="104" type="line" smooth="yes"/>
      <point x="246" y="104"/>
      <point x="215" y="118"/>
      <point x="196" y="147" type="curve"/>
    </contour>
    <contour>
      <point x="172" y="236" type="line"/>
      <point x="169" y="270"/>
      <point x="172" y="317"/>
      <point x="179" y="370" type="curve" smooth="yes"/>
      <point x="184" y="408" type="line" smooth="yes"/>
      <point x="207" y="585"/>
      <point x="258" y="676"/>
      <point x="368" y="676" type="curve" smooth="yes"/>
      <point x="378" y="676" type="line" smooth="yes"/>
      <point x="422" y="676"/>
      <point x="453" y="662"/>
      <point x="472" y="633" type="curve"/>
    </contour>
  </outline>
</glyph>
<glyph name="Udieresis" format="1">
  <advance width="655"/>
  <unicode hex="00DC"/>
  <outline>
    <contour>
      <point x="375" y="941" type="line"/>
      <point x="259" y="941" type="line"/>
      <point x="247" y="849" type="line"/>
      <point x="363" y="849" type="line"/>
    </contour>
    <contour>
      <point x="545" y="941" type="line"/>
      <point x="429" y="941" type="line"/>
      <point x="417" y="849" type="line"/>
      <point x="533" y="849" type="line"/>
    </contour>
    <contour>
      <point x="287" y="-13" type="curve" smooth="yes"/>
      <point x="477" y="-13"/>
      <point x="558" y="63"/>
      <point x="581" y="237" type="curve" smooth="yes"/>
      <point x="652" y="780" type="line"/>
      <point x="518" y="780" type="line"/>
      <point x="448" y="247" type="line" smooth="yes"/>
      <point x="435" y="146"/>
      <point x="387" y="104"/>
      <point x="287" y="104" type="curve" smooth="yes"/>
      <point x="186" y="104"/>
      <point x="161" y="152"/>
      <point x="174" y="254" type="curve" smooth="yes"/>
      <point x="243" y="780" type="line"/>
      <point x="109" y="780" type="line"/>
      <point x="39" y="245" type="line" smooth="yes"/>
      <point x="17" y="75"/>
      <point x="89" y="-13"/>
    </contour>
  </outline>
</glyph>
<glyph name="Thorn" format="1">
  <advance width="598"/>
  <unicode hex="00DE"/>
  <outline>
    <contour>
      <point x="180" y="263" type="line"/>
      <point x="214" y="518" type="line"/>
      <point x="328" y="518" type="line" smooth="yes"/>
      <point x="391" y="518"/>
      <point x="446" y="497"/>
      <point x="433" y="395" type="curve" smooth="yes"/>
      <point x="432" y="387" type="line" smooth="yes"/>
      <point x="420" y="292"/>
      <point x="372" y="263"/>
      <point x="297" y="263" type="curve" smooth="yes"/>
    </contour>
    <contour>
      <point x="146" y="0" type="line"/>
      <point x="165" y="146" type="line"/>
      <point x="280" y="146" type="line" smooth="yes"/>
      <point x="403" y="146"/>
      <point x="540" y="186"/>
      <point x="567" y="380" type="curve" smooth="yes"/>
      <point x="570" y="402" type="line" smooth="yes"/>
      <point x="595" y="585"/>
      <point x="454" y="635"/>
      <point x="331" y="635" type="curve" smooth="yes"/>
      <point x="229" y="635" type="line"/>
      <point x="248" y="780" type="line"/>
      <point x="114" y="780" type="line"/>
      <point x="12" y="0" type="line"/>
    </contour>
  </outline>
</glyph>
<glyph name="germandbls" format="1">
  <advance width="613"/>
  <unicode hex="00DF"/>
  <outline>
    <contour>
      <point x="274" y="346" type="line"/>
      <point x="353" y="286" type="line" smooth="yes"/>
      <point x="405" y="246"/>
      <point x="432" y="203"/>
      <point x="432" y="171" type="curve" smooth="yes"/>
      <point x="432" y="122"/>
      <point x="418" y="88"/>
      <point x="375" y="88" type="curve" smooth="yes"/>
      <point x="332" y="88"/>
      <point x="315" y="123"/>
      <point x="320" y="166" type="curve"/>
      <point x="201" y="166" type="line"/>
      <point x="200" y="157" type="line" smooth="yes"/>
      <point x="190" y="70"/>
      <point x="218" y="-13"/>
      <point x="370" y="-13" type="curve" smooth="yes"/>
      <point x="493" y="-13"/>
      <point x="552" y="71"/>
      <point x="562" y="159" type="curve" smooth="yes"/>
      <point x="563" y="168" type="line" smooth="yes"/>
      <point x="572" y="250"/>
      <point x="524" y="316"/>
      <point x="446" y="375" type="curve" smooth="yes"/>
      <point x="417" y="397" type="line"/>
      <point x="494" y="441"/>
      <point x="541" y="493"/>
      <point x="552" y="588" type="curve" smooth="yes"/>
      <point x="553" y="597" type="line" smooth="yes"/>
      <point x="566" y="711"/>
      <point x="498" y="813"/>
      <point x="330" y="813" type="curve" smooth="yes"/>
      <point x="170" y="813"/>
      <point x="99" y="720"/>
      <point x="83" y="598" type="curve" smooth="yes"/>
      <point x="5" y="0" type="line"/>
      <point x="135" y="0" type="line"/>
      <point x="212" y="591" type="line" smooth="yes"/>
      <point x="220" y="649"/>
      <point x="255" y="699"/>
      <point x="330" y="699" type="curve" smooth="yes"/>
      <point x="389" y="699"/>
      <point x="423" y="661"/>
      <point x="423" y="608" type="curve" smooth="yes"/>
      <point x="423" y="527"/>
      <point x="372" y="473"/>
      <point x="285" y="428" type="curve"/>
    </contour>
  </outline>
</glyph>
<glyph name="adieresis" format="1">
  <advance width="538"/>
  <unicode hex="00E4"/>
  <outline>
    <contour>
      <point x="291" y="763" type="line"/>
      <point x="149" y="763" type="line"/>
      <point x="130" y="622" type="line"/>
      <point x="272" y="622" type="line"/>
    </contour>
    <contour>
      <point x="491" y="763" type="line"/>
      <point x="349" y="763" type="line"/>
      <point x="330" y="622" type="line"/>
      <point x="472" y="622" type="line"/>
    </contour>
    <contour>
      <point x="329" y="0" type="line"/>
      <point x="444" y="0" type="line"/>
      <point x="454" y="150" type="line"/>
      <point x="479" y="342" type="line" smooth="yes"/>
      <point x="495" y="463"/>
      <point x="439" y="543"/>
      <point x="275" y="543" type="curve" smooth="yes"/>
      <point x="113" y="543"/>
      <point x="63" y="460"/>
      <point x="52" y="364" type="curve" smooth="yes"/>
      <point x="51" y="355" type="line"/>
      <point x="175" y="355" type="line"/>
      <point x="180" y="401"/>
      <point x="203" y="442"/>
      <point x="273" y="442" type="curve" smooth="yes"/>
      <point x="341" y="442"/>
      <point x="359" y="416"/>
      <point x="351" y="353" type="curve" smooth="yes"/>
      <point x="350" y="345" type="line"/>
      <point x="207" y="323" type="line" smooth="yes"/>
      <point x="95" y="306"/>
      <point x="19" y="270"/>
      <point x="6" y="156" type="curve" smooth="yes"/>
      <point x="5" y="147" type="line" smooth="yes"/>
      <point x="-4" y="62"/>
      <point x="44" y="-13"/>
      <point x="156" y="-13" type="curve" smooth="yes"/>
      <point x="245" y="-13"/>
      <point x="291" y="17"/>
      <point x="329" y="61" type="curve"/>
    </contour>
    <contour>
      <point x="201" y="94" type="curve" smooth="yes"/>
      <point x="152" y="94"/>
      <point x="132" y="126"/>
      <point x="136" y="159" type="curve" smooth="yes"/>
      <point x="137" y="168" type="line" smooth="yes"/>
      <point x="142" y="209"/>
      <point x="174" y="230"/>
      <point x="221" y="237" type="curve" smooth="yes"/>
      <point x="338" y="255" type="line"/>
      <point x="324" y="152" type="line"/>
      <point x="305" y="128"/>
      <point x="264" y="94"/>
    </contour>
  </outline>
</glyph>
<glyph name="ae" format="1">
  <advance width="863"/>
  <unicode hex="00E6"/>
  <outline>
    <contour>
      <point x="812" y="217" type="line"/>
      <point x="819" y="267" type="line" smooth="yes"/>
      <point x="841" y="428"/>
      <point x="772" y="543"/>
      <point x="603" y="543" type="curve" smooth="yes"/>
      <point x="528" y="543"/>
      <point x="477" y="518"/>
      <point x="442" y="476" type="curve"/>
      <point x="417" y="519"/>
      <point x="365" y="543"/>
      <point x="275" y="543" type="curve" smooth="yes"/>
      <point x="113" y="543"/>
      <point x="63" y="460"/>
      <point x="52" y="364" type="curve" smooth="yes"/>
      <point x="51" y="355" type="line"/>
      <point x="175" y="355" type="line"/>
      <point x="180" y="401"/>
      <point x="203" y="442"/>
      <point x="273" y="442" type="curve" smooth="yes"/>
      <point x="341" y="442"/>
      <point x="359" y="416"/>
      <point x="351" y="353" type="curve" smooth="yes"/>
      <point x="350" y="345" type="line"/>
      <point x="207" y="323" type="line" smooth="yes"/>
      <point x="95" y="306"/>
      <point x="19" y="270"/>
      <point x="6" y="156" type="curve" smooth="yes"/>
      <point x="5" y="147" type="line" smooth="yes"/>
      <point x="-4" y="62"/>
      <point x="44" y="-13"/>
      <point x="156" y="-13" type="curve" smooth="yes"/>
      <point x="251" y="-13"/>
      <point x="326" y="31"/>
      <point x="372" y="72" type="curve"/>
      <point x="408" y="19"/>
      <point x="472" y="-13"/>
      <point x="567" y="-13" type="curve" smooth="yes"/>
      <point x="715" y="-13"/>
      <point x="794" y="64"/>
      <point x="805" y="161" type="curve" smooth="yes"/>
      <point x="806" y="170" type="line"/>
      <point x="683" y="170" type="line"/>
      <point x="678" y="130"/>
      <point x="644" y="88"/>
      <point x="570" y="88" type="curve" smooth="yes"/>
      <point x="495" y="88"/>
      <point x="454" y="131"/>
      <point x="461" y="217" type="curve"/>
    </contour>
    <contour>
      <point x="201" y="94" type="curve" smooth="yes"/>
      <point x="152" y="94"/>
      <point x="132" y="126"/>
      <point x="136" y="159" type="curve" smooth="yes"/>
      <point x="137" y="168" type="line" smooth="yes"/>
      <point x="142" y="209"/>
      <point x="174" y="230"/>
      <point x="221" y="237" type="curve" smooth="yes"/>
      <point x="338" y="255" type="line"/>
      <point x="333" y="221"/>
      <point x="333" y="190"/>
      <point x="338" y="160" type="curve"/>
      <point x="312" y="132"/>
      <point x="263" y="94"/>
    </contour>
    <contour>
      <point x="598" y="442" type="curve" smooth="yes"/>
      <point x="670" y="442"/>
      <point x="704" y="392"/>
      <point x="695" y="313" type="curve"/>
      <point x="473" y="313" type="line"/>
      <point x="487" y="395"/>
      <point x="531" y="442"/>
    </contour>
  </outline>
</glyph>
<glyph name="ccedilla" format="1">
  <advance width="525"/>
  <unicode hex="00E7"/>
  <outline>
    <contour>
      <point x="153" y="278" type="line" smooth="yes"/>
      <point x="167" y="380"/>
      <point x="210" y="430"/>
      <point x="275" y="430" type="curve" smooth="yes"/>
      <point x="343" y="430"/>
      <point x="367" y="387"/>
      <point x="361" y="328" type="curve"/>
      <point x="484" y="328" type="line"/>
      <point x="487" y="350" type="line" smooth="yes"/>
      <point x="502" y="460"/>
      <point x="430" y="543"/>
      <point x="278" y="543" type="curve" smooth="yes"/>
      <point x="115" y="543"/>
      <point x="45" y="428"/>
      <point x="24" y="277" type="curve" smooth="yes"/>
      <point x="21" y="255" type="line" smooth="yes"/>
      <point x="3" y="120"/>
      <point x="58" y="11"/>
      <point x="186" y="-9" type="curve"/>
      <point x="152" y="-75" type="line"/>
      <point x="165" y="-101" type="line"/>
      <point x="165" y="-101"/>
      <point x="183" y="-97"/>
      <point x="203" y="-97" type="curve" smooth="yes"/>
      <point x="233" y="-97"/>
      <point x="249" y="-104"/>
      <point x="249" y="-121" type="curve" smooth="yes"/>
      <point x="249" y="-138"/>
      <point x="233" y="-147"/>
      <point x="198" y="-147" type="curve" smooth="yes"/>
      <point x="169" y="-147"/>
      <point x="142" y="-141"/>
      <point x="126" y="-131" type="curve"/>
      <point x="98" y="-190" type="line"/>
      <point x="116" y="-203"/>
      <point x="152" y="-214"/>
      <point x="197" y="-214" type="curve" smooth="yes"/>
      <point x="273" y="-214"/>
      <point x="324" y="-179"/>
      <point x="324" y="-120" type="curve" smooth="yes"/>
      <point x="324" y="-69"/>
      <point x="283" y="-49"/>
      <point x="234" y="-45" type="curve"/>
      <point x="250" y="-12" type="line"/>
      <point x="388" y="-6"/>
      <point x="453" y="80"/>
      <point x="465" y="184" type="curve" smooth="yes"/>
      <point x="466" y="193" type="line"/>
      <point x="343" y="193" type="line"/>
      <point x="336" y="139"/>
      <point x="302" y="100"/>
      <point x="236" y="100" type="curve" smooth="yes"/>
      <point x="166" y="100"/>
      <point x="137" y="161"/>
      <point x="150" y="256" type="curve" smooth="yes"/>
    </contour>
  </outline>
</glyph>
<glyph name="igrave" format="1">
  <advance width="250"/>
  <unicode hex="00EC"/>
  <outline>
    <contour>
      <point x="10" y="780" type="line"/>
      <point x="90" y="601" type="line"/>
      <point x="220" y="601" type="line"/>
      <point x="152" y="780" type="line"/>
    </contour>
    <contour>
      <point x="11" y="0" type="line"/>
      <point x="141" y="0" type="line"/>
      <point x="210" y="530" type="line"/>
      <point x="80" y="530" type="line"/>
    </contour>
  </outline>
</glyph>
<glyph name="iacute" format="1">
  <advance width="250"/>
  <unicode hex="00ED"/>
  <outline>
    <contour>
      <point x="204" y="780" type="line"/>
      <point x="90" y="601" type="line"/>
      <point x="220" y="601" type="line"/>
      <point x="346" y="780" type="line"/>
    </contour>
    <contour>
      <point x="11" y="0" type="line"/>
      <point x="141" y="0" type="line"/>
      <point x="210" y="530" type="line"/>
      <point x="80" y="530" type="line"/>
    </contour>
  </outline>
</glyph>
<glyph name="icircumflex" format="1">
  <advance width="250"/>
  <unicode hex="00EE"/>
  <outline>
    <contour>
      <point x="350" y="601" type="line"/>
      <point x="240" y="780" type="line"/>
      <point x="116" y="780" type="line"/>
      <point x="-40" y="601" type="line"/>
      <point x="80" y="601" type="line"/>
      <point x="170" y="693" type="line"/>
      <point x="236" y="601" type="line"/>
    </contour>
    <contour>
      <point x="11" y="0" type="line"/>
      <point x="141" y="0" type="line"/>
      <point x="210" y="530" type="line"/>
      <point x="80" y="530" type="line"/>
    </contour>
  </outline>
</glyph>
<glyph name="idieresis" format="1">
  <advance width="250"/>
  <unicode hex="00EF"/>
  <outline>
    <contour>
      <point x="147" y="763" type="line"/>
      <point x="5" y="763" type="line"/>
      <point x="-14" y="622" type="line"/>
      <point x="128" y="622" type="line"/>
    </contour>
    <contour>
      <point x="347" y="763" type="line"/>
      <point x="205" y="763" type="line"/>
      <point x="186" y="622" type="line"/>
      <point x="328" y="622" type="line"/>
    </contour>
    <contour>
      <point x="11" y="0" type="line"/>
      <point x="141" y="0" type="line"/>
      <point x="210" y="530" type="line"/>
      <point x="80" y="530" type="line"/>
    </contour>
  </outline>
</glyph>
<glyph name="eth" format="1">
  <advance width="553"/>
  <unicode hex="00F0"/>
  <outline>
    <contour>
      <point x="79" y="697" type="line"/>
      <point x="124" y="692"/>
      <point x="167" y="683"/>
      <point x="205" y="670" type="curve"/>
      <point x="100" y="615" type="line"/>
      <point x="89" y="536" type="line"/>
      <point x="276" y="634" type="line"/>
      <point x="318" y="607"/>
      <point x="349" y="570"/>
      <point x="366" y="526" type="curve"/>
      <point x="345" y="537"/>
      <point x="312" y="543"/>
      <point x="285" y="543" type="curve" smooth="yes"/>
      <point x="115" y="543"/>
      <point x="45" y="428"/>
      <point x="24" y="277" type="curve" smooth="yes"/>
      <point x="21" y="255" type="line" smooth="yes"/>
      <point x="1" y="105"/>
      <point x="73" y="-13"/>
      <point x="240" y="-13" type="curve" smooth="yes"/>
      <point x="410" y="-13"/>
      <point x="480" y="102"/>
      <point x="501" y="253" type="curve" smooth="yes"/>
      <point x="504" y="275" type="line" smooth="yes"/>
      <point x="525" y="430"/>
      <point x="515" y="593"/>
      <point x="406" y="702" type="curve"/>
      <point x="467" y="734" type="line"/>
      <point x="478" y="813" type="line"/>
      <point x="350" y="746" type="line"/>
      <point x="279" y="788"/>
      <point x="190" y="806"/>
      <point x="94" y="813" type="curve"/>
    </contour>
    <contour>
      <point x="243" y="100" type="curve" smooth="yes"/>
      <point x="166" y="100"/>
      <point x="137" y="161"/>
      <point x="150" y="256" type="curve" smooth="yes"/>
      <point x="153" y="278" type="line" smooth="yes"/>
      <point x="167" y="380"/>
      <point x="210" y="430"/>
      <point x="282" y="430" type="curve" smooth="yes"/>
      <point x="359" y="430"/>
      <point x="388" y="369"/>
      <point x="375" y="274" type="curve" smooth="yes"/>
      <point x="372" y="252" type="line" smooth="yes"/>
      <point x="358" y="150"/>
      <point x="315" y="100"/>
    </contour>
  </outline>
</glyph>
<glyph name="ntilde" format="1">
  <advance width="563"/>
  <unicode hex="00F1"/>
  <outline>
    <contour>
      <point x="396" y="725" type="curve" smooth="yes"/>
      <point x="356" y="725"/>
      <point x="316" y="778"/>
      <point x="255" y="778" type="curve" smooth="yes"/>
      <point x="195" y="778"/>
      <point x="138" y="735"/>
      <point x="132" y="636" type="curve"/>
      <point x="221" y="636" type="line"/>
      <point x="225" y="665"/>
      <point x="240" y="675"/>
      <point x="259" y="675" type="curve" smooth="yes"/>
      <point x="299" y="675"/>
      <point x="339" y="622"/>
      <point x="400" y="622" type="curve" smooth="yes"/>
      <point x="460" y="622"/>
      <point x="517" y="665"/>
      <point x="523" y="764" type="curve"/>
      <point x="434" y="764" type="line"/>
      <point x="430" y="735"/>
      <point x="415" y="725"/>
    </contour>
    <contour>
      <point x="462" y="0" type="line"/>
      <point x="509" y="359" type="line" smooth="yes"/>
      <point x="523" y="465"/>
      <point x="478" y="543"/>
      <point x="358" y="543" type="curve" smooth="yes"/>
      <point x="280" y="543"/>
      <point x="220" y="510"/>
      <point x="184" y="461" type="curve"/>
      <point x="184" y="530" type="line"/>
      <point x="69" y="530" type="line"/>
      <point x="59" y="380" type="line"/>
      <point x="9" y="0" type="line"/>
      <point x="139" y="0" type="line"/>
      <point x="187" y="367" type="line"/>
      <point x="205" y="391"/>
      <point x="239" y="430"/>
      <point x="300" y="430" type="curve" smooth="yes"/>
      <point x="359" y="430"/>
      <point x="384" y="395"/>
      <point x="377" y="342" type="curve" smooth="yes"/>
      <point x="332" y="0" type="line"/>
    </contour>
  </outline>
</glyph>
<glyph name="ocircumflex" format="1">
  <advance width="553"/>
  <unicode hex="00F4"/>
  <outline>
    <contour>
      <point x="501" y="601" type="line"/>
      <point x="391" y="780" type="line"/>
      <point x="267" y="780" type="line"/>
      <point x="111" y="601" type="line"/>
      <point x="231" y="601" type="line"/>
      <point x="321" y="693" type="line"/>
      <point x="387" y="601" type="line"/>
    </contour>
    <contour>
      <point x="243" y="100" type="curve" smooth="yes"/>
      <point x="166" y="100"/>
      <point x="137" y="161"/>
      <point x="150" y="256" type="curve" smooth="yes"/>
      <point x="153" y="278" type="line" smooth="yes"/>
      <point x="167" y="380"/>
      <point x="210" y="430"/>
      <point x="282" y="430" type="curve" smooth="yes"/>
      <point x="359" y="430"/>
      <point x="388" y="369"/>
      <point x="375" y="274" type="curve" smooth="yes"/>
      <point x="372" y="252" type="line" smooth="yes"/>
      <point x="358" y="150"/>
      <point x="315" y="100"/>
    </contour>
    <contour>
      <point x="240" y="-13" type="curve" smooth="yes"/>
      <point x="410" y="-13"/>
      <point x="480" y="102"/>
      <point x="501" y="253" type="curve" smooth="yes"/>
      <point x="504" y="275" type="line" smooth="yes"/>
      <point x="524" y="425"/>
      <point x="453" y="543"/>
      <point x="285" y="543" type="curve" smooth="yes"/>
      <point x="115" y="543"/>
      <point x="45" y="428"/>
      <point x="24" y="277" type="curve" smooth="yes"/>
      <point x="21" y="255" type="line" smooth="yes"/>
      <point x="1" y="105"/>
      <point x="72" y="-13"/>
    </contour>
  </outline>
</glyph>
<glyph name="otilde" format="1">
  <advance width="553"/>
  <unicode hex="00F5"/>
  <outline>
    <contour>
      <point x="387" y="725" type="curve" smooth="yes"/>
      <point x="347" y="725"/>
      <point x="307" y="778"/>
      <point x="246" y="778" type="curve" smooth="yes"/>
      <point x="186" y="778"/>
      <point x="129" y="735"/>
      <point x="123" y="636" type="curve"/>
      <point x="212" y="636" type="line"/>
      <point x="216" y="665"/>
      <point x="231" y="675"/>
      <point x="250" y="675" type="curve" smooth="yes"/>
      <point x="290" y="675"/>
      <point x="330" y="622"/>
      <point x="391" y="622" type="curve" smooth="yes"/>
      <point x="451" y="622"/>
      <point x="508" y="665"/>
      <point x="514" y="764" type="curve"/>
      <point x="425" y="764" type="line"/>
      <point x="421" y="735"/>
      <point x="406" y="725"/>
    </contour>
    <contour>
      <point x="243" y="100" type="curve" smooth="yes"/>
      <point x="166" y="100"/>
      <point x="137" y="161"/>
      <point x="150" y="256" type="curve" smooth="yes"/>
      <point x="153" y="278" type="line" smooth="yes"/>
      <point x="167" y="380"/>
      <point x="210" y="430"/>
      <point x="282" y="430" type="curve" smooth="yes"/>
      <point x="359" y="430"/>
      <point x="388" y="369"/>
      <point x="375" y="274" type="curve" smooth="yes"/>
      <point x="372" y="252" type="line" smooth="yes"/>
      <point x="358" y="150"/>
      <point x="315" y="100"/>
    </contour>
    <contour>
      <point x="240" y="-13" type="curve" smooth="yes"/>
      <point x="410" y="-13"/>
      <point x="480" y="102"/>
      <point x="501" y="253" type="curve" smooth="yes"/>
      <point x="504" y="275" type="line" smooth="yes"/>
      <point x="524" y="425"/>
      <point x="453" y="543"/>
      <point x="285" y="543" type="curve" smooth="yes"/>
      <point x="115" y="543"/>
      <point x="45" y="428"/>
      <point x="24" y="277" type="curve" smooth="yes"/>
      <point x="21" y="255" type="line" smooth="yes"/>
      <point x="1" y="105"/>
      <point x="72" y="-13"/>
    </contour>
  </outline>
</glyph>
<glyph name="odieresis" format="1">
  <advance width="553"/>
  <unicode hex="00F6"/>
  <outline>
    <contour>
      <point x="298" y="763" type="line"/>
      <point x="156" y="763" type="line"/>
      <point x="137" y="622" type="line"/>
      <point x="279" y="622" type="line"/>
    </contour>
    <contour>
      <point x="498" y="763" type="line"/>
      <point x="356" y="763" type="line"/>
      <point x="337" y="622" type="line"/>
      <point x="479" y="622" type="line"/>
    </contour>
    <contour>
      <point x="243" y="100" type="curve" smooth="yes"/>
      <point x="166" y="100"/>
      <point x="137" y="161"/>
      <point x="150" y="256" type="curve" smooth="yes"/>
      <point x="153" y="278" type="line" smooth="yes"/>
      <point x="167" y="380"/>
      <point x="210" y="430"/>
      <point x="282" y="430" type="curve" smooth="yes"/>
      <point x="359" y="430"/>
      <point x="388" y="369"/>
      <point x="375" y="274" type="curve" smooth="yes"/>
      <point x="372" y="252" type="line" smooth="yes"/>
      <point x="358" y="150"/>
      <point x="315" y="100"/>
    </contour>
    <contour>
      <point x="240" y="-13" type="curve" smooth="yes"/>
      <point x="410" y="-13"/>
      <point x="480" y="102"/>
      <point x="501" y="253" type="curve" smooth="yes"/>
      <point x="504" y="275" type="line" smooth="yes"/>
      <point x="524" y="425"/>
      <point x="453" y="543"/>
      <point x="285" y="543" type="curve" smooth="yes"/>
      <point x="115" y="543"/>
      <point x="45" y="428"/>
      <point x="24" y="277" type="curve" smooth="yes"/>
      <point x="21" y="255" type="line" smooth="yes"/>
      <point x="1" y="105"/>
      <point x="72" y="-13"/>
    </contour>
  </outline>
</glyph>
<glyph name="divide" format="1">
  <advance width="600"/>
  <unicode hex="00F7"/>
  <outline>
    <contour>
      <point x="37" y="331" type="line"/>
      <point x="549" y="331" type="line"/>
      <point x="565" y="449" type="line"/>
      <point x="53" y="449" type="line"/>
    </contour>
    <contour>
      <point x="354" y="250" type="line"/>
      <point x="212" y="250" type="line"/>
      <point x="194" y="109" type="line"/>
      <point x="336" y="109" type="line"/>
    </contour>
    <contour>
      <point x="409" y="671" type="line"/>
      <point x="267" y="671" type="line"/>
      <point x="248" y="530" type="line"/>
      <point x="390" y="530" type="line"/>
    </contour>
  </outline>
</glyph>
<glyph name="oslash" format="1">
  <advance width="553"/>
  <unicode hex="00F8"/>
  <outline>
    <contour>
      <point x="71" y="0" type="line"/>
      <point x="96" y="28" type="line"/>
      <point x="131" y="2"/>
      <point x="179" y="-13"/>
      <point x="240" y="-13" type="curve" smooth="yes"/>
      <point x="410" y="-13"/>
      <point x="480" y="102"/>
      <point x="501" y="253" type="curve" smooth="yes"/>
      <point x="504" y="275" type="line" smooth="yes"/>
      <point x="513" y="345"/>
      <point x="503" y="408"/>
      <point x="472" y="455" type="curve"/>
      <point x="538" y="530" type="line"/>
      <point x="454" y="530" type="line"/>
      <point x="429" y="501" type="line"/>
      <point x="393" y="528"/>
      <point x="345" y="543"/>
      <point x="285" y="543" type="curve" smooth="yes"/>
      <point x="115" y="543"/>
      <point x="45" y="428"/>
      <point x="24" y="277" type="curve" smooth="yes"/>
      <point x="21" y="255" type="line" smooth="yes"/>
      <point x="11" y="185"/>
      <point x="22" y="122"/>
      <point x="53" y="75" type="curve"/>
      <point x="-13" y="0" type="line"/>
    </contour>
    <contour>
      <point x="243" y="100" type="curve" smooth="yes"/>
      <point x="215" y="100"/>
      <point x="194" y="108"/>
      <point x="178" y="122" type="curve"/>
      <point x="375" y="346" type="line"/>
      <point x="378" y="325"/>
      <point x="378" y="301"/>
      <point x="375" y="274" type="curve" smooth="yes"/>
      <point x="372" y="252" type="line" smooth="yes"/>
      <point x="358" y="150"/>
      <point x="315" y="100"/>
    </contour>
    <contour>
      <point x="150" y="256" type="curve" smooth="yes"/>
      <point x="153" y="278" type="line" smooth="yes"/>
      <point x="167" y="380"/>
      <point x="210" y="430"/>
      <point x="282" y="430" type="curve" smooth="yes"/>
      <point x="309" y="430"/>
      <point x="331" y="422"/>
      <point x="346" y="407" type="curve"/>
      <point x="149" y="184" type="line"/>
      <point x="146" y="205"/>
      <point x="146" y="229"/>
    </contour>
  </outline>
</glyph>
<glyph name="yacute" format="1">
  <advance width="530"/>
  <unicode hex="00FD"/>
  <outline>
    <contour>
      <point x="347" y="780" type="line"/>
      <point x="233" y="601" type="line"/>
      <point x="363" y="601" type="line"/>
      <point x="489" y="780" type="line"/>
    </contour>
    <contour>
      <point x="238" y="162" type="line"/>
      <point x="169" y="530" type="line"/>
      <point x="31" y="530" type="line"/>
      <point x="157" y="20" type="line"/>
      <point x="38" y="-200" type="line"/>
      <point x="192" y="-200" type="line"/>
      <point x="290" y="20" type="line"/>
      <point x="545" y="530" type="line"/>
      <point x="402" y="530" type="line"/>
    </contour>
  </outline>
</glyph>
<glyph name="thorn" format="1">
  <advance width="563"/>
  <unicode hex="00FE"/>
  <outline>
    <contour>
      <point x="113" y="800" type="line"/>
      <point x="-19" y="-200" type="line"/>
      <point x="111" y="-200" type="line"/>
      <point x="144" y="52" type="line"/>
      <point x="164" y="24"/>
      <point x="204" y="-13"/>
      <point x="284" y="-13" type="curve" smooth="yes"/>
      <point x="423" y="-13"/>
      <point x="490" y="100"/>
      <point x="511" y="253" type="curve" smooth="yes"/>
      <point x="514" y="275" type="line" smooth="yes"/>
      <point x="535" y="431"/>
      <point x="478" y="543"/>
      <point x="344" y="543" type="curve" smooth="yes"/>
      <point x="277" y="543"/>
      <point x="228" y="511"/>
      <point x="201" y="483" type="curve"/>
      <point x="243" y="800" type="line"/>
    </contour>
    <contour>
      <point x="254" y="100" type="curve" smooth="yes"/>
      <point x="200" y="100"/>
      <point x="171" y="137"/>
      <point x="159" y="163" type="curve"/>
      <point x="186" y="371" type="line"/>
      <point x="205" y="395"/>
      <point x="241" y="430"/>
      <point x="294" y="430" type="curve" smooth="yes"/>
      <point x="368" y="430"/>
      <point x="398" y="368"/>
      <point x="385" y="274" type="curve" smooth="yes"/>
      <point x="382" y="252" type="line" smooth="yes"/>
      <point x="369" y="158"/>
      <point x="327" y="100"/>
    </contour>
  </outline>
</glyph>
<glyph name="ydieresis" format="1">
  <advance width="530"/>
  <unicode hex="00FF"/>
  <outline>
    <contour>
      <point x="290" y="763" type="line"/>
      <point x="148" y="763" type="line"/>
      <point x="129" y="622" type="line"/>
      <point x="271" y="622" type="line"/>
    </contour>
    <contour>
      <point x="490" y="763" type="line"/>
      <point x="348" y="763" type="line"/>
      <point x="329" y="622" type="line"/>
      <point x="471" y="622" type="line"/>
    </contour>
    <contour>
      <point x="238" y="162" type="line"/>
      <point x="169" y="530" type="line"/>
      <point x="31" y="530" type="line"/>
      <point x="157" y="20" type="line"/>
      <point x="38" y="-200" type="line"/>
      <point x="192" y="-200" type="line"/>
      <point x="290" y="20" type="line"/>
      <point x="545" y="530" type="line"/>
      <point x="402" y="530" type="line"/>
    </contour>
  </outline>
</glyph>
<glyph name="Amacron" format="1">
  <advance width="631"/>
  <unicode hex="0100"/>
  <outline>
    <contour>
      <point x="241" y="853" type="line"/>
      <point x="517" y="853" type="line"/>
      <point x="528" y="937" type="line"/>
      <point x="252" y="937" type="line"/>
    </contour>
    <contour>
      <point x="277" y="784" type="line"/>
      <point x="-31" y="0" type="line"/>
      <point x="116" y="0" type="line"/>
      <point x="182" y="178" type="line"/>
      <point x="402" y="178" type="line"/>
      <point x="423" y="0" type="line"/>
      <point x="564" y="0" type="line"/>
      <point x="462" y="784" type="line"/>
    </contour>
    <contour>
      <point x="352" y="631" type="line"/>
      <point x="393" y="295" type="line"/>
      <point x="222" y="295" type="line"/>
    </contour>
  </outline>
</glyph>
<glyph name="amacron" format="1">
  <advance width="538"/>
  <unicode hex="0101"/>
  <outline>
    <contour>
      <point x="164" y="633" type="line"/>
      <point x="442" y="633" type="line"/>
      <point x="457" y="748" type="line"/>
      <point x="179" y="748" type="line"/>
    </contour>
    <contour>
      <point x="329" y="0" type="line"/>
      <point x="444" y="0" type="line"/>
      <point x="454" y="150" type="line"/>
      <point x="479" y="342" type="line" smooth="yes"/>
      <point x="495" y="463"/>
      <point x="439" y="543"/>
      <point x="275" y="543" type="curve" smooth="yes"/>
      <point x="113" y="543"/>
      <point x="63" y="460"/>
      <point x="52" y="364" type="curve" smooth="yes"/>
      <point x="51" y="355" type="line"/>
      <point x="175" y="355" type="line"/>
      <point x="180" y="401"/>
      <point x="203" y="442"/>
      <point x="273" y="442" type="curve" smooth="yes"/>
      <point x="341" y="442"/>
      <point x="359" y="416"/>
      <point x="351" y="353" type="curve" smooth="yes"/>
      <point x="350" y="345" type="line"/>
      <point x="207" y="323" type="line" smooth="yes"/>
      <point x="95" y="306"/>
      <point x="19" y="270"/>
      <point x="6" y="156" type="curve" smooth="yes"/>
      <point x="5" y="147" type="line" smooth="yes"/>
      <point x="-4" y="62"/>
      <point x="44" y="-13"/>
      <point x="156" y="-13" type="curve" smooth="yes"/>
      <point x="245" y="-13"/>
      <point x="291" y="17"/>
      <point x="329" y="61" type="curve"/>
    </contour>
    <contour>
      <point x="201" y="94" type="curve" smooth="yes"/>
      <point x="152" y="94"/>
      <point x="132" y="126"/>
      <point x="136" y="159" type="curve" smooth="yes"/>
      <point x="137" y="168" type="line" smooth="yes"/>
      <point x="142" y="209"/>
      <point x="174" y="230"/>
      <point x="221" y="237" type="curve" smooth="yes"/>
      <point x="338" y="255" type="line"/>
      <point x="324" y="152" type="line"/>
      <point x="305" y="128"/>
      <point x="264" y="94"/>
    </contour>
  </outline>
</glyph>
<glyph name="Abreve" format="1">
  <advance width="631"/>
  <unicode hex="0102"/>
  <outline>
    <contour>
      <point x="375" y="826" type="curve" smooth="yes"/>
      <point x="509" y="826"/>
      <point x="554" y="882"/>
      <point x="563" y="950" type="curve"/>
      <point x="469" y="950" type="line"/>
      <point x="464" y="919"/>
      <point x="439" y="901"/>
      <point x="383" y="901" type="curve" smooth="yes"/>
      <point x="327" y="901"/>
      <point x="306" y="919"/>
      <point x="311" y="950" type="curve"/>
      <point x="221" y="950" type="line"/>
      <point x="212" y="882"/>
      <point x="241" y="826"/>
    </contour>
    <contour>
      <point x="277" y="784" type="line"/>
      <point x="-31" y="0" type="line"/>
      <point x="116" y="0" type="line"/>
      <point x="182" y="178" type="line"/>
      <point x="402" y="178" type="line"/>
      <point x="423" y="0" type="line"/>
      <point x="564" y="0" type="line"/>
      <point x="462" y="784" type="line"/>
    </contour>
    <contour>
      <point x="352" y="631" type="line"/>
      <point x="393" y="295" type="line"/>
      <point x="222" y="295" type="line"/>
    </contour>
  </outline>
</glyph>
<glyph name="Aogonek" format="1">
  <advance width="631"/>
  <unicode hex="0104"/>
  <outline>
    <contour>
      <point x="277" y="784" type="line"/>
      <point x="-31" y="0" type="line"/>
      <point x="116" y="0" type="line"/>
      <point x="182" y="178" type="line"/>
      <point x="402" y="178" type="line"/>
      <point x="425" y="-16" type="line"/>
      <point x="398" y="-44"/>
      <point x="380" y="-80"/>
      <point x="380" y="-120" type="curve" smooth="yes"/>
      <point x="380" y="-185"/>
      <point x="424" y="-214"/>
      <point x="499" y="-214" type="curve" smooth="yes"/>
      <point x="539" y="-214"/>
      <point x="574" y="-203"/>
      <point x="596" y="-190" type="curve"/>
      <point x="576" y="-108" type="line"/>
      <point x="565" y="-114"/>
      <point x="547" y="-120"/>
      <point x="524" y="-120" type="curve" smooth="yes"/>
      <point x="496" y="-120"/>
      <point x="484" y="-106"/>
      <point x="484" y="-85" type="curve" smooth="yes"/>
      <point x="484" y="-44"/>
      <point x="534" y="-10"/>
      <point x="564" y="0" type="curve"/>
      <point x="462" y="784" type="line"/>
    </contour>
    <contour>
      <point x="352" y="631" type="line"/>
      <point x="393" y="295" type="line"/>
      <point x="222" y="295" type="line"/>
    </contour>
  </outline>
</glyph>
<glyph name="aogonek" format="1">
  <advance width="538"/>
  <unicode hex="0105"/>
  <outline>
    <contour>
      <point x="444" y="0" type="curve"/>
      <point x="454" y="150" type="line"/>
      <point x="479" y="342" type="line" smooth="yes"/>
      <point x="495" y="463"/>
      <point x="439" y="543"/>
      <point x="275" y="543" type="curve" smooth="yes"/>
      <point x="113" y="543"/>
      <point x="63" y="460"/>
      <point x="52" y="364" type="curve" smooth="yes"/>
      <point x="51" y="355" type="line"/>
      <point x="175" y="355" type="line"/>
      <point x="180" y="401"/>
      <point x="203" y="442"/>
      <point x="273" y="442" type="curve" smooth="yes"/>
      <point x="341" y="442"/>
      <point x="359" y="416"/>
      <point x="351" y="353" type="curve" smooth="yes"/>
      <point x="350" y="345" type="line"/>
      <point x="207" y="323" type="line" smooth="yes"/>
      <point x="95" y="306"/>
      <point x="19" y="270"/>
      <point x="6" y="156" type="curve" smooth="yes"/>
      <point x="5" y="147" type="line" smooth="yes"/>
      <point x="-4" y="62"/>
      <point x="44" y="-13"/>
      <point x="156" y="-13" type="curve" smooth="yes"/>
      <point x="245" y="-13"/>
      <point x="291" y="17"/>
      <point x="329" y="61" type="curve"/>
      <point x="329" y="5" type="line"/>
      <point x="290" y="-26"/>
      <point x="260" y="-69"/>
      <point x="260" y="-120" type="curve" smooth="yes"/>
      <point x="260" y="-185"/>
      <point x="304" y="-214"/>
      <point x="379" y="-214" type="curve" smooth="yes"/>
      <point x="419" y="-214"/>
      <point x="454" y="-203"/>
      <point x="476" y="-190" type="curve"/>
      <point x="456" y="-108" type="line"/>
      <point x="445" y="-114"/>
      <point x="427" y="-120"/>
      <point x="404" y="-120" type="curve" smooth="yes"/>
      <point x="376" y="-120"/>
      <point x="364" y="-106"/>
      <point x="364" y="-85" type="curve" smooth="yes"/>
      <point x="364" y="-44"/>
      <point x="414" y="-10"/>
    </contour>
    <contour>
      <point x="201" y="94" type="curve" smooth="yes"/>
      <point x="152" y="94"/>
      <point x="132" y="126"/>
      <point x="136" y="159" type="curve" smooth="yes"/>
      <point x="137" y="168" type="line" smooth="yes"/>
      <point x="142" y="209"/>
      <point x="174" y="230"/>
      <point x="221" y="237" type="curve" smooth="yes"/>
      <point x="338" y="255" type="line"/>
      <point x="324" y="152" type="line"/>
      <point x="305" y="128"/>
      <point x="264" y="94"/>
    </contour>
  </outline>
</glyph>
<glyph name="Cacute" format="1">
  <advance width="640"/>
  <unicode hex="0106"/>
  <outline>
    <contour>
      <point x="396" y="950" type="line"/>
      <point x="325" y="840" type="line"/>
      <point x="455" y="840" type="line"/>
      <point x="533" y="950" type="line"/>
    </contour>
    <contour>
      <point x="184" y="408" type="line" smooth="yes"/>
      <point x="207" y="585"/>
      <point x="253" y="676"/>
      <point x="363" y="676" type="curve" smooth="yes"/>
      <point x="373" y="676" type="line" smooth="yes"/>
      <point x="470" y="676"/>
      <point x="495" y="613"/>
      <point x="478" y="487" type="curve"/>
      <point x="612" y="487" type="line"/>
      <point x="615" y="509" type="line" smooth="yes"/>
      <point x="641" y="698"/>
      <point x="565" y="793"/>
      <point x="372" y="793" type="curve" smooth="yes"/>
      <point x="186" y="793"/>
      <point x="84" y="678"/>
      <point x="48" y="408" type="curve" smooth="yes"/>
      <point x="43" y="370" type="line" smooth="yes"/>
      <point x="7" y="97"/>
      <point x="83" y="-13"/>
      <point x="290" y="-13" type="curve" smooth="yes"/>
      <point x="476" y="-13"/>
      <point x="562" y="70"/>
      <point x="582" y="254" type="curve" smooth="yes"/>
      <point x="583" y="263" type="line"/>
      <point x="448" y="263" type="line"/>
      <point x="435" y="165"/>
      <point x="409" y="104"/>
      <point x="299" y="104" type="curve" smooth="yes"/>
      <point x="289" y="104" type="line" smooth="yes"/>
      <point x="180" y="104"/>
      <point x="155" y="190"/>
      <point x="179" y="370" type="curve" smooth="yes"/>
    </contour>
  </outline>
</glyph>
<glyph name="ccircumflex" format="1">
  <advance width="525"/>
  <unicode hex="0109"/>
  <outline>
    <contour>
      <point x="495" y="601" type="line"/>
      <point x="385" y="780" type="line"/>
      <point x="261" y="780" type="line"/>
      <point x="105" y="601" type="line"/>
      <point x="225" y="601" type="line"/>
      <point x="315" y="693" type="line"/>
      <point x="381" y="601" type="line"/>
    </contour>
    <contour>
      <point x="153" y="278" type="line" smooth="yes"/>
      <point x="167" y="380"/>
      <point x="210" y="430"/>
      <point x="275" y="430" type="curve" smooth="yes"/>
      <point x="343" y="430"/>
      <point x="367" y="387"/>
      <point x="361" y="328" type="curve"/>
      <point x="484" y="328" type="line"/>
      <point x="487" y="350" type="line" smooth="yes"/>
      <point x="502" y="460"/>
      <point x="430" y="543"/>
      <point x="278" y="543" type="curve" smooth="yes"/>
      <point x="115" y="543"/>
      <point x="45" y="428"/>
      <point x="24" y="277" type="curve" smooth="yes"/>
      <point x="21" y="255" type="line" smooth="yes"/>
      <point x="1" y="105"/>
      <point x="72" y="-13"/>
      <point x="233" y="-13" type="curve" smooth="yes"/>
      <point x="383" y="-13"/>
      <point x="453" y="76"/>
      <point x="465" y="184" type="curve" smooth="yes"/>
      <point x="466" y="193" type="line"/>
      <point x="343" y="193" type="line"/>
      <point x="336" y="139"/>
      <point x="302" y="100"/>
      <point x="236" y="100" type="curve" smooth="yes"/>
      <point x="166" y="100"/>
      <point x="137" y="161"/>
      <point x="150" y="256" type="curve" smooth="yes"/>
    </contour>
  </outline>
</glyph>
<glyph name="Dcaron" format="1">
  <advance width="655"/>
  <unicode hex="010E"/>
  <outline>
    <contour>
      <point x="445" y="950" type="line"/>
      <point x="374" y="898" type="line"/>
      <point x="317" y="950" type="line"/>
      <point x="199" y="950" type="line"/>
      <point x="303" y="840" type="line"/>
      <point x="433" y="840" type="line"/>
      <point x="567" y="950" type="line"/>
    </contour>
    <contour>
      <point x="615" y="410" type="line" smooth="yes"/>
      <point x="651" y="680"/>
      <point x="555" y="780"/>
      <point x="333" y="780" type="curve" smooth="yes"/>
      <point x="114" y="780" type="line"/>
      <point x="12" y="0" type="line"/>
      <point x="250" y="0" type="line" smooth="yes"/>
      <point x="469" y="0"/>
      <point x="575" y="103"/>
      <point x="610" y="372" type="curve" smooth="yes"/>
    </contour>
    <contour>
      <point x="161" y="117" type="line"/>
      <point x="233" y="663" type="line"/>
      <point x="328" y="663" type="line" smooth="yes"/>
      <point x="460" y="663"/>
      <point x="502" y="586"/>
      <point x="479" y="410" type="curve" smooth="yes"/>
      <point x="474" y="372" type="line" smooth="yes"/>
      <point x="450" y="187"/>
      <point x="389" y="117"/>
      <point x="250" y="117" type="curve" smooth="yes"/>
    </contour>
  </outline>
</glyph>
<glyph name="Ebreve" format="1">
  <advance width="565"/>
  <unicode hex="0114"/>
  <outline>
    <contour>
      <point x="356" y="826" type="curve" smooth="yes"/>
      <point x="490" y="826"/>
      <point x="535" y="882"/>
      <point x="544" y="950" type="curve"/>
      <point x="450" y="950" type="line"/>
      <point x="445" y="919"/>
      <point x="420" y="901"/>
      <point x="364" y="901" type="curve" smooth="yes"/>
      <point x="308" y="901"/>
      <point x="287" y="919"/>
      <point x="292" y="950" type="curve"/>
      <point x="202" y="950" type="line"/>
      <point x="193" y="882"/>
      <point x="222" y="826"/>
    </contour>
    <contour>
      <point x="114" y="780" type="line"/>
      <point x="12" y="0" type="line"/>
      <point x="476" y="0" type="line"/>
      <point x="491" y="117" type="line"/>
      <point x="161" y="117" type="line"/>
      <point x="190" y="340" type="line"/>
      <point x="470" y="340" type="line"/>
      <point x="485" y="456" type="line"/>
      <point x="206" y="456" type="line"/>
      <point x="233" y="663" type="line"/>
      <point x="563" y="663" type="line"/>
      <point x="578" y="780" type="line"/>
    </contour>
  </outline>
</glyph>
<glyph name="Edotaccent" format="1">
  <advance width="565"/>
  <unicode hex="0116"/>
  <outline>
    <contour>
      <point x="429" y="941" type="line"/>
      <point x="313" y="941" type="line"/>
      <point x="301" y="849" type="line"/>
      <point x="417" y="849" type="line"/>
    </contour>
    <contour>
      <point x="114" y="780" type="line"/>
      <point x="12" y="0" type="line"/>
      <point x="476" y="0" type="line"/>
      <point x="491" y="117" type="line"/>
      <point x="161" y="117" type="line"/>
      <point x="190" y="340" type="line"/>
      <point x="470" y="340" type="line"/>
      <point x="485" y="456" type="line"/>
      <point x="206" y="456" type="line"/>
      <point x="233" y="663" type="line"/>
      <point x="563" y="663" type="line"/>
      <point x="578" y="780" type="line"/>
    </contour>
  </outline>
</glyph>
<glyph name="Eogonek" format="1">
  <advance width="565"/>
  <unicode hex="0118"/>
  <outline>
    <contour>
      <point x="114" y="780" type="line"/>
      <point x="12" y="0" type="line"/>
      <point x="354" y="0" type="line"/>
      <point x="318" y="-31"/>
      <point x="292" y="-72"/>
      <point x="292" y="-120" type="curve" smooth="yes"/>
      <point x="292" y="-185"/>
      <point x="336" y="-214"/>
      <point x="411" y="-214" type="curve" smooth="yes"/>
      <point x="451" y="-214"/>
      <point x="486" y="-203"/>
      <point x="508" y="-190" type="curve"/>
      <point x="488" y="-108" type="line"/>
      <point x="477" y="-114"/>
      <point x="459" y="-120"/>
      <point x="436" y="-120" type="curve" smooth="yes"/>
      <point x="408" y="-120"/>
      <point x="396" y="-106"/>
      <point x="396" y="-85" type="curve" smooth="yes"/>
      <point x="396" y="-44"/>
      <point x="446" y="-10"/>
      <point x="476" y="0" type="curve"/>
      <point x="491" y="117" type="line"/>
      <point x="161" y="117" type="line"/>
      <point x="190" y="340" type="line"/>
      <point x="470" y="340" type="line"/>
      <point x="485" y="456" type="line"/>
      <point x="206" y="456" type="line"/>
      <point x="233" y="663" type="line"/>
      <point x="563" y="663" type="line"/>
      <point x="578" y="780" type="line"/>
    </contour>
  </outline>
</glyph>
<glyph name="eogonek" format="1">
  <advance width="553"/>
  <unicode hex="0119"/>
  <outline>
    <contour>
      <point x="495" y="217" type="line"/>
      <point x="502" y="267" type="line" smooth="yes"/>
      <point x="524" y="428"/>
      <point x="455" y="543"/>
      <point x="286" y="543" type="curve" smooth="yes"/>
      <point x="124" y="543"/>
      <point x="44" y="425"/>
      <point x="24" y="277" type="curve" smooth="yes"/>
      <point x="21" y="255" type="line" smooth="yes"/>
      <point x="2" y="116"/>
      <point x="59" y="4"/>
      <point x="212" y="-11" type="curve"/>
      <point x="183" y="-40"/>
      <point x="162" y="-77"/>
      <point x="162" y="-120" type="curve" smooth="yes"/>
      <point x="162" y="-185"/>
      <point x="206" y="-214"/>
      <point x="281" y="-214" type="curve" smooth="yes"/>
      <point x="321" y="-214"/>
      <point x="356" y="-203"/>
      <point x="378" y="-190" type="curve"/>
      <point x="358" y="-108" type="line"/>
      <point x="347" y="-114"/>
      <point x="329" y="-120"/>
      <point x="306" y="-120" type="curve" smooth="yes"/>
      <point x="278" y="-120"/>
      <point x="266" y="-106"/>
      <point x="266" y="-85" type="curve" smooth="yes"/>
      <point x="266" y="-44"/>
      <point x="316" y="-9"/>
      <point x="346" y="0" type="curve" smooth="yes"/>
      <point x="433" y="26"/>
      <point x="479" y="87"/>
      <point x="488" y="161" type="curve" smooth="yes"/>
      <point x="489" y="170" type="line"/>
      <point x="366" y="170" type="line"/>
      <point x="361" y="130"/>
      <point x="327" y="88"/>
      <point x="253" y="88" type="curve" smooth="yes"/>
      <point x="178" y="88"/>
      <point x="137" y="131"/>
      <point x="144" y="217" type="curve"/>
    </contour>
    <contour>
      <point x="281" y="442" type="curve" smooth="yes"/>
      <point x="353" y="442"/>
      <point x="387" y="392"/>
      <point x="378" y="313" type="curve"/>
      <point x="156" y="313" type="line"/>
      <point x="170" y="395"/>
      <point x="214" y="442"/>
    </contour>
  </outline>
</glyph>
<glyph name="Gbreve" format="1">
  <advance width="664"/>
  <unicode hex="011E"/>
  <outline>
    <contour>
      <point x="395" y="826" type="curve" smooth="yes"/>
      <point x="529" y="826"/>
      <point x="574" y="882"/>
      <point x="583" y="950" type="curve"/>
      <point x="489" y="950" type="line"/>
      <point x="484" y="919"/>
      <point x="459" y="901"/>
      <point x="403" y="901" type="curve" smooth="yes"/>
      <point x="347" y="901"/>
      <point x="326" y="919"/>
      <point x="331" y="950" type="curve"/>
      <point x="241" y="950" type="line"/>
      <point x="232" y="882"/>
      <point x="261" y="826"/>
    </contour>
    <contour>
      <point x="310" y="-13" type="curve" smooth="yes"/>
      <point x="451" y="-13"/>
      <point x="534" y="47"/>
      <point x="569" y="88" type="curve"/>
      <point x="611" y="410" type="line"/>
      <point x="364" y="410" type="line"/>
      <point x="349" y="294" type="line"/>
      <point x="462" y="294" type="line"/>
      <point x="443" y="149" type="line"/>
      <point x="430" y="135"/>
      <point x="385" y="104"/>
      <point x="319" y="104" type="curve" smooth="yes"/>
      <point x="309" y="104" type="line" smooth="yes"/>
      <point x="200" y="104"/>
      <point x="155" y="190"/>
      <point x="179" y="370" type="curve" smooth="yes"/>
      <point x="184" y="408" type="line" smooth="yes"/>
      <point x="207" y="585"/>
      <point x="258" y="676"/>
      <point x="368" y="676" type="curve" smooth="yes"/>
      <point x="378" y="676" type="line" smooth="yes"/>
      <point x="475" y="676"/>
      <point x="505" y="613"/>
      <point x="488" y="487" type="curve"/>
      <point x="622" y="487" type="line"/>
      <point x="625" y="509" type="line" smooth="yes"/>
      <point x="651" y="698"/>
      <point x="570" y="793"/>
      <point x="377" y="793" type="curve" smooth="yes"/>
      <point x="191" y="793"/>
      <point x="84" y="678"/>
      <point x="48" y="408" type="curve" smooth="yes"/>
      <point x="43" y="370" type="line" smooth="yes"/>
      <point x="7" y="97"/>
      <point x="103" y="-13"/>
    </contour>
  </outline>
</glyph>
<glyph name="gbreve" format="1">
  <advance width="563"/>
  <unicode hex="011F"/>
  <outline>
    <contour>
      <point x="304" y="589" type="curve" smooth="yes"/>
      <point x="436" y="589"/>
      <point x="496" y="669"/>
      <point x="508" y="780" type="curve"/>
      <point x="409" y="780" type="line"/>
      <point x="401" y="718"/>
      <point x="366" y="689"/>
      <point x="314" y="689" type="curve" smooth="yes"/>
      <point x="262" y="689"/>
      <point x="235" y="718"/>
      <point x="243" y="780" type="curve"/>
      <point x="150" y="780" type="line"/>
      <point x="134" y="669"/>
      <point x="172" y="589"/>
    </contour>
    <contour>
      <point x="329" y="5" type="line" smooth="yes"/>
      <point x="319" y="-72"/>
      <point x="291" y="-106"/>
      <point x="212" y="-106" type="curve" smooth="yes"/>
      <point x="139" y="-106"/>
      <point x="112" y="-67"/>
      <point x="120" y="0" type="curve"/>
      <point x="-2" y="0" type="line"/>
      <point x="-5" y="-22" type="line" smooth="yes"/>
      <point x="-19" y="-122"/>
      <point x="37" y="-213"/>
      <point x="212" y="-213" type="curve" smooth="yes"/>
      <point x="367" y="-213"/>
      <point x="440" y="-141"/>
      <point x="458" y="-3" type="curve" smooth="yes"/>
      <point x="508" y="380" type="line"/>
      <point x="536" y="530" type="line"/>
      <point x="421" y="530" type="line"/>
      <point x="402" y="461" type="line"/>
      <point x="378" y="506"/>
      <point x="332" y="543"/>
      <point x="252" y="543" type="curve" smooth="yes"/>
      <point x="120" y="543"/>
      <point x="47" y="441"/>
      <point x="27" y="294" type="curve" smooth="yes"/>
      <point x="24" y="272" type="line" smooth="yes"/>
      <point x="5" y="129"/>
      <point x="68" y="21"/>
      <point x="196" y="21" type="curve" smooth="yes"/>
      <point x="263" y="21"/>
      <point x="312" y="53"/>
      <point x="339" y="81" type="curve"/>
    </contour>
    <contour>
      <point x="354" y="193" type="line"/>
      <point x="335" y="169"/>
      <point x="299" y="134"/>
      <point x="246" y="134" type="curve" smooth="yes"/>
      <point x="172" y="134"/>
      <point x="141" y="187"/>
      <point x="153" y="273" type="curve" smooth="yes"/>
      <point x="156" y="295" type="line" smooth="yes"/>
      <point x="168" y="381"/>
      <point x="208" y="430"/>
      <point x="282" y="430" type="curve" smooth="yes"/>
      <point x="336" y="430"/>
      <point x="365" y="393"/>
      <point x="377" y="367" type="curve"/>
    </contour>
  </outline>
</glyph>
<glyph name="Gdotaccent" format="1">
  <advance width="664"/>
  <unicode hex="0120"/>
  <outline>
    <contour>
      <point x="468" y="941" type="line"/>
      <point x="352" y="941" type="line"/>
      <point x="340" y="849" type="line"/>
      <point x="456" y="849" type="line"/>
    </contour>
    <contour>
      <point x="310" y="-13" type="curve" smooth="yes"/>
      <point x="451" y="-13"/>
      <point x="534" y="47"/>
      <point x="569" y="88" type="curve"/>
      <point x="611" y="410" type="line"/>
      <point x="364" y="410" type="line"/>
      <point x="349" y="294" type="line"/>
      <point x="462" y="294" type="line"/>
      <point x="443" y="149" type="line"/>
      <point x="430" y="135"/>
      <point x="385" y="104"/>
      <point x="319" y="104" type="curve" smooth="yes"/>
      <point x="309" y="104" type="line" smooth="yes"/>
      <point x="200" y="104"/>
      <point x="155" y="190"/>
      <point x="179" y="370" type="curve" smooth="yes"/>
      <point x="184" y="408" type="line" smooth="yes"/>
      <point x="207" y="585"/>
      <point x="258" y="676"/>
      <point x="368" y="676" type="curve" smooth="yes"/>
      <point x="378" y="676" type="line" smooth="yes"/>
      <point x="475" y="676"/>
      <point x="505" y="613"/>
      <point x="488" y="487" type="curve"/>
      <point x="622" y="487" type="line"/>
      <point x="625" y="509" type="line" smooth="yes"/>
      <point x="651" y="698"/>
      <point x="570" y="793"/>
      <point x="377" y="793" type="curve" smooth="yes"/>
      <point x="191" y="793"/>
      <point x="84" y="678"/>
      <point x="48" y="408" type="curve" smooth="yes"/>
      <point x="43" y="370" type="line" smooth="yes"/>
      <point x="7" y="97"/>
      <point x="103" y="-13"/>
    </contour>
  </outline>
</glyph>
<glyph name="Gcommaaccent" format="1">
  <advance width="664"/>
  <unicode hex="0122"/>
  <outline>
    <contour>
      <point x="351" y="-47" type="line"/>
      <point x="229" y="-47" type="line"/>
      <point x="218" y="-133" type="line"/>
      <point x="287" y="-133" type="line"/>
      <point x="276" y="-161"/>
      <point x="242" y="-170"/>
      <point x="201" y="-170" type="curve"/>
      <point x="194" y="-223" type="line"/>
      <point x="283" y="-223"/>
      <point x="333" y="-189"/>
      <point x="344" y="-103" type="curve" smooth="yes"/>
    </contour>
    <contour>
      <point x="310" y="-13" type="curve" smooth="yes"/>
      <point x="451" y="-13"/>
      <point x="534" y="47"/>
      <point x="569" y="88" type="curve"/>
      <point x="611" y="410" type="line"/>
      <point x="364" y="410" type="line"/>
      <point x="349" y="294" type="line"/>
      <point x="462" y="294" type="line"/>
      <point x="443" y="149" type="line"/>
      <point x="430" y="135"/>
      <point x="385" y="104"/>
      <point x="319" y="104" type="curve" smooth="yes"/>
      <point x="309" y="104" type="line" smooth="yes"/>
      <point x="200" y="104"/>
      <point x="155" y="190"/>
      <point x="179" y="370" type="curve" smooth="yes"/>
      <point x="184" y="408" type="line" smooth="yes"/>
      <point x="207" y="585"/>
      <point x="258" y="676"/>
      <point x="368" y="676" type="curve" smooth="yes"/>
      <point x="378" y="676" type="line" smooth="yes"/>
      <point x="475" y="676"/>
      <point x="505" y="613"/>
      <point x="488" y="487" type="curve"/>
      <point x="622" y="487" type="line"/>
      <point x="625" y="509" type="line" smooth="yes"/>
      <point x="651" y="698"/>
      <point x="570" y="793"/>
      <point x="377" y="793" type="curve" smooth="yes"/>
      <point x="191" y="793"/>
      <point x="84" y="678"/>
      <point x="48" y="408" type="curve" smooth="yes"/>
      <point x="43" y="370" type="line" smooth="yes"/>
      <point x="7" y="97"/>
      <point x="103" y="-13"/>
    </contour>
  </outline>
</glyph>
<glyph name="hcircumflex" format="1">
  <advance width="563"/>
  <unicode hex="0125"/>
  <outline>
    <contour>
      <point x="9" y="0" type="line"/>
      <point x="139" y="0" type="line"/>
      <point x="187" y="367" type="line"/>
      <point x="205" y="391"/>
      <point x="239" y="430"/>
      <point x="300" y="430" type="curve" smooth="yes"/>
      <point x="359" y="430"/>
      <point x="384" y="395"/>
      <point x="377" y="342" type="curve" smooth="yes"/>
      <point x="332" y="0" type="line"/>
      <point x="462" y="0" type="line"/>
      <point x="509" y="359" type="line" smooth="yes"/>
      <point x="523" y="465"/>
      <point x="478" y="543"/>
      <point x="358" y="543" type="curve" smooth="yes"/>
      <point x="292" y="543"/>
      <point x="238" y="519"/>
      <point x="202" y="482" type="curve"/>
      <point x="244" y="800" type="line"/>
      <point x="114" y="800" type="line"/>
    </contour>
    <contour>
      <point x="121" y="840" type="line"/>
      <point x="192" y="892" type="line"/>
      <point x="249" y="840" type="line"/>
      <point x="367" y="840" type="line"/>
      <point x="263" y="950" type="line"/>
      <point x="133" y="950" type="line"/>
      <point x="-1" y="840" type="line"/>
    </contour>
  </outline>
</glyph>
<glyph name="Hbar" format="1">
  <advance width="655"/>
  <unicode hex="0126"/>
  <outline>
    <contour>
      <point x="513" y="780" type="line"/>
      <point x="499" y="670" type="line"/>
      <point x="234" y="670" type="line"/>
      <point x="248" y="780" type="line"/>
      <point x="114" y="780" type="line"/>
      <point x="12" y="0" type="line"/>
      <point x="146" y="0" type="line"/>
      <point x="190" y="340" type="line"/>
      <point x="455" y="340" type="line"/>
      <point x="411" y="0" type="line"/>
      <point x="545" y="0" type="line"/>
      <point x="647" y="780" type="line"/>
    </contour>
    <contour>
      <point x="206" y="456" type="line"/>
      <point x="221" y="568" type="line"/>
      <point x="486" y="568" type="line"/>
      <point x="471" y="456" type="line"/>
    </contour>
  </outline>
</glyph>
<glyph name="Itilde" format="1">
  <advance width="266"/>
  <unicode hex="0128"/>
  <outline>
    <contour>
      <point x="309" y="943" type="line"/>
      <point x="308" y="920"/>
      <point x="293" y="907"/>
      <point x="271" y="907" type="curve" smooth="yes"/>
      <point x="230" y="907"/>
      <point x="198" y="957"/>
      <point x="133" y="957" type="curve" smooth="yes"/>
      <point x="78" y="957"/>
      <point x="27" y="927"/>
      <point x="21" y="847" type="curve"/>
      <point x="94" y="847" type="line"/>
      <point x="95" y="870"/>
      <point x="110" y="883"/>
      <point x="132" y="883" type="curve" smooth="yes"/>
      <point x="173" y="883"/>
      <point x="205" y="833"/>
      <point x="270" y="833" type="curve" smooth="yes"/>
      <point x="325" y="833"/>
      <point x="376" y="863"/>
      <point x="382" y="943" type="curve"/>
    </contour>
    <contour>
      <point x="253" y="780" type="line"/>
      <point x="119" y="780" type="line"/>
      <point x="17" y="0" type="line"/>
      <point x="151" y="0" type="line"/>
    </contour>
  </outline>
</glyph>
<glyph name="itilde" format="1">
  <advance width="250"/>
  <unicode hex="0129"/>
  <outline>
    <contour>
      <point x="236" y="725" type="curve" smooth="yes"/>
      <point x="196" y="725"/>
      <point x="156" y="778"/>
      <point x="95" y="778" type="curve" smooth="yes"/>
      <point x="35" y="778"/>
      <point x="-22" y="735"/>
      <point x="-28" y="636" type="curve"/>
      <point x="61" y="636" type="line"/>
      <point x="65" y="665"/>
      <point x="80" y="675"/>
      <point x="99" y="675" type="curve" smooth="yes"/>
      <point x="139" y="675"/>
      <point x="179" y="622"/>
      <point x="240" y="622" type="curve" smooth="yes"/>
      <point x="300" y="622"/>
      <point x="357" y="665"/>
      <point x="363" y="764" type="curve"/>
      <point x="274" y="764" type="line"/>
      <point x="270" y="735"/>
      <point x="255" y="725"/>
    </contour>
    <contour>
      <point x="11" y="0" type="line"/>
      <point x="141" y="0" type="line"/>
      <point x="210" y="530" type="line"/>
      <point x="80" y="530" type="line"/>
    </contour>
  </outline>
</glyph>
<glyph name="Imacron" format="1">
  <advance width="266"/>
  <unicode hex="012A"/>
  <outline>
    <contour>
      <point x="58" y="853" type="line"/>
      <point x="334" y="853" type="line"/>
      <point x="345" y="937" type="line"/>
      <point x="69" y="937" type="line"/>
    </contour>
    <contour>
      <point x="253" y="780" type="line"/>
      <point x="119" y="780" type="line"/>
      <point x="17" y="0" type="line"/>
      <point x="151" y="0" type="line"/>
    </contour>
  </outline>
</glyph>
<glyph name="imacron" format="1">
  <advance width="250"/>
  <unicode hex="012B"/>
  <outline>
    <contour>
      <point x="20" y="633" type="line"/>
      <point x="298" y="633" type="line"/>
      <point x="313" y="748" type="line"/>
      <point x="35" y="748" type="line"/>
    </contour>
    <contour>
      <point x="11" y="0" type="line"/>
      <point x="141" y="0" type="line"/>
      <point x="210" y="530" type="line"/>
      <point x="80" y="530" type="line"/>
    </contour>
  </outline>
</glyph>
<glyph name="Ibreve" format="1">
  <advance width="266"/>
  <unicode hex="012C"/>
  <outline>
    <contour>
      <point x="192" y="826" type="curve" smooth="yes"/>
      <point x="326" y="826"/>
      <point x="371" y="882"/>
      <point x="380" y="950" type="curve"/>
      <point x="286" y="950" type="line"/>
      <point x="281" y="919"/>
      <point x="256" y="901"/>
      <point x="200" y="901" type="curve" smooth="yes"/>
      <point x="144" y="901"/>
      <point x="123" y="919"/>
      <point x="128" y="950" type="curve"/>
      <point x="38" y="950" type="line"/>
      <point x="29" y="882"/>
      <point x="58" y="826"/>
    </contour>
    <contour>
      <point x="253" y="780" type="line"/>
      <point x="119" y="780" type="line"/>
      <point x="17" y="0" type="line"/>
      <point x="151" y="0" type="line"/>
    </contour>
  </outline>
</glyph>
<glyph name="ibreve" format="1">
  <advance width="250"/>
  <unicode hex="012D"/>
  <outline>
    <contour>
      <point x="153" y="589" type="curve" smooth="yes"/>
      <point x="285" y="589"/>
      <point x="345" y="669"/>
      <point x="357" y="780" type="curve"/>
      <point x="258" y="780" type="line"/>
      <point x="250" y="718"/>
      <point x="215" y="689"/>
      <point x="163" y="689" type="curve" smooth="yes"/>
      <point x="111" y="689"/>
      <point x="84" y="718"/>
      <point x="92" y="780" type="curve"/>
      <point x="-1" y="780" type="line"/>
      <point x="-17" y="669"/>
      <point x="21" y="589"/>
    </contour>
    <contour>
      <point x="11" y="0" type="line"/>
      <point x="141" y="0" type="line"/>
      <point x="210" y="530" type="line"/>
      <point x="80" y="530" type="line"/>
    </contour>
  </outline>
</glyph>
<glyph name="Iogonek" format="1">
  <advance width="266"/>
  <unicode hex="012E"/>
  <outline>
    <contour>
      <point x="253" y="780" type="line"/>
      <point x="119" y="780" type="line"/>
      <point x="15" y="-13" type="line"/>
      <point x="-13" y="-42"/>
      <point x="-33" y="-78"/>
      <point x="-33" y="-120" type="curve" smooth="yes"/>
      <point x="-33" y="-185"/>
      <point x="11" y="-214"/>
      <point x="86" y="-214" type="curve" smooth="yes"/>
      <point x="126" y="-214"/>
      <point x="161" y="-203"/>
      <point x="183" y="-190" type="curve"/>
      <point x="163" y="-108" type="line"/>
      <point x="152" y="-114"/>
      <point x="134" y="-120"/>
      <point x="111" y="-120" type="curve" smooth="yes"/>
      <point x="83" y="-120"/>
      <point x="71" y="-106"/>
      <point x="71" y="-85" type="curve" smooth="yes"/>
      <point x="71" y="-44"/>
      <point x="121" y="-10"/>
      <point x="151" y="0" type="curve"/>
    </contour>
  </outline>
</glyph>
<glyph name="iogonek" format="1">
  <advance width="250"/>
  <unicode hex="012F"/>
  <outline>
    <contour>
      <point x="141" y="0" type="curve"/>
      <point x="210" y="530" type="line"/>
      <point x="80" y="530" type="line"/>
      <point x="9" y="-9" type="line"/>
      <point x="-21" y="-39"/>
      <point x="-43" y="-76"/>
      <point x="-43" y="-120" type="curve" smooth="yes"/>
      <point x="-43" y="-185"/>
      <point x="1" y="-214"/>
      <point x="76" y="-214" type="curve" smooth="yes"/>
      <point x="116" y="-214"/>
      <point x="151" y="-203"/>
      <point x="173" y="-190" type="curve"/>
      <point x="153" y="-108" type="line"/>
      <point x="142" y="-114"/>
      <point x="124" y="-120"/>
      <point x="101" y="-120" type="curve" smooth="yes"/>
      <point x="73" y="-120"/>
      <point x="61" y="-106"/>
      <point x="61" y="-85" type="curve" smooth="yes"/>
      <point x="61" y="-44"/>
      <point x="111" y="-10"/>
    </contour>
    <contour>
      <point x="247" y="763" type="line"/>
      <point x="105" y="763" type="line"/>
      <point x="86" y="622" type="line"/>
      <point x="228" y="622" type="line"/>
    </contour>
  </outline>
</glyph>
<glyph name="Idotaccent" format="1">
  <advance width="266"/>
  <unicode hex="0130"/>
  <outline>
    <contour>
      <point x="265" y="941" type="line"/>
      <point x="149" y="941" type="line"/>
      <point x="137" y="849" type="line"/>
      <point x="253" y="849" type="line"/>
    </contour>
    <contour>
      <point x="253" y="780" type="line"/>
      <point x="119" y="780" type="line"/>
      <point x="17" y="0" type="line"/>
      <point x="151" y="0" type="line"/>
    </contour>
  </outline>
</glyph>
<glyph name="dotlessi" format="1">
  <advance width="250"/>
  <unicode hex="0131"/>
  <outline>
    <contour>
      <point x="11" y="0" type="line"/>
      <point x="141" y="0" type="line"/>
      <point x="210" y="530" type="line"/>
      <point x="80" y="530" type="line"/>
    </contour>
  </outline>
</glyph>
<glyph name="IJ" format="1">
  <advance width="573"/>
  <unicode hex="0132"/>
  <outline>
    <contour>
      <point x="359" y="196" type="line" smooth="yes"/>
      <point x="350" y="128"/>
      <point x="318" y="104"/>
      <point x="270" y="104" type="curve" smooth="yes"/>
      <point x="243" y="104"/>
      <point x="221" y="110"/>
      <point x="214" y="114" type="curve"/>
      <point x="199" y="3" type="line"/>
      <point x="207" y="-3"/>
      <point x="240" y="-13"/>
      <point x="290" y="-13" type="curve" smooth="yes"/>
      <point x="391" y="-13"/>
      <point x="472" y="39"/>
      <point x="491" y="181" type="curve" smooth="yes"/>
      <point x="570" y="780" type="line"/>
      <point x="436" y="780" type="line"/>
    </contour>
    <contour>
      <point x="253" y="780" type="line"/>
      <point x="119" y="780" type="line"/>
      <point x="17" y="0" type="line"/>
      <point x="151" y="0" type="line"/>
    </contour>
  </outline>
</glyph>
<glyph name="ij" format="1">
  <advance width="452"/>
  <unicode hex="0133"/>
  <outline>
    <contour>
      <point x="11" y="0" type="line"/>
      <point x="141" y="0" type="line"/>
      <point x="210" y="530" type="line"/>
      <point x="80" y="530" type="line"/>
    </contour>
    <contour>
      <point x="247" y="763" type="line"/>
      <point x="105" y="763" type="line"/>
      <point x="86" y="622" type="line"/>
      <point x="228" y="622" type="line"/>
    </contour>
    <contour>
      <point x="447" y="763" type="line"/>
      <point x="305" y="763" type="line"/>
      <point x="286" y="622" type="line"/>
      <point x="428" y="622" type="line"/>
    </contour>
    <contour>
      <point x="208" y="-21" type="line" smooth="yes"/>
      <point x="199" y="-86"/>
      <point x="166" y="-100"/>
      <point x="120" y="-100" type="curve" smooth="yes"/>
      <point x="96" y="-100"/>
      <point x="69" y="-95"/>
      <point x="62" y="-92" type="curve"/>
      <point x="48" y="-200" type="line"/>
      <point x="56" y="-204"/>
      <point x="90" y="-213"/>
      <point x="128" y="-213" type="curve" smooth="yes"/>
      <point x="239" y="-213"/>
      <point x="319" y="-171"/>
      <point x="336" y="-38" type="curve" smooth="yes"/>
      <point x="410" y="530" type="line"/>
      <point x="280" y="530" type="line"/>
    </contour>
  </outline>
</glyph>
<glyph name="Jcircumflex" format="1">
  <advance width="524"/>
  <unicode hex="0134"/>
  <outline>
    <contour>
      <point x="387" y="780" type="line"/>
      <point x="318" y="256" type="line" smooth="yes"/>
      <point x="304" y="147"/>
      <point x="277" y="104"/>
      <point x="203" y="104" type="curve" smooth="yes"/>
      <point x="146" y="104"/>
      <point x="117" y="152"/>
      <point x="137" y="263" type="curve"/>
      <point x="10" y="263" type="line"/>
      <point x="7" y="241" type="line" smooth="yes"/>
      <point x="-15" y="81"/>
      <point x="34" y="-13"/>
      <point x="203" y="-13" type="curve" smooth="yes"/>
      <point x="357" y="-13"/>
      <point x="428" y="75"/>
      <point x="450" y="239" type="curve" smooth="yes"/>
      <point x="521" y="780" type="line"/>
    </contour>
    <contour>
      <point x="400" y="840" type="line"/>
      <point x="471" y="892" type="line"/>
      <point x="528" y="840" type="line"/>
      <point x="646" y="840" type="line"/>
      <point x="542" y="950" type="line"/>
      <point x="412" y="950" type="line"/>
      <point x="278" y="840" type="line"/>
    </contour>
  </outline>
</glyph>
<glyph name="Kcommaaccent" format="1">
  <advance width="606"/>
  <unicode hex="0136"/>
  <outline>
    <contour>
      <point x="318" y="-47" type="line"/>
      <point x="196" y="-47" type="line"/>
      <point x="185" y="-133" type="line"/>
      <point x="254" y="-133" type="line"/>
      <point x="243" y="-161"/>
      <point x="209" y="-170"/>
      <point x="168" y="-170" type="curve"/>
      <point x="161" y="-223" type="line"/>
      <point x="250" y="-223"/>
      <point x="300" y="-189"/>
      <point x="311" y="-103" type="curve" smooth="yes"/>
    </contour>
    <contour>
      <point x="248" y="780" type="line"/>
      <point x="114" y="780" type="line"/>
      <point x="12" y="0" type="line"/>
      <point x="146" y="0" type="line"/>
      <point x="176" y="230" type="line"/>
      <point x="274" y="348" type="line"/>
      <point x="387" y="0" type="line"/>
      <point x="532" y="0" type="line"/>
      <point x="370" y="463" type="line"/>
      <point x="634" y="780" type="line"/>
      <point x="475" y="780" type="line"/>
      <point x="203" y="438" type="line"/>
    </contour>
  </outline>
</glyph>
<glyph name="kcommaaccent" format="1">
  <advance width="543"/>
  <unicode hex="0137"/>
  <outline>
    <contour>
      <point x="5" y="0" type="line"/>
      <point x="135" y="0" type="line"/>
      <point x="155" y="156" type="line"/>
      <point x="235" y="233" type="line"/>
      <point x="325" y="0" type="line"/>
      <point x="473" y="0" type="line"/>
      <point x="337" y="332" type="line"/>
      <point x="542" y="530" type="line"/>
      <point x="380" y="530" type="line"/>
      <point x="178" y="330" type="line"/>
      <point x="240" y="800" type="line"/>
      <point x="110" y="800" type="line"/>
    </contour>
    <contour>
      <point x="276" y="-47" type="line"/>
      <point x="154" y="-47" type="line"/>
      <point x="143" y="-133" type="line"/>
      <point x="212" y="-133" type="line"/>
      <point x="201" y="-161"/>
      <point x="167" y="-170"/>
      <point x="126" y="-170" type="curve"/>
      <point x="119" y="-223" type="line"/>
      <point x="208" y="-223"/>
      <point x="258" y="-189"/>
      <point x="269" y="-103" type="curve" smooth="yes"/>
    </contour>
  </outline>
</glyph>
<glyph name="kgreenlandic" format="1">
  <advance width="543"/>
  <unicode hex="0138"/>
  <outline>
    <contour>
      <point x="75" y="530" type="line"/>
      <point x="5" y="0" type="line"/>
      <point x="135" y="0" type="line"/>
      <point x="155" y="156" type="line"/>
      <point x="235" y="233" type="line"/>
      <point x="325" y="0" type="line"/>
      <point x="473" y="0" type="line"/>
      <point x="337" y="332" type="line"/>
      <point x="542" y="530" type="line"/>
      <point x="380" y="530" type="line"/>
      <point x="178" y="330" type="line"/>
      <point x="204" y="530" type="line"/>
    </contour>
  </outline>
</glyph>
<glyph name="Lacute" format="1">
  <advance width="511"/>
  <unicode hex="0139"/>
  <outline>
    <contour>
      <point x="447" y="0" type="line"/>
      <point x="462" y="117" type="line"/>
      <point x="161" y="117" type="line"/>
      <point x="248" y="780" type="line"/>
      <point x="114" y="780" type="line"/>
      <point x="12" y="0" type="line"/>
    </contour>
    <contour>
      <point x="195" y="950" type="line"/>
      <point x="124" y="840" type="line"/>
      <point x="254" y="840" type="line"/>
      <point x="332" y="950" type="line"/>
    </contour>
  </outline>
</glyph>
<glyph name="lacute" format="1">
  <advance width="250"/>
  <unicode hex="013A"/>
  <outline>
    <contour>
      <point x="11" y="0" type="line"/>
      <point x="141" y="0" type="line"/>
      <point x="246" y="800" type="line"/>
      <point x="116" y="800" type="line"/>
    </contour>
    <contour>
      <point x="192" y="950" type="line"/>
      <point x="121" y="840" type="line"/>
      <point x="251" y="840" type="line"/>
      <point x="329" y="950" type="line"/>
    </contour>
  </outline>
</glyph>
<glyph name="Lcommaaccent" format="1">
  <advance width="511"/>
  <unicode hex="013B"/>
  <outline>
    <contour>
      <point x="284" y="-47" type="line"/>
      <point x="162" y="-47" type="line"/>
      <point x="151" y="-133" type="line"/>
      <point x="220" y="-133" type="line"/>
      <point x="209" y="-161"/>
      <point x="175" y="-170"/>
      <point x="134" y="-170" type="curve"/>
      <point x="127" y="-223" type="line"/>
      <point x="216" y="-223"/>
      <point x="266" y="-189"/>
      <point x="277" y="-103" type="curve" smooth="yes"/>
    </contour>
    <contour>
      <point x="447" y="0" type="line"/>
      <point x="462" y="117" type="line"/>
      <point x="161" y="117" type="line"/>
      <point x="248" y="780" type="line"/>
      <point x="114" y="780" type="line"/>
      <point x="12" y="0" type="line"/>
    </contour>
  </outline>
</glyph>
